<?xml version="1.0" encoding="utf-8"?>
<!-- Generator: Adobe Illustrator 23.0.6, SVG Export Plug-In . SVG Version: 6.00 Build 0)  -->
<svg version="1.1" xmlns="http://www.w3.org/2000/svg" xmlns:xlink="http://www.w3.org/1999/xlink" x="0px" y="0px"
	 viewBox="0 0 240 184" style="enable-background:new 0 0 240 184;" xml:space="preserve">
<style type="text/css">
	.st0{fill:url(#SVGID_1_);}
	.st1{fill:url(#SVGID_2_);}
	.st2{fill:url(#SVGID_3_);}
	.st3{fill:url(#SVGID_4_);}
	.st4{fill:url(#SVGID_5_);}
	.st5{fill:url(#SVGID_6_);}
	.st6{fill:url(#SVGID_7_);}
	.st7{fill:url(#SVGID_8_);}
	.st8{fill:url(#SVGID_9_);}
	.st9{fill:url(#SVGID_10_);}
	.st10{fill:url(#SVGID_11_);}
	.st11{fill:url(#SVGID_12_);}
	.st12{fill:url(#SVGID_13_);}
	.st13{fill:url(#SVGID_14_);}
	.st14{fill:url(#SVGID_15_);}
	.st15{fill:url(#SVGID_16_);}
	.st16{display:none;}
	.st17{display:inline;fill:url(#SVGID_17_);}
	.st18{display:inline;fill:url(#SVGID_18_);}
	.st19{display:inline;fill:url(#SVGID_19_);}
	.st20{fill:url(#SVGID_20_);}
	.st21{fill:url(#SVGID_21_);}
	.st22{fill:url(#SVGID_22_);}
	.st23{fill:url(#SVGID_23_);}
	.st24{fill:url(#SVGID_24_);}
	.st25{display:none;fill:url(#SVGID_25_);}
	.st26{fill:url(#SVGID_26_);}
	.st27{fill:url(#SVGID_27_);}
	.st28{fill:url(#SVGID_28_);}
	.st29{fill:url(#XMLID_41_);}
	.st30{fill:url(#XMLID_42_);}
	.st31{fill:url(#XMLID_43_);}
	.st32{fill:url(#XMLID_44_);}
	.st33{fill:url(#XMLID_45_);}
	.st34{fill:url(#XMLID_46_);}
	.st35{fill:url(#XMLID_47_);}
	.st36{fill:url(#XMLID_48_);}
	.st37{fill:url(#XMLID_49_);}
	.st38{fill:url(#XMLID_50_);}
	.st39{fill:url(#XMLID_51_);}
	.st40{fill:url(#XMLID_52_);}
	.st41{fill:url(#XMLID_53_);}
	.st42{fill:url(#XMLID_54_);}
	.st43{fill:url(#SVGID_29_);}
	.st44{fill:#FFFFFF;}
	.st45{fill:#B51C3C;}
	.st46{fill:#999999;}
</style>
<g id="Capa_1">
</g>
<g id="Capa_2">
	<g>
		<circle class="st45" cx="121.78" cy="56.87" r="48.52"/>
		<path class="st44" d="M158.07,66.51l-17.95-29.24c-1.02-1.65-2.78-2.66-4.72-2.7c-1.94-0.03-3.74,0.91-4.82,2.53l-20.5,30.86
			c-0.32,0.48-1.04,0.47-1.34-0.02L92.7,41.8c-0.33-0.53,0.06-1.21,0.68-1.21l30.81,0c0.89,0,1.73-0.45,2.19-1.21
			c1.43-2.37-0.24-4.82-2.48-4.82l-32.46,0c-1.01,0-2.01,0.26-2.87,0.8c-2.93,1.84-3.56,5.43-1.96,8.04l17.95,29.24
			c1.02,1.65,2.78,2.66,4.72,2.7c0.03,0,0.07,0,0.1,0c1.9,0,3.66-0.94,4.71-2.53l20.49-30.86c0.32-0.48,1.04-0.47,1.34,0.02
			l16.04,26.13c0.33,0.53-0.06,1.21-0.68,1.21h-29.94c-0.89,0-1.73,0.45-2.19,1.21c-1.43,2.37,0.24,4.82,2.48,4.82l31.58,0
			c1.01,0,2.01-0.26,2.87-0.8C159.03,72.7,159.67,69.11,158.07,66.51z"/>
	</g>
	<g id="XMLID_639_">
		<polyline id="XMLID_651_" class="st46" points="15.56,125.52 24.99,125.52 42.07,160.44 59.3,125.52 68.68,125.52 68.68,165.7 
			63.3,165.7 63.3,128.98 45.12,165.7 38.94,165.7 20.98,128.98 20.98,165.7 15.56,165.7 		"/>
		<path id="XMLID_649_" class="st46" d="M79.44,176.3l5.49-10.76L70.02,137.7h6.28l11.66,22.68l11.39-22.68h5.85l-19.92,38.6H79.44z
			"/>
		<path id="XMLID_647_" class="st45" d="M123.76,165.7v-40.18h5.63v35.23h22.94v4.95H123.76z"/>
		<path id="XMLID_644_" class="st45" d="M158.62,125.52v5.81h-5.35v-5.81H158.62z M153.26,165.7v-28h5.35v28H153.26z"/>
		<path id="XMLID_642_" class="st45" d="M164.2,165.7v-18.95c0-1.19-0.02-2.54-0.12-4.08c-0.06-1.54-0.19-3.18-0.33-4.97h5.37
			l0.33,4.86c1.38-1.9,3.05-3.29,4.99-4.16c1.94-0.87,4.34-1.31,7.19-1.31c4.18,0,7.3,0.99,9.36,3c2.09,2.01,3.11,5.02,3.11,9.06
			v16.56h-5.34v-15.74c0-3.14-0.69-5.45-2.04-6.92c-1.36-1.47-3.49-2.2-6.37-2.2c-3.23,0-5.82,0.84-7.76,2.55
			c-1.94,1.71-2.92,3.99-2.92,6.87v15.44H164.2z"/>
		<polyline id="XMLID_641_" class="st45" points="228,165.7 220.28,165.7 204.03,150.19 204.03,165.7 198.67,165.7 198.67,125.52 
			204.03,125.52 204.03,148.98 218.53,137.7 225.6,137.7 210.16,149.68 228,165.7 		"/>
		<rect id="XMLID_640_" x="106.59" y="145.28" class="st46" width="12.3" height="5.43"/>
	</g>
</g>
</svg>
