<?xml version="1.0" encoding="utf-8"?>
<!-- Generator: Adobe Illustrator 23.0.6, SVG Export Plug-In . SVG Version: 6.00 Build 0)  -->
<svg version="1.1" id="Capa_1" xmlns="http://www.w3.org/2000/svg" xmlns:xlink="http://www.w3.org/1999/xlink" x="0px" y="0px"
	 viewBox="0 0 300 500" style="enable-background:new 0 0 300 500;" xml:space="preserve">
<style type="text/css">
	.st0{fill:#363636;}
	.st1{fill:#202020;}
	.st2{fill:#2D363A;}
	.st3{fill:#F1D19E;}
	.st4{fill:#FFFFFF;}
	.st5{fill:#F1D19E;stroke:#272425;stroke-width:0.1206;stroke-miterlimit:10;}
	.st6{fill:#F1F1F1;}
	.st7{fill:#272425;}
	.st8{fill:#1C1A1B;}
	.st9{fill:#1E2528;}
	.st10{fill:#B6B9C1;}
	.st11{fill:#FAF5EB;}
	.st12{fill:#48391D;}
	.st13{display:none;fill:#F1D19E;stroke:#272425;stroke-width:0.1206;stroke-miterlimit:10;}
	.st14{fill:#4C2208;}
	.st15{fill:#884D12;}
	.st16{fill:#583C1C;}
	.st17{fill:#7F6528;}
	.st18{fill:#F5E1C2;}
	.st19{fill:none;}
	.st20{fill:#360000;}
	.st21{fill:#F5E1C2;stroke:#B5966E;stroke-width:0.1184;stroke-miterlimit:10;}
	.st22{fill:#F5E1C2;stroke:#424140;stroke-width:0.1184;stroke-miterlimit:10;}
	.st23{fill:#E0CEAB;stroke:#B5966E;stroke-width:0.1206;stroke-miterlimit:10;}
	.st24{fill:#F5E1C2;stroke:#B5966E;stroke-width:0.1091;stroke-miterlimit:10;}
	.st25{fill:#C09D38;}
	.st26{fill:none;stroke:#7E5E40;stroke-linecap:round;stroke-linejoin:round;stroke-miterlimit:10;}
	.st27{fill:#DD902F;}
	.st28{fill:none;stroke:#815E18;stroke-linecap:round;stroke-miterlimit:10;}
	.st29{fill:#B62228;}
	.st30{fill:#997B55;}
	.st31{fill:#723324;}
	.st32{fill:#E6E6E6;}
	.st33{fill:#7E5E40;}
	.st34{fill:#815E18;}
	.st35{fill:#CACACA;}
	.st36{fill:#333333;}
	.st37{fill:#1A1A1A;}
	.st38{fill:#4D4D4D;}
	.st39{fill:#F0DDC0;}
	.st40{fill:#A2867E;}
	.st41{fill:#040006;}
	.st42{fill:#353745;}
	.st43{fill:#F7E3C4;stroke:#B7986E;stroke-width:0.1184;stroke-miterlimit:10;}
	.st44{display:none;fill:#F3D3A0;stroke:#272425;stroke-width:0.1206;stroke-miterlimit:10;}
	.st45{fill:#F3D3A0;}
	.st46{fill:#D5D6D6;}
	.st47{fill:#744C15;stroke:#272425;stroke-width:0.1206;stroke-miterlimit:10;}
	.st48{display:none;fill:#3E526A;}
	.st49{fill:#203847;}
	.st50{fill:#BC821F;}
	.st51{display:none;fill:#BC821F;}
	.st52{fill:#914310;}
	.st53{fill:#F7E3C4;stroke:#B7986E;stroke-width:0.1091;stroke-miterlimit:10;}
	.st54{fill:#7B0032;}
	.st55{fill:#7F5E40;}
	.st56{fill:#979797;}
	.st57{fill:#B0B0B0;stroke:#7F7F7F;stroke-width:0.25;stroke-miterlimit:10;}
	.st58{fill:none;stroke:#979797;stroke-miterlimit:10;}
	.st59{fill:#BCBA9A;stroke:#7F7F7F;stroke-width:0.25;stroke-miterlimit:10;}
	.st60{fill:#7F7F7F;}
	.st61{fill:#5888A7;stroke:#7F7F7F;stroke-width:0.25;stroke-miterlimit:10;}
	.st62{fill:#C8C8C8;stroke:#7F7F7F;stroke-width:0.25;stroke-miterlimit:10;}
	.st63{fill:#B0B0B0;}
	.st64{fill:#B67849;}
	.st65{fill:#7F5032;}
	.st66{fill:#4C3018;}
	.st67{fill:#C4C4C4;}
	.st68{fill:#A52B31;}
	.st69{fill:#1C2853;}
	.st70{fill:#F8F8F8;}
	.st71{fill:#81D646;}
	.st72{fill:#DEC69A;}
	.st73{fill:#DB391D;}
	.st74{fill:#8F673C;}
	.st75{opacity:0.35;}
	.st76{fill:#6FB353;}
	.st77{opacity:0.7;}
	.st78{fill:#DDC092;}
	.st79{fill:url(#);}
	.st80{fill:#754C24;}
	.st81{fill:#243B56;}
	.st82{fill:#CEAE7E;}
	.st83{fill:#EFDE96;}
	.st84{fill:#E0C9A7;stroke:#B9926A;stroke-width:0.1206;stroke-miterlimit:10;}
	.st85{fill:#F1DDBE;stroke:#B9926A;stroke-width:0.1184;stroke-miterlimit:10;}
	.st86{fill:#040006;stroke:#221D1F;stroke-width:0.1206;stroke-miterlimit:10;}
	.st87{fill:#1F1F1F;}
	.st88{fill:#7D1C7C;}
	.st89{fill:#393A3A;}
	.st90{fill:#414040;}
	.st91{fill:#F1DDBE;stroke:#B9926A;stroke-width:0.1091;stroke-miterlimit:10;}
	.st92{fill:#871830;}
	.st93{fill:#D68A2D;}
	.st94{fill:#845C3B;}
	.st95{fill:#F1DDBE;}
	.st96{fill:#F2DEBF;stroke:#B9926A;stroke-width:0.1184;stroke-miterlimit:10;}
	.st97{fill:#696A69;}
	.st98{fill:#8F8F8F;}
	.st99{fill:#7E7F7F;}
	.st100{fill:#BDBDBC;}
	.st101{fill:#F4EEAA;}
	.st102{fill:#585756;}
	.st103{fill:#757474;}
	.st104{fill:#9E9F9F;}
	.st105{opacity:0.43;fill:#9E9F9F;}
	.st106{fill:#7A7D80;}
	.st107{fill:#636569;}
	.st108{fill:none;stroke:#B9926A;stroke-width:0.1184;stroke-miterlimit:10;}
	.st109{fill:#EBCC99;}
	.st110{fill:#C9C9C9;}
	.st111{fill:#181718;}
	.st112{fill:#716557;}
	.st113{fill:#DDBE92;stroke:#221D1F;stroke-width:0.0958;stroke-miterlimit:10;}
	.st114{fill:#070208;}
	.st115{display:none;fill:#EBCC99;stroke:#221D1F;stroke-width:0.0958;stroke-miterlimit:10;}
	.st116{fill:#ECCCA9;}
	.st117{fill:#531B13;}
	.st118{fill:#924B1D;}
	.st119{fill:#5E3818;}
	.st120{fill:#3E3E3E;}
	.st121{fill:#A07A30;}
	.st122{fill:#DCE3E8;}
	.st123{fill:#C85A25;}
	.st124{fill:url(#SVGID_1_);}
	.st125{fill:#969696;}
	.st126{fill:#C35326;}
	.st127{fill:#B2CC92;}
	.st128{fill:#9A3A1D;}
	.st129{fill:#9BBD75;}
	.st130{fill:url(#SVGID_2_);}
	.st131{fill:url(#SVGID_3_);}
	.st132{fill:#DEBC74;}
	.st133{fill:#BFCF64;}
	.st134{clip-path:url(#SVGID_8_);}
	.st135{fill-rule:evenodd;clip-rule:evenodd;fill:#4D4D4D;}
	.st136{fill:#83632F;}
	.st137{fill-rule:evenodd;clip-rule:evenodd;fill:#B3B3B3;}
	.st138{fill-rule:evenodd;clip-rule:evenodd;fill:#666666;}
	.st139{fill-rule:evenodd;clip-rule:evenodd;fill:#333333;}
	.st140{fill-rule:evenodd;clip-rule:evenodd;fill:url(#SVGID_9_);}
	.st141{fill-rule:evenodd;clip-rule:evenodd;fill:#5B5A5C;}
	.st142{fill-rule:evenodd;clip-rule:evenodd;fill:url(#SVGID_10_);}
	.st143{fill-rule:evenodd;clip-rule:evenodd;fill:#474846;}
	.st144{opacity:0.5;fill-rule:evenodd;clip-rule:evenodd;fill:#F2F2F2;}
	.st145{fill:url(#SVGID_11_);}
	.st146{fill:url(#SVGID_12_);}
	.st147{fill:url(#SVGID_13_);}
	.st148{fill:url(#SVGID_14_);}
	.st149{fill:url(#SVGID_15_);}
	.st150{fill:url(#SVGID_16_);}
	.st151{fill:url(#SVGID_17_);}
	.st152{fill:url(#SVGID_18_);}
	.st153{fill:url(#SVGID_19_);}
	.st154{fill:url(#SVGID_20_);}
	.st155{opacity:0.5;fill-rule:evenodd;clip-rule:evenodd;fill:#4D4D4D;}
	.st156{opacity:0.2;fill-rule:evenodd;clip-rule:evenodd;fill:#887B9B;}
	.st157{opacity:0.3;fill-rule:evenodd;clip-rule:evenodd;fill:#887B9B;}
	.st158{opacity:0.2;fill-rule:evenodd;clip-rule:evenodd;fill:#333333;}
	.st159{fill-rule:evenodd;clip-rule:evenodd;fill:#808080;}
	.st160{fill:url(#SVGID_21_);}
	.st161{fill:url(#SVGID_22_);}
	.st162{fill:url(#SVGID_23_);}
	.st163{fill:url(#SVGID_24_);}
	.st164{fill:url(#SVGID_25_);}
	.st165{fill:url(#SVGID_26_);}
	.st166{fill:url(#SVGID_27_);}
	.st167{fill:url(#SVGID_28_);}
	.st168{fill:url(#SVGID_29_);}
	.st169{fill:url(#SVGID_30_);}
	.st170{opacity:0.2;fill-rule:evenodd;clip-rule:evenodd;fill:#4D4D4D;}
	.st171{fill-rule:evenodd;clip-rule:evenodd;fill:#E6E6E6;}
	.st172{fill-rule:evenodd;clip-rule:evenodd;fill:url(#SVGID_31_);}
	.st173{fill-rule:evenodd;clip-rule:evenodd;fill:#9E7537;}
	.st174{fill-rule:evenodd;clip-rule:evenodd;fill:#999999;}
	.st175{fill-rule:evenodd;clip-rule:evenodd;fill:url(#SVGID_32_);}
	.st176{fill:#9E7537;}
	.st177{fill:url(#SVGID_33_);}
	.st178{fill:#808080;}
	.st179{fill-rule:evenodd;clip-rule:evenodd;fill:none;}
	.st180{clip-path:url(#SVGID_8_);fill:#7A7A7A;}
	.st181{clip-path:url(#SVGID_8_);fill:#4D4D4D;}
	.st182{opacity:0.2;clip-path:url(#SVGID_8_);fill:#4D4D4D;}
	.st183{clip-path:url(#SVGID_8_);fill-rule:evenodd;clip-rule:evenodd;fill:#B3B3B3;}
	.st184{clip-path:url(#SVGID_8_);fill-rule:evenodd;clip-rule:evenodd;fill:#4D4D4D;}
	
		.st185{clip-path:url(#SVGID_8_);fill-rule:evenodd;clip-rule:evenodd;fill:none;stroke:url(#SVGID_34_);stroke-width:0.75;stroke-miterlimit:10;}
	
		.st186{clip-path:url(#SVGID_8_);fill-rule:evenodd;clip-rule:evenodd;fill:none;stroke:url(#SVGID_35_);stroke-width:0.5;stroke-miterlimit:10;}
	
		.st187{clip-path:url(#SVGID_8_);fill-rule:evenodd;clip-rule:evenodd;fill:none;stroke:url(#SVGID_36_);stroke-width:0.75;stroke-miterlimit:10;}
	.st188{clip-path:url(#SVGID_8_);fill:#83632F;}
	
		.st189{clip-path:url(#SVGID_8_);fill-rule:evenodd;clip-rule:evenodd;fill:none;stroke:url(#SVGID_37_);stroke-width:0.75;stroke-miterlimit:10;}
	
		.st190{clip-path:url(#SVGID_8_);fill-rule:evenodd;clip-rule:evenodd;fill:none;stroke:url(#SVGID_38_);stroke-width:0.5;stroke-miterlimit:10;}
	.st191{fill:#E8C78F;}
	.st192{fill:#A38F69;}
	.st193{fill:#C3C09A;}
	.st194{fill:#EFDEC5;}
	.st195{fill:#827455;}
	.st196{fill:#C9D5D7;}
	.st197{fill:#BAD9DA;}
	.st198{fill:#DEEADE;}
	.st199{fill:#CCAF80;}
	.st200{fill:#B49D73;}
	.st201{fill:#8F7E5C;}
	.st202{fill:#B09970;}
	.st203{fill:#747373;}
	.st204{fill:#C0C0C0;}
	.st205{fill:#8C8C8B;}
	.st206{fill:#6B6B6A;}
	.st207{fill:#B1251E;}
	.st208{fill:#6AA745;}
	.st209{fill:#B1BDBF;}
	.st210{fill:none;stroke:#FFFFFF;stroke-width:6;stroke-miterlimit:10;}
	.st211{fill:#80623E;}
	.st212{fill:#B56923;}
	.st213{fill:#A25923;}
	.st214{fill:#D47A45;}
	.st215{fill:#9A5621;}
	.st216{fill:#DA8C4A;}
	.st217{fill:#C0A67A;}
	.st218{fill:#988562;}
	.st219{fill:#7D6E51;}
	.st220{fill:#487134;}
	.st221{fill:#CECECE;}
	.st222{fill:#EFDCB1;}
	.st223{fill:#C8304E;}
</style>
<path id="XMLID_165_" class="st83" d="M182.57,87.9c0,3.53,6.05,70.27-3.84,79.23c-16.88,15.3-46.35,11.42-64.14-3.23
	c-9.69-7.98-7.31-69.95-7.31-73.48c0,0,2.32-15.14,3.44-19.54c1.16-4.53,7.35-10.43,11.92-14.56c9.28-8.41,36.42-8.34,45.03,0.19
	c4.47,4.44,9.53,10.78,11.06,15.44C180.36,76.92,182.57,87.9,182.57,87.9z"/>
<polygon id="XMLID_164_" class="st84" points="161.98,149.45 131.36,149.45 137.37,128.11 155.97,128.11 "/>
<g id="XMLID_160_">
	<path id="XMLID_161_" class="st85" d="M179.71,193.92l-5.12,38.48h-55.84l-5.12-38.48l-2.86-21.38c0-17.33,7.35-24.38,21.71-24.38
		h28.4c14.35,0,21.71,7.05,21.71,24.38L179.71,193.92z"/>
</g>
<path id="XMLID_158_" class="st86" d="M174.59,232.4h-55.84c0,0-5.69,13.73-9.33,30.54c-3.64,16.82,21.82,67.64,10.46,176.58h17.54
	l9.26-128.24l0.6-30.39l0.6,30.39l10.5,128.24h17.54c-8.07-109.37,11.94-158.21,7.96-176.58C179.9,244.57,174.59,232.4,174.59,232.4
	z"/>
<g id="XMLID_155_">
	<polygon id="XMLID_157_" class="st87" points="138.59,443.29 87.1,443.29 87.1,441.36 118.15,429.88 122.98,431.06 130.52,432.9 
		138.59,434.86 	"/>
	<polygon id="XMLID_156_" class="st87" points="157.19,443.29 207.43,443.29 207.43,441.36 176.39,429.88 157.19,434.86 	"/>
</g>
<g id="XMLID_147_">
	<g id="corbata_21_">
		<polygon id="XMLID_153_" class="st88" points="161.68,261.5 131.66,261.5 131.66,146.47 146.29,172.23 161.68,146.47 		"/>
	</g>
	<g id="XMLID_148_">
		<path id="XMLID_152_" class="st89" d="M131.66,146.76c-1.76,0-3.43,0.21-5.02,0.58l-4.08,10.47l4.14,4.65l-6.47,11.92l16.94,46.6
			l0-0.9L131.66,146.76z"/>
		<path id="XMLID_151_" class="st90" d="M126.7,162.46l-4.14-4.65l4.08-10.47c-9.91,2.31-19.6,12.67-19.6,25.41l2.02,23.82
			c0,1.22,5.41,25.47,5.6,26.85l-8.22,55.65l31.43,8.47l-0.71-66.55l-16.94-46.6L126.7,162.46z"/>
		<path id="XMLID_150_" class="st89" d="M166.64,162.46l4.14-4.65l-4.07-10.47c-1.59-0.37-3.26-0.58-5.02-0.58l-5.46,73.32l0,0.79
			l16.89-46.49L166.64,162.46z"/>
		<path id="XMLID_149_" class="st90" d="M182.97,171.61c0-12.74-6.36-21.96-16.27-24.27l4.07,10.47l-4.14,4.65l6.47,11.92
			l-16.89,46.49l0.33,66.66l31.54-5.18l-9.41-58.94c0.18-1.39,2.84-27.63,2.84-28.85L182.97,171.61z"/>
	</g>
</g>
<g id="XMLID_144_">
	<path id="XMLID_146_" class="st91" d="M120.4,111.84c-3.62,0.49-5.63-11.08-5.63-11.08c-0.4-2.96-0.36-5.84,3.27-6.33l0,0
		L120.4,111.84z"/>
	<path id="XMLID_145_" class="st91" d="M173.12,111.88c3.63,0.44,5.48-11.16,5.48-11.16c0.36-2.96,0.28-5.84-3.35-6.28l0,0
		L173.12,111.88z"/>
</g>
<path id="XMLID_142_" class="st85" d="M174.77,103.78c0,10.65-17.02,33.8-27.29,33.8h-1.62c-10.27,0-27.29-23.14-27.29-33.8
	l0.06-15.66c6.41-2.32,11.25-3.51,20.18-7.33c4.99-2.13,14.45-6.8,23.17-6.1c8.72,0.69,12.71,18.44,12.71,18.44L174.77,103.78z"/>
<g id="XMLID_134_">
	<g id="XMLID_139_">
		<path id="XMLID_140_" class="st92" d="M137.81,117.7c1.08,3.59,4.63,8.72,8.86,8.72c4.23,0,7.78-5.13,8.86-8.72
			c-2.08,1.5-5.27,1.22-8.86,1.22C143.08,118.92,139.89,119.2,137.81,117.7z"/>
	</g>
	<path id="XMLID_138_" class="st93" d="M150.63,113.2c0-1.31-1.77-2.37-3.96-2.37c-2.19,0-3.96,1.06-3.96,2.37"/>
	<g id="XMLID_135_">
		<g id="XMLID_137_">
			<path class="st94" d="M138.12,97.05c-0.2,0-0.4-0.12-0.48-0.32c-0.85-1.98-1.82-2.61-3.98-2.61c-2.14,0-3.07,0.61-3.98,2.62
				c-0.12,0.26-0.43,0.38-0.7,0.26c-0.26-0.12-0.38-0.43-0.26-0.7c1.09-2.39,2.38-3.24,4.94-3.24c2.58,0,3.93,0.88,4.95,3.24
				c0.12,0.27-0.01,0.58-0.27,0.69C138.26,97.04,138.19,97.05,138.12,97.05z"/>
		</g>
		<g id="XMLID_136_">
			<path class="st94" d="M155.22,97.05c-0.07,0-0.14-0.01-0.2-0.04c-0.27-0.11-0.39-0.42-0.28-0.69c0.99-2.37,2.34-3.25,4.95-3.25
				c2.56,0,3.85,0.85,4.94,3.24c0.12,0.26,0,0.58-0.26,0.7c-0.27,0.12-0.58,0-0.7-0.26c-0.92-2.01-1.85-2.62-3.98-2.62
				c-2.18,0-3.15,0.63-3.98,2.6C155.62,96.93,155.43,97.05,155.22,97.05z"/>
		</g>
	</g>
</g>
<path class="st83" d="M124.44,81.99c-2.92,4.81-5.78,9.71-8.07,14.98c-3.15,7.25-5.18,15.11-7.2,22.91
	c-0.92,3.57-1.85,7.2-1.85,10.95c-1.94-10.8-3.12-21.78-3.51-32.79c-0.09-2.45-0.14-4.92,0.05-7.36c0.55-7.23,3.15-14.09,6.88-19.81
	c3.73-5.72,8.55-10.34,13.74-14.14c2.99-2.19,6.15-4.13,9.54-5.26c1.84-0.61,3.73-0.98,5.63-1.33c0.71-0.13,1.44-0.25,2.15-0.05
	c1.34,0.38,2.29,1.91,2.62,3.49c0.69,3.31-0.05,4.59-2.23,6.25c-2.41,1.84-4.63,3.99-6.69,6.34
	C131.32,70.94,127.81,76.44,124.44,81.99z"/>
<path class="st90" d="M94.49,209.67c0.07,1.73,0.21,3.5,0.92,5.03c1.61,3.49,5.54,4.57,9.01,4.85c3.88,0.31,11.03-3.71,13.15-7.39
	c1.81-3.14-1.49-3.86-2.28-7.5c-1.63-7.48-3.52-15.04-3.18-22.73c0.27-6.17,1.99-12.18,4.39-17.72c1.94-4.48,1.59-10.66-3.94-6.86
	c-4.27,2.93-7.83,10.37-10.19,15.16C96.83,183.77,93.98,196.77,94.49,209.67z"/>
<path class="st90" d="M97.33,185.74c-2.39,5.14-6.61,15.69-7.46,21.3c-0.43,2.87,0.86,7.14,3.19,8.86c1.95,1.43,6.6,2.37,8.84,3.3"
	/>
<path class="st95" d="M179.42,164.1c1.22,10.12,0.62,16.42,0,26.59c-0.09,1.47-2.53,6.15-1.79,7.42c1.02,1.77,3.3,2.4,5.35,2.32
	c2.04-0.08,4.04-0.69,6.09-0.7c3.85-15.72,3.73-32.11,3.58-48.3c-0.01-1.58-0.31-3.56-1.82-4.02c-1.11-0.34-2.24,0.39-3.18,1.08
	c-4.37,3.21-9.85,6.29-13.36,10.3C174.44,159,179.93,164.1,179.42,164.1z"/>
<path class="st85" d="M167.04,154.7c-0.91,0.57-7.07,1.89-7.67,2.73c-0.61,0.84-1.63,2.52-1.01,3.36c1.46,0.91,3.45,0.67,5.09,0.08
	c1.65-0.59,3.17-1.49,4.9-1.82c2.71-0.53,5.47,0.39,8.16,1.03c2.68,0.63,4.65,1.18,7.61,0.65c1.99,0.07,2.74-0.38,3.91-0.8
	c1.17-0.43,2.08-1.31,2.75-2.28c2.43-3.53,1.94-8.34-0.55-11.84c-2.92-4.11-11.94-9.99-16.89-5.49c-2.54,2.3-1.68,5.61-2.87,8.31
	C168.95,152.04,170.31,152.66,167.04,154.7z"/>
<path class="st96" d="M177.08,138.31c-0.7-2.18-1.41-4.36-2.12-6.54c-0.54-1.65-1.37-3.58-3.28-3.59c-0.91-0.01-1.76,0.5-2.31,1.23
	c-0.66,0.87-1.17,1.67-1.49,2.64c-0.08,0.25,0.03,0.54,0.27,0.65c1.34,0.6,3.13,0.58,4.17-0.39c0.04,1.25,0.09,2.51,0.13,3.76
	c0.03,0.96,0.09,1.99,0.69,2.73c0.93,1.16,3.06,0.96,3.75-0.36"/>
<g>
	<path class="st97" d="M138.92,155.32h34.41c1.72,0,3.11-1.39,3.11-3.11v-15.93c0-1.72-1.39-3.11-3.11-3.11h-34.41
		c-1.72,0-3.11,1.39-3.11,3.11v15.93C135.81,153.93,137.21,155.32,138.92,155.32z"/>
	<path class="st98" d="M139.48,156.88h33.3c1.65,0,2.99-1.34,2.99-2.99v-14.81c0-1.65-1.34-2.99-2.99-2.99h-33.3
		c-1.65,0-2.99,1.34-2.99,2.99v14.81C136.49,155.54,137.83,156.88,139.48,156.88z"/>
	<path class="st99" d="M147.33,135.82h17.61v-5.25c0-1.17-0.95-2.12-2.12-2.12h-13.37c-1.17,0-2.12,0.95-2.12,2.12V135.82z"/>
	<path class="st100" d="M147.88,137.92h16.49c0.31,0,0.56-0.25,0.56-0.56l0-5.25c0-0.86-0.7-1.56-1.56-1.56h-14.48
		c-0.86,0-1.56,0.7-1.56,1.56v5.25C147.33,137.67,147.57,137.92,147.88,137.92z"/>
	<path class="st101" d="M151.78,133.86h7.35c0.21,0,0.39-0.17,0.39-0.39v-1.93c0-0.21-0.17-0.39-0.39-0.39h-7.35
		c-0.21,0-0.39,0.17-0.39,0.39v1.93C151.39,133.69,151.56,133.86,151.78,133.86z"/>
	
		<ellipse transform="matrix(0.9649 -0.2627 0.2627 0.9649 -33.0651 46.1761)" class="st102" cx="156.13" cy="146.72" rx="11.51" ry="11.51"/>
	<circle class="st103" cx="156.13" cy="147.94" r="10.3"/>
	<path class="st100" d="M148.25,147.94c0,4.35,3.53,7.88,7.88,7.88c4.35,0,7.88-3.53,7.88-7.88c0-4.35-3.53-7.88-7.88-7.88
		C151.78,140.06,148.25,143.59,148.25,147.94z"/>
	<path class="st104" d="M162.65,147.94c0-4.12-3.17-7.5-7.2-7.84c0.22-0.02,0.45-0.03,0.68-0.03c4.35,0,7.88,3.53,7.88,7.88
		c0,4.35-3.53,7.88-7.88,7.88c-0.23,0-0.45-0.01-0.68-0.03C159.48,155.43,162.65,152.06,162.65,147.94z"/>
	<circle class="st105" cx="156.13" cy="148.08" r="2.03"/>
	<path class="st106" d="M135.14,156.88h5.79c1.29,0,2.34-1.05,2.34-2.34v-18.35c0-1.29-1.05-2.34-2.34-2.34h-5.79V156.88z"/>
	<path class="st107" d="M132.43,156.88h5.79c1.29,0,2.34-1.05,2.34-2.34v-18.35c0-1.29-1.05-2.34-2.34-2.34h-5.79V156.88z"/>
</g>
<path class="st85" d="M172.02,151.09c-0.02,0.78-0.01,1.64,0.46,2.22c0.57,0.7,1.63,0.66,2.34,0.14c0.71-0.52,1.15-1.38,1.52-2.24
	c1.33-3.1,2.07-6.51,2.16-9.94c0.07-3.06-3.93-1.71-4.83-0.05C172.11,144.06,172.09,147.89,172.02,151.09z"/>
<path class="st108" d="M176.48,151.84c-0.65,2.15-0.68,4.56,0.42,6.54c0.41,0.74,1.3,1.47,2.06,1.07c0.32-0.17,0.51-0.5,0.65-0.83
	c0.65-1.48,0.72-3.13,1.08-4.7c0.57-2.47,1.85-4.73,3.19-6.89c0.92-1.49,4.28-4.04,1.58-5.41
	C181.61,139.68,177.23,149.39,176.48,151.84z"/>
<path class="st108" d="M187.93,143.03c-1.47,1.73-2.94,3.46-4.4,5.19c-0.58,0.68-1.16,1.37-1.58,2.16
	c-0.42,0.79-0.65,1.66-0.83,2.53c-0.26,1.27-0.42,2.56-0.46,3.86c-0.01,0.34,0,0.73,0.26,0.96c0.54,0.49,1.38-0.13,1.78-0.73
	c0.9-1.35,1.57-2.83,2.48-4.18c0.9-1.35,2.09-2.6,3.65-3.18"/>
<path class="st85" d="M151.53,172.45c1.42-0.47,2.93-0.67,4.31-1.24c3.36-1.39,5.44-4.71,7.3-7.84c0.65-1.09,1.51-3.05,0.76-3.7
	c-0.26-0.22,0.02-1.08,0.24-1.35c0.6-0.74,0.3-1.16,0.61-2.13c0.19-0.61-0.51-1.12-1-0.71c-3.56,2.94-9.7,3.65-14.9,0.91
	c-0.32-0.17-0.42-0.58-0.24-0.89c1.28-2.31,1.87-5.01,1.57-7.61c-0.07-0.61-0.9-0.76-1.19-0.23c-5.24,9.49-10.47,20.84-18.15,28.97
	c-0.49,0.52-0.9,1.1-1.21,1.73c-0.84,1.71-0.65,3.72,0.15,5.45c0.2,0.44,0.39,0.88,0.58,1.32c1.59,3.91,8.55,0.39,10.85-3.15
	C144.61,176.71,145.84,174.32,151.53,172.45z"/>
<path class="st90" d="M195.18,169.1c0.1,13.38,1.47,27.9-1.38,41.57c-0.4,1.94-1.88,3.46-3.05,5.23c-1.18,1.77-4.72,2.59-7.16,2.35
	c-3.61-0.36-4.94-3.8-5.45-6.65c-1.3-7.19-2.12-14.45-2.45-21.75c-0.23-5.15-0.52-8.98,5.44-11.66
	C183.83,176.98,195.17,169.23,195.18,169.1z"/>
<polygon class="st95" points="130.81,176.63 116.34,190.86 121.4,209.29 141.5,181.54 "/>
<path class="st90" d="M103.7,202.11c-0.61,1.43-0.74,2.95-0.86,4.45c-0.19,2.28-0.33,4.74,1.3,6.66c1.5,1.77,4.35,2.74,7.11,2.68
	c2.76-0.06,5.4-1.04,7.45-2.45c1.72-1.19,3.11-2.75,3.4-4.5c0.23-1.42-0.26-2.86-0.8-4.23c-0.94-2.41-4.07-12.99-7.94-12.76
	C110.2,192.13,104.52,200.16,103.7,202.11z"/>
<path class="st83" d="M108.92,142.73c3.28,10.28,2.2,21.38,1.09,32.12c2.32-6.1,3.88-12.49,4.65-18.98
	c0.05,6.03-0.37,12.05-1.26,18.01c2.61-6,4.18-12.45,4.64-18.98c-0.03,2.89-0.06,5.78-0.1,8.66c-0.01,0.8,0.09,1.77,0.82,2.1
	c0.98-7.91,1.75-15.85,2.31-23.8"/>
</svg>
