<?xml version="1.0" encoding="utf-8"?>
<!-- Generator: Adobe Illustrator 23.0.6, SVG Export Plug-In . SVG Version: 6.00 Build 0)  -->
<svg version="1.1" id="Capa_1" xmlns="http://www.w3.org/2000/svg" xmlns:xlink="http://www.w3.org/1999/xlink" x="0px" y="0px"
	 viewBox="0 0 300 500" style="enable-background:new 0 0 300 500;" xml:space="preserve">
<style type="text/css">
	.st0{fill:#363636;}
	.st1{fill:#202020;}
	.st2{fill:#2D363A;}
	.st3{fill:#F1D19E;}
	.st4{fill:#FFFFFF;}
	.st5{fill:#F1D19E;stroke:#272425;stroke-width:0.1206;stroke-miterlimit:10;}
	.st6{fill:#F1F1F1;}
	.st7{fill:#272425;}
	.st8{fill:#1C1A1B;}
	.st9{fill:#1E2528;}
	.st10{fill:#B6B9C1;}
	.st11{fill:#FAF5EB;}
	.st12{fill:#48391D;}
	.st13{display:none;fill:#F1D19E;stroke:#272425;stroke-width:0.1206;stroke-miterlimit:10;}
	.st14{fill:#4C2208;}
	.st15{fill:#884D12;}
	.st16{fill:#583C1C;}
	.st17{fill:#7F6528;}
	.st18{fill:#F5E1C2;}
	.st19{fill:none;}
	.st20{fill:#360000;}
	.st21{fill:#F5E1C2;stroke:#B5966E;stroke-width:0.1184;stroke-miterlimit:10;}
	.st22{fill:#F5E1C2;stroke:#424140;stroke-width:0.1184;stroke-miterlimit:10;}
	.st23{fill:#E0CEAB;stroke:#B5966E;stroke-width:0.1206;stroke-miterlimit:10;}
	.st24{fill:#F5E1C2;stroke:#B5966E;stroke-width:0.1091;stroke-miterlimit:10;}
	.st25{fill:#C09D38;}
	.st26{fill:none;stroke:#7E5E40;stroke-linecap:round;stroke-linejoin:round;stroke-miterlimit:10;}
	.st27{fill:#DD902F;}
	.st28{fill:none;stroke:#815E18;stroke-linecap:round;stroke-miterlimit:10;}
	.st29{fill:#B62228;}
	.st30{fill:#997B55;}
	.st31{fill:#723324;}
	.st32{fill:#E6E6E6;}
	.st33{fill:#7E5E40;}
	.st34{fill:#815E18;}
	.st35{fill:#CACACA;}
	.st36{fill:#333333;}
	.st37{fill:#1A1A1A;}
	.st38{fill:#4D4D4D;}
	.st39{fill:#F0DDC0;}
	.st40{fill:#A2867E;}
	.st41{fill:#040006;}
	.st42{fill:#353745;}
	.st43{fill:#F7E3C4;stroke:#B7986E;stroke-width:0.1184;stroke-miterlimit:10;}
	.st44{display:none;fill:#F3D3A0;stroke:#272425;stroke-width:0.1206;stroke-miterlimit:10;}
	.st45{fill:#F3D3A0;}
	.st46{fill:#D5D6D6;}
	.st47{fill:#744C15;stroke:#272425;stroke-width:0.1206;stroke-miterlimit:10;}
	.st48{display:none;fill:#3E526A;}
	.st49{fill:#203847;}
	.st50{fill:#BC821F;}
	.st51{display:none;fill:#BC821F;}
	.st52{fill:#914310;}
	.st53{fill:#F7E3C4;stroke:#B7986E;stroke-width:0.1091;stroke-miterlimit:10;}
	.st54{fill:#7B0032;}
	.st55{fill:#7F5E40;}
	.st56{fill:#979797;}
	.st57{fill:#B0B0B0;stroke:#7F7F7F;stroke-width:0.25;stroke-miterlimit:10;}
	.st58{fill:none;stroke:#979797;stroke-miterlimit:10;}
	.st59{fill:#BCBA9A;stroke:#7F7F7F;stroke-width:0.25;stroke-miterlimit:10;}
	.st60{fill:#7F7F7F;}
	.st61{fill:#5888A7;stroke:#7F7F7F;stroke-width:0.25;stroke-miterlimit:10;}
	.st62{fill:#C8C8C8;stroke:#7F7F7F;stroke-width:0.25;stroke-miterlimit:10;}
	.st63{fill:#B0B0B0;}
	.st64{fill:#B67849;}
	.st65{fill:#7F5032;}
	.st66{fill:#4C3018;}
	.st67{fill:#C4C4C4;}
	.st68{fill:#A52B31;}
	.st69{fill:#1C2853;}
	.st70{fill:#F8F8F8;}
	.st71{fill:#81D646;}
	.st72{fill:#DEC69A;}
	.st73{fill:#DB391D;}
	.st74{fill:#8F673C;}
	.st75{opacity:0.35;}
	.st76{fill:#6FB353;}
	.st77{opacity:0.7;}
	.st78{fill:#DDC092;}
	.st79{fill:url(#);}
	.st80{fill:#754C24;}
	.st81{fill:#243B56;}
	.st82{fill:#CEAE7E;}
</style>
<g>
	<g>
	</g>
</g>
<g>
	<path class="st31" d="M185.76,105.22c0,3.33,0.16,41.87,0.16,51.92l-33.88,4.94l-32.37-6.63c-1.52-22.94-2.33-36.9-2.33-40.23
		c0,0,1.94-25.82,3.08-31.52c2.31-11.53,14.61-25.37,32.29-25.37c13.92,0,25.37,12.3,28.44,18.45
		C183.92,82.32,185.76,105.22,185.76,105.22z"/>
	<g>
		<polygon class="st23" points="166.78,149.55 137.89,149.55 143.56,129.42 161.11,129.42 		"/>
		<path class="st13" d="M179.84,108.81c0,10.05-16.65,29.54-26.71,29.54h-1.59c-10.05,0-26.71-19.49-26.71-29.54l-1.13-17.12
			c0-10.05,12.12-23.87,22.17-23.87h12.93c10.05,0,22.17,13.82,22.17,23.87L179.84,108.81z"/>
	</g>
	<g>
		<path class="st24" d="M127.55,113.97c-3.42,0.46-5.31-10.46-5.31-10.46c-0.38-2.79-0.34-5.51,3.08-5.97l0,0L127.55,113.97z"/>
		<path class="st24" d="M177.3,114.01c3.43,0.42,5.17-10.53,5.17-10.53c0.34-2.8,0.27-5.51-3.16-5.93l0,0L177.3,114.01z"/>
	</g>
	<path class="st18" d="M114.08,191.32l-6.98,9.84c-5.17,5.76-14.67,3.44-16.61-4.06l-10.44-40.35l9.46-5.81l10.39,27.4l2.46-3.64"/>
	<polyline class="st18" points="205.42,185.14 230.55,254.71 219,259.5 190.8,191.32 	"/>
	<path class="st32" d="M190.8,191.32l-3.49-8.45l-7.79-1.49c-1.75-3.88-4.57-6.48-6.13-6.48h-42.76c-1.26,0-1.92,0-6.46,7.28
		l-6.81,4.53l-3.27,4.6l-11.72-16.61l2.82-4.17l0.55-0.89c5.58-9.03,8.7-20.27,24.9-20.27l22.18,6.15l20.57-6.15
		c14.67,0,22.32,11.27,26.99,21.82l0.13,0.31l4.92,13.63"/>
	<g>
		<path class="st23" d="M185.85,190.72l-5.25,32.89h-57.2l-5.25-32.89l-2.93-19.99c0-15.31,7.53-21.54,22.24-21.54h29.1
			c14.7,0,22.24,6.22,22.24,21.54L185.85,190.72z"/>
	</g>
	<path class="st18" d="M216.05,269.2c2.44-2.01,2.42-3.97,2.42-3.98c-0.01-0.16-0.01-0.31,0-0.47l0.52-5.25
		c0.09-0.93,0.69-1.74,1.55-2.1c0.86-0.36,1.64-0.94,2.37-0.35c0.01,0.01,1.08-0.28,0.72-0.08c2.75-1.53,6.66-3.18,6.51-3.22
		c-0.22-0.07,5.73,11.94,5.81,14.17c0.23,6.32,1.24,12.46,1.84,15.66c0.64,0.94,1.39,1.89,2.3,2.84c0.97,1.02,0.94,2.63-0.08,3.61
		c-0.49,0.47-1.13,0.71-1.77,0.71c-0.67,0-1.34-0.26-1.84-0.79c-1.79-1.87-3.11-3.76-4.11-5.6c-0.33,0.61-0.71,1.22-1.15,1.81
		c-0.38,0.49-0.95,0.75-1.53,0.76c-0.4,0-0.81-0.13-1.16-0.39c-0.84-0.64-1-1.84-0.37-2.68c1.13-1.48,1.74-3.18,2.08-4.78
		c-0.55-1.95-0.86-3.77-1.13-5.38c-0.11-0.64-0.21-1.25-0.32-1.83c-0.32-1.65-2.64-4.4-5.15-6.85l-0.01,0.09
		c0.01,1.12-0.28,4.76-4.28,8.05c-1.09,0.9-2.7,0.74-3.59-0.35C214.81,271.71,214.96,270.1,216.05,269.2z"/>
	<path class="st18" d="M91.59,135.81c-1.04-0.95-2.66-0.87-3.61,0.18c-3.48,3.84-3.77,3.4-3.6,4.51h-1.28
		c-2.84-2.07-3.73-0.29-4.28-1.87c-0.2-0.56-0.39-1.15-0.58-1.76c-0.33-1.01-0.69-2.12-1.13-3.27c-0.07,0.08-0.12,0.17-0.19,0.24
		c-0.39,0.43-0.78,0.87-1.17,1.31c-0.04,0.04-0.07,0.09-0.11,0.13c-0.5,0.54-0.97,1.1-1.45,1.65c-0.44,0.62-0.88,1.23-1.32,1.84
		c-0.04,0.06-0.08,0.11-0.12,0.17c-0.04,0.05-0.07,0.1-0.1,0.15c-0.14,0.18-0.28,0.36-0.42,0.53c-0.03,0.04-0.06,0.08-0.09,0.12
		c0.03-0.03,0.05-0.07,0.08-0.11c-0.21,0.24-0.43,0.47-0.66,0.68c0.24,1.07,0.47,2.15,0.67,3.25c0.4,2.2,8.03,13.22,7.8,13.18
		c-0.16-0.03,4.11-1.34,6.61-3.26c0.01,0.01,0.76-0.65,0.77-0.65c0.81,0.48,0.79-0.61,1.6-1.1c0.8-0.48,1.28-1.37,1.23-2.3
		l-0.24-5.27c-0.01-0.16-0.03-0.31-0.06-0.47c0-0.01-0.3-1.95,1.82-4.29C92.71,138.37,92.63,136.76,91.59,135.81z"/>
	<g>
		<g>
			<path class="st13" d="M179.84,108.71c0,10.05-16.66,29.54-26.71,29.54h-1.59c-10.05,0-26.71-19.49-26.71-29.54L123.7,91.6
				c0-10.05,12.12-23.87,22.17-23.87h12.93c10.05,0,22.17,13.82,22.17,23.87L179.84,108.71z"/>
			<path class="st21" d="M178.86,106.36c0,16.27-16.06,31.89-25.75,31.89h-1.53c-9.69,0-26.38-17.58-25.75-31.89l0.08-14.77
				c1.18-5.45,6.55-8.32,11.31-11.96c8.21-6.28,19.55-6.98,28.26-1.43c4.83,3.08,8.85,5.23,11.69,10.29
				c1.08,1.93,1.62,4.11,1.63,6.32L178.86,106.36z"/>
		</g>
		<g>
			<g>
				<path class="st33" d="M144.44,101.28c-0.23,0-0.44-0.13-0.54-0.35c-0.8-1.84-1.66-2.41-3.67-2.41c-2,0-2.82,0.54-3.68,2.42
					c-0.13,0.3-0.48,0.43-0.78,0.29c-0.3-0.13-0.43-0.48-0.29-0.78c1.04-2.29,2.29-3.11,4.75-3.11c2.48,0,3.77,0.84,4.75,3.12
					c0.13,0.3-0.01,0.64-0.31,0.77C144.6,101.26,144.52,101.28,144.44,101.28z"/>
			</g>
			<g>
				<path class="st33" d="M160.58,101.28c-0.08,0-0.15-0.01-0.23-0.05c-0.3-0.13-0.44-0.47-0.31-0.77c0.96-2.28,2.25-3.12,4.75-3.12
					c2.46,0,3.7,0.81,4.75,3.11c0.13,0.3,0,0.64-0.29,0.78c-0.29,0.14-0.64,0-0.78-0.29c-0.86-1.88-1.68-2.42-3.68-2.42
					c-2.01,0-2.91,0.58-3.67,2.4C161.03,101.14,160.81,101.28,160.58,101.28z"/>
			</g>
		</g>
		<path class="st27" d="M156.08,115.54c0-1.23-1.67-2.23-3.74-2.23c-2.07,0-3.74,1-3.74,2.23"/>
		<g>
			<path class="st34" d="M132.53,97.64c-0.07,0-0.14-0.01-0.21-0.04c-0.3-0.12-0.45-0.46-0.34-0.76c1.61-4.2,7.42-3.54,7.67-3.51
				c0.32,0.04,0.55,0.33,0.51,0.65c-0.04,0.32-0.32,0.55-0.65,0.51c-0.05,0-5.15-0.58-6.43,2.76
				C132.99,97.5,132.77,97.64,132.53,97.64z"/>
		</g>
		<g>
			<path class="st34" d="M171.32,97.64c-0.24,0-0.46-0.14-0.55-0.38c-1.29-3.35-6.38-2.76-6.43-2.76c-0.33,0.04-0.62-0.19-0.66-0.51
				c-0.04-0.32,0.19-0.62,0.51-0.66c0.25-0.03,6.06-0.7,7.67,3.51c0.12,0.3-0.04,0.64-0.34,0.76
				C171.46,97.63,171.39,97.64,171.32,97.64z"/>
		</g>
	</g>
	<g>
		<g>
			<path class="st29" d="M145.06,120.87c0.89,3.55,3.81,8.12,7.29,8.12s6.41-4.57,7.29-8.12c-1.06,0.92-3.47-0.57-5.09-0.52
				c-1,0.03-2.2,1.72-2.2,1.72s-1.1-1.7-2.02-1.72C148.6,120.32,146.17,121.83,145.06,120.87z"/>
		</g>
		<g>
			<path class="st7" d="M145.88,121.86c0.79,1.06,3.38,4.1,6.48,4.1c3.09,0,5.69-3.04,6.48-4.1c-1.52,0.44-3.86,1.2-6.48,1.2
				S147.39,122.3,145.88,121.86z"/>
		</g>
		<g>
			<path class="st4" d="M146.53,122.03c0.71,0.94,3.04,3.03,5.83,3.03c2.78,0,5.12-2.09,5.83-3.03c-1.37,0.39-3.47,1.07-5.83,1.07
				C149.99,123.1,147.89,122.42,146.53,122.03z"/>
		</g>
	</g>
	<path class="st35" d="M125.53,112.02c0.42,1.52,0.55,3.04,0.47,4.56c-0.08,0.76-0.24,1.52-0.28,2.28
		c-0.04,0.76,0.04,1.52,0.15,2.28c0.25,1.52,0.32,3.04,0.34,4.56c-0.04,1.52-0.17,3.04-0.53,4.57l-0.12,0
		c-0.38-1.52-0.54-3.04-0.6-4.56c0-1.52,0.05-3.04,0.27-4.56c0.1-0.76,0.16-1.52,0.11-2.28c-0.05-0.76-0.23-1.52-0.32-2.28
		c-0.1-1.52,0-3.04,0.39-4.57L125.53,112.02z"/>
	<path class="st35" d="M178.43,112.02c0.42,1.52,0.55,3.04,0.47,4.56c-0.08,0.76-0.24,1.52-0.28,2.28
		c-0.04,0.76,0.04,1.52,0.15,2.28c0.25,1.52,0.32,3.04,0.34,4.56c-0.04,1.52-0.17,3.04-0.53,4.57l-0.12,0
		c-0.38-1.52-0.54-3.04-0.6-4.56c0-1.52,0.05-3.04,0.27-4.56c0.1-0.76,0.16-1.52,0.11-2.28c-0.05-0.76-0.23-1.52-0.32-2.28
		c-0.1-1.52,0-3.04,0.39-4.57L178.43,112.02z"/>
	<g>
		<g>
			<polygon class="st36" points="66.24,159.54 60.58,154.84 86,121.52 94.84,129.08 			"/>
			<path class="st37" d="M85.57,122.09c-0.18-2.96,0.94-6.28,3.3-9.04c4.17-4.88,10.67-6.18,14.5-2.9c3.83,3.28,3.56,9.9-0.61,14.78
				c-2.5,2.92-5.54,4.68-8.64,4.82"/>
			<path class="st36" d="M89.86,111.99c0,0,6.23,9.66,13.74,11.75l-0.46,0.71c0,0-5.69-0.05-13.9-11.84L89.86,111.99z"/>
			
				<rect x="59.55" y="156.82" transform="matrix(0.76 0.6499 -0.6499 0.76 117.7576 -2.8693)" class="st37" width="6.43" height="2.36"/>
			<path class="st37" d="M73.27,146.75l-1-0.85c-0.21-0.18-0.24-0.5-0.06-0.72l5.53-6.47c0.18-0.21,0.5-0.24,0.72-0.06l1,0.85
				c0.21,0.18,0.24,0.5,0.06,0.72l-5.53,6.47C73.81,146.91,73.48,146.94,73.27,146.75z"/>
			
				<ellipse transform="matrix(0.6499 -0.76 0.76 0.6499 -79.335 108.4194)" class="st38" cx="78.02" cy="140.33" rx="0.62" ry="0.56"/>
		</g>
		<path class="st18" d="M76.86,130.37c-0.61,0.77-0.45,1.94,0.38,2.64l3.15,2.68c0.94,0.81,2.3,0.77,3.03-0.08h0
			c0.73-0.85,0.56-2.2-0.38-3.01l-3.15-2.71c-0.86-0.74-2.1-0.68-2.74,0.12L76.86,130.37z"/>
		<path class="st18" d="M70.17,140.25c-0.66,0.74-0.51,1.95,0.33,2.7l1.01,0.89c0.88,0.75,2.14,0.74,2.8-0.04h0
			c0.67-0.77,0.49-2.02-0.39-2.78l-0.83-0.82c-0.83-0.82-2.12-0.87-2.81-0.1L70.17,140.25z"/>
		<path class="st18" d="M72.35,136.69c0.71-0.83,2.06-0.83,2.99,0l1.58,1.42c1.02,0.87,1.22,2.32,0.45,3.21h0
			c-0.77,0.9-2.23,0.92-3.24,0.04l-1.66-1.43c-0.92-0.8-1.1-2.1-0.4-2.92L72.35,136.69z"/>
		<path class="st18" d="M74.82,133.3c0.71-0.79,1.98-0.81,2.84-0.04l2.79,2.49c0.92,0.79,1.08,2.12,0.36,2.96l0,0
			c-0.72,0.84-2.06,0.89-2.98,0.1l-2.88-2.45c-0.89-0.76-1.04-2.04-0.33-2.84L74.82,133.3z"/>
	</g>
	<path class="st39" d="M124.81,447.36h17.8l5.11-70.76h-20.24C128.25,396.17,127.71,419.48,124.81,447.36z"/>
	<path class="st39" d="M180.07,376.6h-21.99l5.8,70.76h17.8C179.61,419.35,179.36,396.07,180.07,376.6z"/>
	<g>
		<g>
			<path class="st32" d="M185.89,189.59l-5.27,32.49h-57.38l-5.27-32.49l-2.94-19.74c0-15.12,7.55-21.27,22.31-21.27l14.93,5.95
				l14.26-5.95c14.75,0,22.31,6.15,22.31,21.27L185.89,189.59z"/>
		</g>
	</g>
	<g>
		<polygon class="st19" points="152.61,286.36 152,317.21 147.71,376.6 158.08,376.6 153.22,317.21 		"/>
		<path class="st40" d="M187.58,268.17c-4.03-18.65-7.25-31.03-7.25-31.03h-56.67c0,0-3.21,13.97-6.91,31.03
			c-2.76,12.77,8.43,50.38,10.72,108.43l19.65,7.86l3.33-67.25l2.15-30.85l2.15,30.85l3.62,62.41l21.56-0.47
			C182.05,321.44,190.6,282.12,187.58,268.17z"/>
	</g>
	<path class="st41" d="M123.67,237.14h56.67c0,0,13.12,22.61,6.74,57.97h-68.28C118.79,295.11,109.66,258.21,123.67,237.14z"/>
	<path class="st42" d="M122.19,218.23l-5.43-34.29c-0.43-2.69,1.2-5.34,4.17-6.76l0,0c2.75-1.32,6.05-1.79,9.22-1.29l9.92,1.55
		c8.18,1.28,16.6,1.32,24.8,0.12l10.49-1.54c3.9-0.57,7.92,0.3,10.87,2.36h0c1.12,0.78,1.67,1.94,1.48,3.1l-5.97,36.55
		L122.19,218.23z"/>
	<polygon class="st41" points="143.8,451.17 91.54,451.17 91.54,449.22 125.59,436.78 127.35,385.85 121.84,324.64 151.63,325.77 
		146.97,386.78 143.8,438.83 	"/>
	<g>
		<polygon class="st41" points="161.85,450.89 212.84,450.89 212.84,448.94 181.33,437.28 179.91,381.3 184.73,325.62 
			153.84,325.43 158.28,379.62 161.85,438.55 		"/>
	</g>
	<polygon class="st32" points="122.72,230.53 111.19,273.58 150.4,276.66 151.72,248.67 155.01,277.43 193.45,273.58 181.92,230.53 
			"/>
	<polygon class="st42" points="121.96,212.85 121.15,235.95 185.3,243.19 181.15,212.08 144.25,212.08 	"/>
	<polygon class="st4" points="138.1,148.27 130.62,149.37 146.56,164.42 152.71,155.19 	"/>
	<path class="st31" d="M181.15,78.31c0,0,17.68,29.21,3.08,105.32c0,0-8.46,38.44-16.14,42.28c0,0,9.99-61.5,6.15-79.18l4.61-10.76
		l6.92-2.31L185,108.3l-2.31-16.91"/>
	<polygon class="st4" points="166.75,148.27 174.23,149.37 158.3,164.42 152.14,155.19 	"/>
	<path class="st41" d="M119.19,298.55c0,0,18.91-4.21,33.18,0l0.28-8.8l-34.54,0.74L119.19,298.55z"/>
	<path class="st41" d="M152.9,298.55c0,0,16.1-5.01,33.71,0l0.79-6.51l-34.89,0.76L152.9,298.55z"/>
	<polygon class="st4" points="155.01,277.43 159.64,277.43 155.01,239.77 150.4,239.76 	"/>
	<polygon class="st4" points="150.4,276.66 145.13,276.66 150.4,239.76 152.71,247.45 	"/>
	<path class="st19" d="M125.93,325.15c-0.06,0.03-0.09,0.1-0.07,0.17c0.02,0.06,0.09,0.1,0.16,0.09c0.08-0.06,0.06-0.21-0.04-0.24
		c-0.02-0.01-0.05-0.01-0.06,0.01c-0.01,0.02-0.01,0.05,0.02,0.05c0.02,0,0.01-0.05-0.01-0.03"/>
	<path class="st19" d="M129.98,325.48c-0.07,0.02-0.11,0.1-0.09,0.16c0.02,0.07,0.1,0.11,0.16,0.09c0.05-0.11,0.05-0.23,0.02-0.34
		c-0.06,0.02-0.11,0.07-0.13,0.14"/>
	<path class="st19" d="M123.72,325.13c0.02,0.09,0.07,0.18,0.14,0.25c0.03-0.08,0.03-0.16,0.01-0.24c-0.1-0.02-0.21-0.01-0.31,0.03"
		/>
	<path class="st19" d="M122.42,325.26c-0.07,0.09,0.01,0.24,0.12,0.24c0.11-0.01,0.17-0.18,0.08-0.25
		c-0.09-0.07-0.24,0.02-0.22,0.13"/>
	<path class="st31" d="M145.79,72.93c0,0,28.44,6.92,33.16,24.6l0.72-7.04c0,0-8.81-24.48-24.33-22.18L145.79,72.93z"/>
	<path class="st31" d="M125.8,97.53c0,0,7.69-19.22,27.68-23.83c0,0-15.38-11.53-24.6,2.31c0,0-7.69,12.3-6.92,17.68L125.8,97.53z"
		/>
</g>
</svg>
