<?xml version="1.0" encoding="utf-8"?>
<!-- Generator: Adobe Illustrator 23.0.6, SVG Export Plug-In . SVG Version: 6.00 Build 0)  -->
<svg version="1.1" id="Capa_1" xmlns="http://www.w3.org/2000/svg" xmlns:xlink="http://www.w3.org/1999/xlink" x="0px" y="0px"
	 viewBox="0 0 300 500" style="enable-background:new 0 0 300 500;" xml:space="preserve">
<style type="text/css">
	.st0{fill:#363636;}
	.st1{fill:#202020;}
	.st2{fill:#2D363A;}
	.st3{fill:#F1D19E;}
	.st4{fill:#FFFFFF;}
	.st5{fill:#F1D19E;stroke:#272425;stroke-width:0.1206;stroke-miterlimit:10;}
	.st6{fill:#F1F1F1;}
	.st7{fill:#272425;}
	.st8{fill:#1C1A1B;}
	.st9{fill:#1E2528;}
	.st10{fill:#B6B9C1;}
	.st11{fill:#FAF5EB;}
	.st12{fill:#48391D;}
	.st13{display:none;fill:#F1D19E;stroke:#272425;stroke-width:0.1206;stroke-miterlimit:10;}
	.st14{fill:#4C2208;}
	.st15{fill:#884D12;}
	.st16{fill:#583C1C;}
	.st17{fill:#7F6528;}
	.st18{fill:#F5E1C2;}
	.st19{fill:none;}
	.st20{fill:#360000;}
	.st21{fill:#F5E1C2;stroke:#B5966E;stroke-width:0.1184;stroke-miterlimit:10;}
	.st22{fill:#F5E1C2;stroke:#424140;stroke-width:0.1184;stroke-miterlimit:10;}
	.st23{fill:#E0CEAB;stroke:#B5966E;stroke-width:0.1206;stroke-miterlimit:10;}
	.st24{fill:#F5E1C2;stroke:#B5966E;stroke-width:0.1091;stroke-miterlimit:10;}
	.st25{fill:#C09D38;}
	.st26{fill:none;stroke:#7E5E40;stroke-linecap:round;stroke-linejoin:round;stroke-miterlimit:10;}
	.st27{fill:#DD902F;}
	.st28{fill:none;stroke:#815E18;stroke-linecap:round;stroke-miterlimit:10;}
	.st29{fill:#B62228;}
	.st30{fill:#997B55;}
	.st31{fill:#723324;}
	.st32{fill:#E6E6E6;}
	.st33{fill:#7E5E40;}
	.st34{fill:#815E18;}
	.st35{fill:#CACACA;}
	.st36{fill:#333333;}
	.st37{fill:#1A1A1A;}
	.st38{fill:#4D4D4D;}
	.st39{fill:#F0DDC0;}
	.st40{fill:#A2867E;}
	.st41{fill:#040006;}
	.st42{fill:#353745;}
	.st43{fill:#F7E3C4;stroke:#B7986E;stroke-width:0.1184;stroke-miterlimit:10;}
	.st44{display:none;fill:#F3D3A0;stroke:#272425;stroke-width:0.1206;stroke-miterlimit:10;}
	.st45{fill:#F3D3A0;}
	.st46{fill:#D5D6D6;}
	.st47{fill:#744C15;stroke:#272425;stroke-width:0.1206;stroke-miterlimit:10;}
	.st48{display:none;fill:#3E526A;}
	.st49{fill:#203847;}
	.st50{fill:#BC821F;}
	.st51{display:none;fill:#BC821F;}
	.st52{fill:#914310;}
	.st53{fill:#F7E3C4;stroke:#B7986E;stroke-width:0.1091;stroke-miterlimit:10;}
	.st54{fill:#7B0032;}
	.st55{fill:#7F5E40;}
	.st56{fill:#979797;}
	.st57{fill:#B0B0B0;stroke:#7F7F7F;stroke-width:0.25;stroke-miterlimit:10;}
	.st58{fill:none;stroke:#979797;stroke-miterlimit:10;}
	.st59{fill:#BCBA9A;stroke:#7F7F7F;stroke-width:0.25;stroke-miterlimit:10;}
	.st60{fill:#7F7F7F;}
	.st61{fill:#5888A7;stroke:#7F7F7F;stroke-width:0.25;stroke-miterlimit:10;}
	.st62{fill:#C8C8C8;stroke:#7F7F7F;stroke-width:0.25;stroke-miterlimit:10;}
	.st63{fill:#B0B0B0;}
	.st64{fill:#B67849;}
	.st65{fill:#7F5032;}
	.st66{fill:#4C3018;}
	.st67{fill:#C4C4C4;}
	.st68{fill:#A52B31;}
	.st69{fill:#1C2853;}
	.st70{fill:#F8F8F8;}
	.st71{fill:#81D646;}
	.st72{fill:#DEC69A;}
	.st73{fill:#DB391D;}
	.st74{fill:#8F673C;}
	.st75{opacity:0.35;}
	.st76{fill:#6FB353;}
	.st77{opacity:0.7;}
	.st78{fill:#DDC092;}
	.st79{fill:url(#);}
	.st80{fill:#754C24;}
	.st81{fill:#243B56;}
	.st82{fill:#CEAE7E;}
</style>
<g>
	<g>
	</g>
</g>
<g>
	<path d="M234.82,382.34c0.58,1.07,1.17,2.15,1.43,3.34c0.33,1.53,0.08,3.12-0.18,4.67c-0.75,4.58-1.5,9.16-2.25,13.75
		c-0.78,4.73-1.55,9.58-0.71,14.3c1.52,8.55,8,15.23,14.17,21.34c-3.75,0.03-7.09,2.21-10.4,3.97c-6.05,3.22-12.72,5.24-19.53,5.92
		c-5.79-10.06-13.94-18.54-20.46-28.14c-8.3-12.21-13.86-26.04-19.05-39.87c-3.09-8.23-6.1-16.62-6.79-25.38
		c-0.69-8.76,1.18-18.07,6.9-24.74c4.31-5.03,11.14-8.26,17.82-7.78c7.03,0.51,9.17,3.87,12.21,9.53
		C216.78,349.68,225.86,365.98,234.82,382.34z"/>
	<path d="M158.93,240.09c13.16,10.39,25.31,22.06,36.23,34.78c-2.54,4.32-5.09,8.65-7.63,12.97c-0.44,0.74-0.89,1.54-0.83,2.4
		c0.05,0.66,0.39,1.26,0.73,1.83c8.82,14.81,19.22,28.69,30.95,41.32c-2.8,2.87-5.74,6.04-6.28,10.01
		c-0.51,3.76,1.26,7.41,2.97,10.79c6.54,12.91,13.08,25.82,19.63,38.73c-1.91-0.78-4.38,0.54-4.79,2.57c5.5,10.6,11,21.2,16.5,31.8
		c0.62,1.19,1.25,2.47,1.11,3.8c-0.11,1.02-0.66,1.94-1.19,2.81c-2.24,3.65-11.27,11.74-13.51,15.4
		c-8.09-7.78-9.29-18.91-17.39-26.69c-9.64-9.27-19.29-18.55-28.44-28.3c-9.34-9.95-18.25-20.54-24.24-32.8
		c-6.52-13.34-9.35-28.18-11.19-42.92c-0.83-6.66-1.47-13.35-1.64-20.07C149.45,278.96,151.49,258.18,158.93,240.09z"/>
	<path class="st17" d="M108.77,105.39c0,3.35-3.32,44.15-3.32,54.24l34.06,4.96l32.53-6.66c1.52-23.06-1.46-49.2-1.46-52.55
		c0,0-0.11-21.45-1.18-25.61c-1.1-4.29-2.4-11.42-6.56-15.52c-10.31-10.18-35.79-10.18-45.92-0.39c-3.62,3.5-6.18,10.14-6.96,14.73
		C109.17,83.19,108.77,105.39,108.77,105.39z"/>
	<path class="st18" d="M120.57,151.53c-17.72,3.54-25.26,16.52-26,27.18v3.54l0.04,78.18l9.88,0.46l6.86-78.41
		c0.3-3.93,5.49-8,6.85-8.5"/>
	<path class="st18" d="M108.18,268.69c-2.2-1.32-2.43-2.89-2.43-2.9c-0.01-0.13-0.03-0.25-0.06-0.38l-1.06-4.15
		c-0.19-0.74-0.77-1.31-1.5-1.5c-0.74-0.19-1.43-0.55-1.95,0.01c-0.01,0.01-0.9-0.09-0.59,0.02c-2.39-0.89-5.73-1.74-5.62-1.79
		c0.17-0.08-3.15,10.28-2.94,12.08c0.58,5.1,0.52,10.16,0.43,12.79c-0.4,0.84-0.88,1.69-1.5,2.56c-0.66,0.94-0.43,2.23,0.5,2.89
		c0.45,0.32,0.99,0.43,1.5,0.35c0.54-0.08,1.05-0.38,1.38-0.86c1.21-1.72,2.04-3.39,2.61-5c0.34,0.45,0.72,0.89,1.14,1.31
		c0.36,0.35,0.85,0.49,1.32,0.42c0.32-0.05,0.64-0.2,0.88-0.46c0.6-0.62,0.58-1.6-0.03-2.2c-1.08-1.05-1.79-2.34-2.25-3.58
		c0.21-1.63,0.23-3.13,0.25-4.45c0.01-0.52,0.02-1.03,0.04-1.5c0.06-1.36,1.59-3.85,3.3-6.13l0.02,0.07c0.13,0.9,0.8,3.79,4.41,5.94
		c0.98,0.59,2.26,0.27,2.84-0.72C109.49,270.55,109.17,269.28,108.18,268.69z"/>
	<polygon class="st19" points="138.93,277.22 139.5,306.05 143.51,361.55 133.82,361.55 138.37,306.05 	"/>
	<g>
		<polygon class="st20" points="147.34,437.88 196,444.24 196,442.41 165.34,436.81 147.37,428.09 		"/>
	</g>
	<polygon class="st20" points="147.23,444.24 150.2,444.24 150.2,438.13 147.34,437.54 	"/>
	<path class="st20" d="M147.37,438.92c0,0,11.07-2.28,16.27,5.32l32.36-0.05v-1.78l-24.39-3.64l-24-3.89L147.37,438.92z"/>
	<path class="st20" d="M163.9,430.31c0,0,16.3,8.86,18.88,9.69l-18.18-1.49l-0.12-2.12L163.9,430.31"/>
	<polyline class="st22" points="147.37,428.09 164.48,436.39 174.13,438.43 164.09,432.3 	"/>
	<g>
		<polygon class="st23" points="124.68,152.01 153.72,152.01 148.02,131.78 130.38,131.78 		"/>
		<path class="st13" d="M111.56,111.06c0,10.1,16.74,29.69,26.84,29.69H140c10.1,0,26.84-19.59,26.84-29.69l1.14-17.2
			c0-10.1-12.18-24-22.28-24h-13c-10.1,0-22.28,13.89-22.28,24L111.56,111.06z"/>
	</g>
	<g>
		<path class="st24" d="M164.12,116.24c3.44,0.47,5.34-10.51,5.34-10.51c0.38-2.81,0.34-5.54-3.1-6l0,0L164.12,116.24z"/>
		<path class="st24" d="M114.12,116.28c-3.45,0.42-5.19-10.59-5.19-10.59c-0.34-2.81-0.27-5.54,3.18-5.96l0,0L114.12,116.28z"/>
	</g>
	<g>
		<path class="st18" d="M108.16,195.9l11.03,35.59l46.78-0.27l4.86-35.32l2.72-21.46c0-16.44-6.97-23.12-20.59-23.12h-26.94
			c-13.61,0-20.59,6.68-20.59,23.12L108.16,195.9z"/>
	</g>
	<path class="st25" d="M159.9,118.43c-0.81-0.97-0.36,3.63,0.56,4.66c2.25,2.51,6.07,2.74,8.54,0.53c2.46-2.21,2.64-6.04,0.39-8.54
		c-1.01-1.12-3.15-1.82-4.52-2.01c0,0,3.88,4.48,0.78,6.82C165.64,119.87,163.18,122.35,159.9,118.43z"/>
	<path class="st25" d="M118.55,118.43c0.81-0.97,0.36,3.63-0.56,4.66c-2.25,2.51-6.07,2.74-8.54,0.53
		c-2.46-2.21-2.64-6.04-0.39-8.54c1.01-1.12,3.15-1.82,4.52-2.01c0,0-3.88,4.48-0.78,6.82
		C112.81,119.87,115.27,122.35,118.55,118.43z"/>
	<g>
		<g>
			<path class="st13" d="M111.56,110.96c0,10.1,16.74,29.69,26.84,29.69h1.6c10.1,0,26.84-19.59,26.84-29.69l1.14-17.2
				c0-10.1-12.18-24-22.28-24h-13c-10.1,0-22.28,13.89-22.28,24L111.56,110.96z"/>
			<path class="st21" d="M112.55,108.6c0,16.35,16.14,32.06,25.88,32.06h1.54c9.74,0,26.52-17.67,25.88-32.06l-0.08-14.84
				c-0.51-8.31-11.29-16.16-21.09-19.1l-11.74,5.74c-9.74,0-20.31,3.26-20.31,13.36L112.55,108.6z"/>
		</g>
		<g>
			<path class="st26" d="M155.61,102.9c-0.91-1.99-1.9-2.78-4.23-2.78c-2.34,0-3.37,0.79-4.23,2.78"/>
			<path class="st26" d="M130.92,102.9c-0.84-1.99-1.89-2.78-4.23-2.78c-2.34,0-3.32,0.79-4.23,2.78"/>
		</g>
		<path class="st27" d="M135.45,117.82c0-1.24,1.68-2.24,3.76-2.24c2.08,0,3.76,1.01,3.76,2.24"/>
		<path class="st28" d="M152.03,96.09c0,0,5.61-0.69,7.09,3.15"/>
		<path class="st28" d="M127.21,96.09c0,0-5.61-0.69-7.09,3.15"/>
	</g>
	<g>
		<g>
			<path class="st29" d="M146.52,123.18c-0.89,3.57-3.83,8.16-7.33,8.16s-6.44-4.6-7.33-8.16c1.06,0.93,3.49-0.57,5.12-0.52
				c1,0.03,2.21,1.73,2.21,1.73s1.1-1.71,2.03-1.73C142.96,122.63,145.4,124.15,146.52,123.18z"/>
		</g>
		<g>
			<path class="st7" d="M145.7,124.18c-0.79,1.06-3.4,4.12-6.51,4.12c-3.11,0-5.72-3.06-6.51-4.12c1.53,0.44,3.88,1.21,6.51,1.21
				C141.83,125.39,144.17,124.62,145.7,124.18z"/>
		</g>
		<g>
			<path class="st4" d="M145.05,124.35c-0.71,0.94-3.06,3.04-5.86,3.04s-5.14-2.1-5.85-3.04c1.37,0.39,3.49,1.07,5.85,1.07
				C141.56,125.42,143.67,124.74,145.05,124.35z"/>
		</g>
	</g>
	<path class="st18" d="M134.16,153.18c3.96-0.14,7.91-0.24,11.87-0.31l5.94-0.11c2.02-0.02,4.11-0.04,6.4,0.07
		c2.29,0.12,4.75,0.41,7.33,1.08c2.57,0.67,5.25,1.74,7.68,3.33c2.45,1.56,4.55,3.59,6.22,5.75c1.67,2.16,2.94,4.43,3.96,6.67
		l-0.74-1.28c1.63,2.32,3.27,4.62,4.87,6.96l4.83,6.99c3.23,4.66,6.44,9.32,9.61,14.03l0.26,0.38l0.04,0.08
		c0.79,1.38,1.64,3.12,1.95,5.58c0.15,1.21,0.09,2.58-0.2,3.85c-0.28,1.28-0.78,2.42-1.31,3.34c-1.09,1.86-2.24,2.98-3.21,3.89
		c-0.99,0.91-1.88,1.59-2.71,2.22l-2.33,1.74l-0.39,0.29l-0.54,0.45l-1.1,0.92c-1.46,1.23-2.95,2.42-4.45,3.61
		c-3,2.37-6.07,4.67-9.23,6.86c-3.16,2.19-6.4,4.31-9.84,6.21l-4.86-5.41c2.29-3.23,4.77-6.25,7.33-9.19
		c2.56-2.94,5.22-5.78,7.94-8.54c1.36-1.38,2.73-2.75,4.13-4.09l1.05-1.01l0.53-0.51l0.74-0.61l2.22-1.82
		c0.67-0.56,1.28-1.09,1.68-1.51c0.42-0.41,0.58-0.73,0.44-0.54c-0.06,0.09-0.19,0.33-0.27,0.67c-0.09,0.33-0.1,0.73-0.08,0.98
		c0.06,0.54,0.11,0.49-0.08,0.23l0.3,0.46c-3.39-4.54-6.73-9.12-10.06-13.7l-5-6.87c-1.68-2.28-3.31-4.6-4.96-6.9l-0.4-0.55
		l-0.34-0.73c-0.63-1.34-1.33-2.53-2.09-3.49c-0.77-0.96-1.56-1.68-2.44-2.27c-0.87-0.59-1.89-1.03-3.14-1.39
		c-1.24-0.35-2.72-0.55-4.37-0.7c-3.28-0.27-7.45-0.23-11.36-0.34c-3.94-0.08-7.89-0.17-11.83-0.31V153.18z"/>
	<path d="M106.39,185.8c1.18,5.91,9.7,44.37,9.87,45.69c0,0-8.97,11.98-12.74,29.4c-1.4,6.48,0.98,12.74-0.67,27.71
		c-0.7,6.33-2.06,17.3-3.54,24.81l-2.36,43.72c-14.18,67.35-18.91,88.62-18.91,88.62l37.81-1.18l38.99,13.7
		c3.11,1.09,6.43,1.48,9.71,1.13L260,449.3c-8.89-2.99-22.45-29.54-42.54-49.63c-17.14-17.14-30.72-43.72-34.27-59.08
		c-3.92-16.99-8.67-31.12-11.1-37.91c-1.05-2.93-1.32-6.08-0.79-9.14c3.42-19.87,4.8-24.38,3.61-32.11
		c-2.46-16.13-8.94-30.2-8.94-30.2c0.17-1.31,7.13-45.9,7.13-51.68C173.11,179.54,150.11,173.98,106.39,185.8z"/>
	<path class="st0" d="M120.57,333.63l2.36,112.12l-7.09-1.18l-18.91,2.36c0,0-2.36-32.95-2.36-34.2S120.57,333.63,120.57,333.63z"/>
	<path class="st18" d="M133.29,280.37l-12.82,46.27l-0.2,0.72l-0.02,0.05c-2.39,6.84-4.54,15.03-6.64,22.97
		c-2.1,7.99-4.15,16.02-6.17,24.05c-4.05,16.07-8.03,32.19-11.96,48.3l-6.56-1.23c2.2-16.47,4.45-32.92,6.78-49.38
		c1.17-8.23,2.36-16.46,3.61-24.71c1.3-8.28,2.43-16.36,4.58-25.46l-0.22,0.78l8.88-47.18L133.29,280.37z"/>
	<path class="st18" d="M88.67,418.57c-1.08,4.62-2.76,10.84-3.83,15.46c-0.17,0.73-0.34,1.5-0.1,2.21c0.26,0.77,0.94,1.31,1.63,1.74
		c2.31,1.44,5.1,2.1,7.81,1.86c0.61-0.06,1.26-0.18,1.7-0.6c0.35-0.34,0.51-0.81,0.67-1.27c1.32-3.9,1.64-8.21,1.59-12.32
		c-0.06-4.67,0.59-17.49,0.97-22.15"/>
	<path class="st1" d="M83.6,436.07c0,0,4.18,5.97,13.29,1.41c0,0,0.9,5.86,0.43,9.12c-0.13,0.93-0.85,1.69-1.82,1.96
		c-2.6,0.72-8.45,1.8-13.93-0.93c-0.78-0.39-1.25-1.16-1.17-1.98C80.59,443.64,81.26,439.61,83.6,436.07z"/>
	<polygon points="107.57,269.02 125.29,357.13 166.65,270.87 	"/>
	<path d="M126.48,333.5c-1.18,3.54-14.18,115.8-14.18,115.8l48.45,3.54L126.48,333.5z"/>
	<path d="M107.08,189.88l-5.42-15.9l3.54-2.36l4.73,17.72l-5.91-20.09c0,0,0-3.06,4.74-3.49c0.64-0.06,1.29,0.01,1.91,0.2
		c1.66,0.5,7.65,2.63,9.5-0.15l3.53,5.8c0,0,27.97-4.6,45.08,1.14c1.48,0.5,2.62,1.69,3.11,3.17l1.2,3.61"/>
	<path class="st17" d="M125.3,141.55c-0.02,5.36-0.05,10.73-0.07,16.09c-0.01,2.98,0.01,6.1,1.38,8.74
		c-1.15,0.17-1.96-1.07-2.43-2.14c-2.93-6.72-5.07-13.79-6.37-21.01"/>
	<path class="st17" d="M154.18,151.23c0.44,1.74,1.45,3.27,2.45,4.76c2.44,3.65,4.88,7.31,7.32,10.96c1.26-6.7-4.03-13.35-2.8-20.06
		c5.66,6.05,7.75,15.22,5.28,23.12c4.09-3.22,6.91-8.03,7.7-13.18s-0.42-10.58-3.35-14.9"/>
	<path class="st17" d="M115.28,65.84c-6.06,4.85-11.97,14.32-14.39,21.7c-1.7,5.18-2.04,10.7-2.37,16.14
		c-0.32,5.27-0.61,10.73,1.21,15.68c0.69,1.86,1.66,3.62,2.19,5.53c0.61,2.19,0.61,4.5,0.61,6.77c0,8.01,0,16.01,0,24.02
		c0,5.61-0.19,11.76-3.91,15.97c4.74-4.94,9.55-9.99,12.51-16.16c3.16-6.6,3.98-14.04,4.65-21.32c0.88-9.63-2-14.56-2.47-24.23
		c-0.32-6.42,1.32-19.6,3.92-25.48c1.95-4.39,6.76-6.14,8.85-10.47c0.38-0.79,0.72-1.65,0.68-2.53c-0.04-1.04-0.6-1.98-1.14-2.87
		C122.17,62.86,120.18,61.92,115.28,65.84z"/>
	<path class="st17" d="M177.93,119.82c-0.93,5.18-2.49,10.32-2.3,15.59c0.19,5.26,2.63,10.88,7.46,12.97
		c-5.57,0.53-10.73-3.62-13.18-8.65c-2.45-5.03-2.77-10.79-3.04-16.37c-0.36-7.29-0.72-14.58-1.08-21.87
		c-0.23-4.65-0.47-9.36-1.8-13.82c-2.08-6.97-6.69-12.88-11.52-18.32c-0.96-1.08-1.99-2.29-1.99-3.74c0-7.23,9.23-3.3,11.68-0.83
		c4.54,4.58,8.05,10.65,10.71,16.48C178.3,93.23,180.26,106.85,177.93,119.82z"/>
	<path class="st17" d="M106.11,86c-2.16,6.04-3.13,12.46-5.04,18.59s-5.01,12.22-10.11,15.59c3.32-1.52,6.56-3.26,9.7-5.21
		c-1.78,6.47-4.12,12.78-6.96,18.81c3.68-0.54,6.88-3.39,9.01-6.77s3.36-7.31,4.64-11.16c2.9-8.75,6.15-17.38,9.72-25.86
		c1.16-2.74,2.36-5.49,3.92-7.99c2.35-3.77,5.46-6.93,8.8-9.67c0.44-0.37,0.93-0.78,1.03-1.38c0.25-1.5-1.83-1.8-3.18-1.44
		c-4.19,1.13-10.04,1.32-13.57,4.11C110.3,76.59,107.77,81.38,106.11,86z"/>
	<path class="st17" d="M109.59,117.65c-2.09-8.36-0.71-17.41,3.04-24.88c3.74-7.47,9.72-13.44,16.53-17.68
		c3.33-2.08,6.94-3.79,10.78-4.37c1.81-0.27,6.08-0.81,7.67,0.56c1.86,1.61-0.99,2.41-2.5,3.18c-4.04,2.06-7.89,4.54-11.46,7.42
		c-7.15,5.75-13.25,13.01-17.86,21.27c-1.31,2.34-2.49,4.76-3.55,7.25C111.63,111.83,109.2,116.11,109.59,117.65z"/>
	<g>
		<path class="st18" d="M166.14,230.1l0.84,1.56c0.26,0.48,0.07,1.08-0.41,1.34l-13.05,6.98c-0.48,0.26-1.08,0.07-1.34-0.41
			l-0.84-1.56c-0.26-0.48-0.07-1.08,0.41-1.34l13.05-6.98C165.28,229.44,165.88,229.62,166.14,230.1z"/>
		<path class="st18" d="M165.49,226.19l0.84,1.56c0.26,0.48,0.07,1.08-0.41,1.34l-13.05,6.98c-0.48,0.26-1.08,0.07-1.34-0.41
			l-0.84-1.56c-0.26-0.48-0.07-1.08,0.41-1.34l13.05-6.98C164.64,225.53,165.24,225.71,165.49,226.19z"/>
		<path class="st18" d="M170.32,232.12l0.84,1.56c0.26,0.48,0.07,1.08-0.41,1.34L157.71,242c-0.48,0.26-1.08,0.07-1.34-0.41
			l-0.84-1.56c-0.26-0.48-0.07-1.08,0.41-1.34l13.05-6.98C169.46,231.46,170.06,231.64,170.32,232.12z"/>
		<path class="st18" d="M170.1,235.62l0.61,1.15c0.19,0.35,0.05,0.79-0.3,0.98l-7.96,4.26c-0.35,0.19-0.79,0.05-0.98-0.3l-0.61-1.15
			c-0.19-0.35-0.05-0.79,0.3-0.98l7.96-4.26C169.47,235.14,169.91,235.27,170.1,235.62z"/>
		<path class="st18" d="M167.58,239.25c0.07,0.12,2.56-1.31,2.76-1.45c2.01-1.44,3.14-3.99,2.82-7.03
			c-0.26-2.47-2.24-4.43-4.33-5.15c-1.09-0.37-2.1-0.61-3.11-0.38c-0.3,0.07-3.07,1.18-3.74,1.72c-0.96,0.77,1.46,3.06,1.91,4.46
			C164.73,234.13,166.14,236.76,167.58,239.25z"/>
		<path class="st30" d="M156.27,238.51c0.55-0.35,1.11-0.68,1.67-1.01c0.56-0.33,1.13-0.64,1.71-0.95c0.57-0.3,1.15-0.61,1.73-0.9
			l0.88-0.43c0.3-0.14,0.59-0.28,0.89-0.41c-0.27,0.18-0.55,0.34-0.83,0.51l-0.84,0.49c-0.56,0.33-1.13,0.64-1.71,0.95
			c-0.57,0.3-1.15,0.61-1.73,0.89C157.46,237.97,156.87,238.25,156.27,238.51z"/>
		<path class="st30" d="M152.21,236.44c0.8-0.49,1.62-0.95,2.44-1.41c0.82-0.46,1.65-0.9,2.47-1.35c0.83-0.43,1.66-0.88,2.49-1.3
			l1.26-0.63c0.42-0.2,0.84-0.41,1.27-0.61c-0.4,0.25-0.81,0.48-1.21,0.72l-1.22,0.69c-0.82,0.46-1.65,0.9-2.47,1.35
			c-0.83,0.43-1.66,0.88-2.49,1.3C153.9,235.62,153.06,236.04,152.21,236.44z"/>
		<path class="st30" d="M160.86,240.31c0.83-0.56,1.7-1.05,2.58-1.52c0.88-0.47,1.77-0.92,2.7-1.3c-0.83,0.56-1.7,1.05-2.58,1.52
			C162.68,239.48,161.79,239.93,160.86,240.31z"/>
	</g>
</g>
</svg>
