<?xml version="1.0" encoding="utf-8"?>
<!-- Generator: Adobe Illustrator 23.0.6, SVG Export Plug-In . SVG Version: 6.00 Build 0)  -->
<svg version="1.1" id="Capa_1" xmlns="http://www.w3.org/2000/svg" xmlns:xlink="http://www.w3.org/1999/xlink" x="0px" y="0px"
	 viewBox="0 0 300 500" style="enable-background:new 0 0 300 500;" xml:space="preserve">
<style type="text/css">
	.st0{fill:#363636;}
	.st1{fill:#202020;}
	.st2{fill:#2D363A;}
	.st3{fill:#F1D19E;}
	.st4{fill:#FFFFFF;}
	.st5{fill:#F1D19E;stroke:#272425;stroke-width:0.1206;stroke-miterlimit:10;}
	.st6{fill:#F1F1F1;}
	.st7{fill:#272425;}
	.st8{fill:#1C1A1B;}
	.st9{fill:#1E2528;}
	.st10{fill:#B6B9C1;}
	.st11{fill:#FAF5EB;}
	.st12{fill:#48391D;}
	.st13{display:none;fill:#F1D19E;stroke:#272425;stroke-width:0.1206;stroke-miterlimit:10;}
	.st14{fill:#4C2208;}
	.st15{fill:#884D12;}
	.st16{fill:#583C1C;}
	.st17{fill:#7F6528;}
	.st18{fill:#F5E1C2;}
	.st19{fill:none;}
	.st20{fill:#360000;}
	.st21{fill:#F5E1C2;stroke:#B5966E;stroke-width:0.1184;stroke-miterlimit:10;}
	.st22{fill:#F5E1C2;stroke:#424140;stroke-width:0.1184;stroke-miterlimit:10;}
	.st23{fill:#E0CEAB;stroke:#B5966E;stroke-width:0.1206;stroke-miterlimit:10;}
	.st24{fill:#F5E1C2;stroke:#B5966E;stroke-width:0.1091;stroke-miterlimit:10;}
	.st25{fill:#C09D38;}
	.st26{fill:none;stroke:#7E5E40;stroke-linecap:round;stroke-linejoin:round;stroke-miterlimit:10;}
	.st27{fill:#DD902F;}
	.st28{fill:none;stroke:#815E18;stroke-linecap:round;stroke-miterlimit:10;}
	.st29{fill:#B62228;}
	.st30{fill:#997B55;}
	.st31{fill:#723324;}
	.st32{fill:#E6E6E6;}
	.st33{fill:#7E5E40;}
	.st34{fill:#815E18;}
	.st35{fill:#CACACA;}
	.st36{fill:#333333;}
	.st37{fill:#1A1A1A;}
	.st38{fill:#4D4D4D;}
	.st39{fill:#F0DDC0;}
	.st40{fill:#A2867E;}
	.st41{fill:#040006;}
	.st42{fill:#353745;}
	.st43{fill:#F7E3C4;stroke:#B7986E;stroke-width:0.1184;stroke-miterlimit:10;}
	.st44{display:none;fill:#F3D3A0;stroke:#272425;stroke-width:0.1206;stroke-miterlimit:10;}
	.st45{fill:#F3D3A0;}
	.st46{fill:#D5D6D6;}
	.st47{fill:#744C15;stroke:#272425;stroke-width:0.1206;stroke-miterlimit:10;}
	.st48{display:none;fill:#3E526A;}
	.st49{fill:#203847;}
	.st50{fill:#BC821F;}
	.st51{display:none;fill:#BC821F;}
	.st52{fill:#914310;}
	.st53{fill:#F7E3C4;stroke:#B7986E;stroke-width:0.1091;stroke-miterlimit:10;}
	.st54{fill:#7B0032;}
	.st55{fill:#7F5E40;}
	.st56{fill:#979797;}
	.st57{fill:#B0B0B0;stroke:#7F7F7F;stroke-width:0.25;stroke-miterlimit:10;}
	.st58{fill:none;stroke:#979797;stroke-miterlimit:10;}
	.st59{fill:#BCBA9A;stroke:#7F7F7F;stroke-width:0.25;stroke-miterlimit:10;}
	.st60{fill:#7F7F7F;}
	.st61{fill:#5888A7;stroke:#7F7F7F;stroke-width:0.25;stroke-miterlimit:10;}
	.st62{fill:#C8C8C8;stroke:#7F7F7F;stroke-width:0.25;stroke-miterlimit:10;}
	.st63{fill:#B0B0B0;}
	.st64{fill:#B67849;}
	.st65{fill:#7F5032;}
	.st66{fill:#4C3018;}
	.st67{fill:#C4C4C4;}
	.st68{fill:#A52B31;}
	.st69{fill:#1C2853;}
	.st70{fill:#F8F8F8;}
	.st71{fill:#81D646;}
	.st72{fill:#DEC69A;}
	.st73{fill:#DB391D;}
	.st74{fill:#8F673C;}
	.st75{opacity:0.35;}
	.st76{fill:#6FB353;}
	.st77{opacity:0.7;}
	.st78{fill:#DDC092;}
	.st79{fill:url(#);}
	.st80{fill:#754C24;}
	.st81{fill:#243B56;}
	.st82{fill:#CEAE7E;}
</style>
<g>
	<g>
		<polygon points="141.48,278.19 140.37,278.19 139.25,278.19 138.14,278.19 101.11,278.19 113.16,441.38 135.27,441.38 
			139.25,313.87 139.81,296.04 140.37,313.87 144.34,441.38 166.46,441.38 178.51,278.19 		"/>
		<g>
			<polygon class="st0" points="136.03,449.85 80.35,449.8 80.35,447.89 112.5,436.66 136.03,441.37 			"/>
			<rect x="80.36" y="447.92" class="st1" width="55.63" height="1.88"/>
			<path d="M89.21,444.8c0,0,1.97,2.18,6.11,3.12H80.36L89.21,444.8z"/>
			<path d="M99.06,441.36c0.1-0.02,0.21,0.01,0.3,0.04c0.1,0.03,0.19,0.07,0.29,0.1c0.19,0.08,0.38,0.16,0.56,0.25
				c0.37,0.18,0.72,0.38,1.08,0.58c0.35,0.21,0.7,0.42,1.04,0.64c0.34,0.22,0.68,0.46,1,0.71c-0.36-0.18-0.72-0.38-1.08-0.58
				c-0.35-0.2-0.71-0.4-1.06-0.61l-1.05-0.61c-0.18-0.1-0.35-0.2-0.53-0.3c-0.09-0.05-0.18-0.09-0.27-0.14
				c-0.05-0.02-0.09-0.04-0.14-0.06c-0.02-0.01-0.05-0.02-0.07-0.02C99.11,441.36,99.08,441.36,99.06,441.36z"/>
			<path d="M102.34,440.21c0.34,0.08,0.68,0.19,1.01,0.32c0.33,0.13,0.65,0.27,0.97,0.43c0.31,0.16,0.62,0.34,0.91,0.55
				c0.29,0.21,0.56,0.44,0.79,0.71c-0.28-0.22-0.57-0.41-0.87-0.59l-0.22-0.13l-0.23-0.13c-0.15-0.08-0.31-0.17-0.46-0.24
				c-0.31-0.16-0.62-0.31-0.94-0.46C102.98,440.51,102.66,440.37,102.34,440.21z"/>
			<path d="M106.39,438.8c0.34,0.08,0.68,0.19,1.01,0.32c0.33,0.13,0.65,0.27,0.97,0.43c0.31,0.16,0.62,0.34,0.91,0.55
				c0.29,0.21,0.56,0.44,0.79,0.71c-0.28-0.22-0.57-0.41-0.87-0.59l-0.22-0.13l-0.23-0.13c-0.15-0.08-0.31-0.17-0.46-0.24
				c-0.31-0.16-0.62-0.31-0.94-0.46C107.02,439.1,106.71,438.95,106.39,438.8z"/>
			<path d="M110.06,437.76c0.34,0.08,0.68,0.19,1.01,0.32c0.33,0.13,0.65,0.27,0.97,0.43c0.31,0.16,0.62,0.34,0.91,0.55
				c0.29,0.21,0.56,0.44,0.79,0.71c-0.28-0.22-0.57-0.41-0.87-0.59l-0.22-0.13l-0.23-0.13c-0.15-0.08-0.31-0.17-0.46-0.24
				c-0.31-0.16-0.62-0.31-0.94-0.46C110.69,438.07,110.38,437.92,110.06,437.76z"/>
			<circle cx="103.28" cy="443.73" r="0.28"/>
			<circle cx="106.06" cy="442.27" r="0.28"/>
			<circle cx="110.1" cy="440.86" r="0.28"/>
			<circle cx="113.59" cy="439.54" r="0.28"/>
			<path d="M135.99,444.01v3.91h-4.67C131.31,447.92,132.6,444.34,135.99,444.01z"/>
		</g>
		<g>
			<polygon class="st0" points="143.58,449.85 199.27,449.8 199.27,447.89 167.12,436.66 143.58,441.37 			"/>
			
				<rect x="143.63" y="447.92" transform="matrix(-1 -4.496327e-11 4.496327e-11 -1 342.8862 897.7151)" class="st1" width="55.63" height="1.88"/>
			<path d="M190.41,444.8c0,0-1.97,2.18-6.11,3.12h14.96L190.41,444.8z"/>
			<path d="M180.56,441.36c-0.1-0.02-0.21,0.01-0.3,0.04c-0.1,0.03-0.19,0.07-0.29,0.1c-0.19,0.08-0.38,0.16-0.56,0.25
				c-0.37,0.18-0.72,0.38-1.08,0.58c-0.35,0.21-0.7,0.42-1.04,0.64c-0.34,0.22-0.68,0.46-1,0.71c0.36-0.18,0.72-0.38,1.08-0.58
				c0.35-0.2,0.71-0.4,1.06-0.61l1.05-0.61c0.18-0.1,0.35-0.2,0.53-0.3c0.09-0.05,0.18-0.09,0.27-0.14
				c0.05-0.02,0.09-0.04,0.14-0.06c0.02-0.01,0.05-0.02,0.07-0.02C180.51,441.36,180.53,441.36,180.56,441.36z"/>
			<path d="M177.28,440.21c-0.34,0.08-0.68,0.19-1.01,0.32c-0.33,0.13-0.65,0.27-0.97,0.43c-0.31,0.16-0.62,0.34-0.91,0.55
				c-0.29,0.21-0.56,0.44-0.79,0.71c0.28-0.22,0.57-0.41,0.87-0.59l0.22-0.13l0.23-0.13c0.15-0.08,0.31-0.17,0.46-0.24
				c0.31-0.16,0.62-0.31,0.94-0.46C176.64,440.51,176.96,440.37,177.28,440.21z"/>
			<path d="M173.23,438.8c-0.34,0.08-0.68,0.19-1.01,0.32c-0.33,0.13-0.65,0.27-0.97,0.43c-0.31,0.16-0.62,0.34-0.91,0.55
				c-0.29,0.21-0.56,0.44-0.79,0.71c0.28-0.22,0.57-0.41,0.87-0.59l0.22-0.13l0.23-0.13c0.15-0.08,0.31-0.17,0.46-0.24
				c0.31-0.16,0.62-0.31,0.94-0.46C172.59,439.1,172.91,438.95,173.23,438.8z"/>
			<path d="M169.56,437.76c-0.34,0.08-0.68,0.19-1.01,0.32c-0.33,0.13-0.65,0.27-0.97,0.43c-0.31,0.16-0.62,0.34-0.91,0.55
				c-0.29,0.21-0.56,0.44-0.79,0.71c0.28-0.22,0.57-0.41,0.87-0.59l0.22-0.13l0.23-0.13c0.15-0.08,0.31-0.17,0.46-0.24
				c0.31-0.16,0.62-0.31,0.94-0.46C168.92,438.07,169.24,437.92,169.56,437.76z"/>
			<circle cx="176.34" cy="443.73" r="0.28"/>
			<circle cx="173.56" cy="442.27" r="0.28"/>
			<circle cx="169.51" cy="440.86" r="0.28"/>
			<circle cx="166.03" cy="439.54" r="0.28"/>
			<path d="M143.63,444.01v3.91h4.67C148.3,447.92,147.02,444.34,143.63,444.01z"/>
		</g>
	</g>
	<polyline class="st2" points="158.69,149.74 188.44,158.24 196.44,197.31 	"/>
	<g>
		<g>
			<path class="st3" d="M84.12,299.36c0.49-0.13,0.94-0.4,1.28-0.82c0.88-1.05,0.73-2.61-0.32-3.49
				c-7.87-6.53-5.11-10.91-4.99-11.09c0.07-0.1,0.16-0.25,0.21-0.36l4.53-9.54l1.81,2.44l0.42,4.99c0.11,1.36,1.31,2.38,2.67,2.26
				c1.36-0.11,2.38-1.31,2.26-2.68l-0.48-5.69c-0.04-0.46-0.21-0.9-0.48-1.27l-4.69-6.31c-0.52-0.7-1.37-1.07-2.23-0.99
				c-0.86,0.08-1.62,0.62-2,1.4l-6.22,13.12c-0.91,1.46-4.56,8.74,6.03,17.53C82.55,299.39,83.37,299.55,84.12,299.36z"/>
			<path class="st3" d="M84.65,268.43l-7.21,15.75c0,0-0.71,5.58,2.11,8.73c0,0-7.01-3.24-8.92-11.9
				c-0.46-2.12,4.35-15.41,4.16-15.29C74.61,265.84,84.65,268.43,84.65,268.43z"/>
		</g>
	</g>
	<path class="st2" d="M111.77,181.2c-1.07,1.57-2.08,3.71-2.71,6.2L92.8,272.34l-23.44-4.49l16.32-85.27l0.12-0.57
		c1.86-7.67,6.21-16.33,13.33-21.87c0,0,5.87-6.32,16.8-8.76L111.77,181.2z"/>
	<g>
		<g>
			<path class="st3" d="M195.56,299.36c-0.49-0.13-0.94-0.4-1.28-0.82c-0.88-1.05-0.73-2.61,0.32-3.49
				c7.87-6.53,5.11-10.91,4.99-11.09c-0.07-0.1-0.16-0.25-0.21-0.36l-4.53-9.54l-1.81,2.44l-0.42,4.99
				c-0.11,1.36-1.31,2.38-2.67,2.26c-1.36-0.11-2.38-1.31-2.26-2.68l0.48-5.69c0.04-0.46,0.21-0.9,0.48-1.27l4.69-6.31
				c0.52-0.7,1.37-1.07,2.23-0.99c0.86,0.08,1.62,0.62,2,1.4l6.22,13.12c0.91,1.46,4.56,8.74-6.03,17.53
				C197.12,299.39,196.3,299.55,195.56,299.36z"/>
			<path class="st3" d="M195.02,268.43l7.21,15.75c0,0,0.71,5.58-2.11,8.73c0,0,7.01-3.24,8.92-11.9
				c0.46-2.12-4.35-15.41-4.16-15.29C205.07,265.84,195.02,268.43,195.02,268.43z"/>
		</g>
	</g>
	<path class="st4" d="M181.55,180.65c0-17.23-12.7-28.98-27.48-28.98h-29.26c-14.78,0-27.48,11.74-27.48,28.98l1.67,41.3
		c0,1.42,0.6,3.67,0.81,5.29l1.77,50.96h75.71l2.25-51.66c0.21-1.62,0.33-3.16,0.33-4.59L181.55,180.65z"/>
	<path class="st5" d="M158.55,151.67L158.55,151.67c0-0.68-0.21-1.3-0.56-1.88l-5.41-18.05h-26.26l-5.41,18.05
		c-0.35,0.58-0.56,1.21-0.56,1.88v0l0,0v0c0,9.59,8.55,17.36,19.1,17.36C149.99,169.03,158.55,161.26,158.55,151.67L158.55,151.67
		L158.55,151.67z"/>
	<g id="corbata_19_">
		<polygon class="st6" points="158.79,279.12 120.09,279.12 120.09,150.28 139.44,153.71 158.79,150.28 		"/>
		<polygon class="st4" points="158.79,150.63 156.93,146.51 139.44,150.69 121.95,146.51 120.09,150.63 133.88,158.71 
			139.44,157.11 144.91,158.71 		"/>
	</g>
	<g>
		<path class="st2" d="M122,164.76l-0.75-4.63l0.84-9.44c-13.48,3.78-26.07,14.06-26.07,29.1l1.9,41.75c0,1.44,1.69,4.06,1.9,5.69
			l-0.15,64.1l41.8-0.01l-0.84-69.84l-21.77-52.94L122,164.76z"/>
		<path class="st2" d="M181.34,179.97c0-15.04-11.63-26.56-23.03-29.29l2.53,11.33l-3.81,2.74l3.15,3.78l-19.55,51.99v70.79
			l38.83,1.89l-0.1-66.75c0.21-1.64,0.33-3.2,0.33-4.65L181.34,179.97z"/>
	</g>
	<path class="st7" d="M140.03,158.78c-0.7-0.81-5.57-3.94-8.8-5.97c-1.41-0.88-2.91,0.82-2.91,3.3v4.05c0,2.4,1.42,4.09,2.81,3.36
		L140.03,158.78z"/>
	<path class="st7" d="M143.05,158.11c0,1.49-1.36,2.7-3.03,2.7c-1.67,0-3.03-1.21-3.03-2.7c0-1.49,1.35-2.7,3.03-2.7
		C141.7,155.41,143.05,156.62,143.05,158.11z"/>
	<path class="st7" d="M140.7,158.78c0.7-0.81,5.57-3.93,8.8-5.97c1.41-0.89,2.91,0.82,2.91,3.3v4.05c0,2.4-1.42,4.09-2.81,3.36
		L140.7,158.78z"/>
	<path class="st8" d="M140.68,183.28c0,0.38-0.31,0.69-0.69,0.69c-0.38,0-0.69-0.31-0.69-0.69c0-0.38,0.31-0.69,0.69-0.69
		C140.37,182.59,140.68,182.89,140.68,183.28z"/>
	<path class="st8" d="M140.68,195.66c0,0.38-0.31,0.69-0.69,0.69c-0.38,0-0.69-0.31-0.69-0.69c0-0.38,0.31-0.69,0.69-0.69
		C140.37,194.97,140.68,195.28,140.68,195.66z"/>
	<path class="st8" d="M140.68,208.05c0,0.38-0.31,0.69-0.69,0.69c-0.38,0-0.69-0.31-0.69-0.69c0-0.38,0.31-0.69,0.69-0.69
		C140.37,207.36,140.68,207.67,140.68,208.05z"/>
	<path class="st8" d="M140.68,170.89c0,0.38-0.31,0.69-0.69,0.69c-0.38,0-0.69-0.31-0.69-0.69c0-0.38,0.31-0.69,0.69-0.69
		C140.37,170.2,140.68,170.51,140.68,170.89z"/>
	<path class="st2" d="M167.81,181.17c1.06,1.57,2.05,3.7,2.68,6.19l15.98,84.87l23.28-4.53l-16.04-85.19l-0.12-0.57
		c-1.83-7.66-6.13-16.31-13.19-21.84c0,0-5.82-6.31-16.66-8.73L167.81,181.17z"/>
	<path class="st9" d="M119.98,149.92c-2.19,0.58-4.21,1.38-6.08,2.33l-1.9,13.3l5.43-0.32l-3.13,4.52l25.5,54.56v-7.55
		L119.98,149.92z"/>
	<path class="st9" d="M158.51,149.92c2.19,0.58,4.21,1.38,6.08,2.33l1.9,13.3l-5.43-0.32l3.13,4.52l-24.37,54.56v-7.55
		L158.51,149.92z"/>
	<polygon class="st10" points="175.67,191.27 160.57,191.27 159.63,189.38 176.62,189.38 	"/>
	<polyline class="st2" points="119.99,149.74 90.73,158.24 82.86,197.31 	"/>
	<path d="M117.16,291.32c0,0,22.65,4.72,23.6-33.03c0,0-2.83,34.92,19.82,33.98l-20.76,3.78L117.16,291.32z"/>
	<g>
		<path class="st12" d="M172.38,98.38c0,3.51-2.85,6.36-6.36,6.36h-54.55c-3.51,0-6.36-2.85-6.36-6.36c0,0-1.69-19.88-0.22-24.15
			c1.7-4.95,3.78-16.04,13.33-21.57c5.3-3.07,44.44-8.08,40.47-0.14c-2.83,5.66,12.27,16.04,13.21,21.71
			C172.7,79.05,172.38,98.38,172.38,98.38z"/>
		<g>
			<path class="st13" d="M170.89,109.06c0,10.59-14.56,25.15-25.16,25.15h-13.62c-10.59,0-25.15-14.56-25.15-25.15V85.05
				c0-10.59,14.56-25.15,25.15-25.15h13.62c10.59,0,25.16,14.56,25.16,25.15V109.06z"/>
			<path class="st5" d="M170.89,109.06c0,10.59-14.56,25.15-25.16,25.15h-13.62c-10.59,0-25.15-14.56-25.15-25.15V85.05
				c0-10.59,10.85-18.96,21.44-18.96h21.05c10.59,0,21.44,8.37,21.44,18.96V109.06z"/>
		</g>
	</g>
	<g>
		<g>
			<path class="st5" d="M106.9,111.17c-4.02,0-4.49-12.9-4.49-12.9c0-3.28,0.47-6.41,4.49-6.41l0,0V111.17z"/>
			<path class="st5" d="M170.83,111.17c4.02,0,4.49-12.9,4.49-12.9c0-3.28-0.47-6.41-4.49-6.41l0,0V111.17z"/>
		</g>
		<g>
			<path class="st14" d="M130.05,118.2c1.07,3.57,4.61,7.43,8.81,7.43s7.74-3.86,8.81-7.43c-2.07,1.49-5.24,1.22-8.81,1.22
				C135.3,119.42,132.12,119.69,130.05,118.2z"/>
		</g>
		<path class="st15" d="M134.93,111.15c0-1.3,1.76-2.35,3.94-2.35c2.17,0,3.94,1.05,3.94,2.35"/>
		<g>
			<g>
				<path class="st16" d="M130.36,94.05c-0.34,0-0.62-0.28-0.62-0.62c0-1.07-0.43-2.29-3.82-2.29s-3.82,1.22-3.82,2.29
					c0,0.34-0.28,0.62-0.62,0.62s-0.62-0.28-0.62-0.62c0-2.34,1.7-3.53,5.06-3.53c3.36,0,5.06,1.19,5.06,3.53
					C130.98,93.78,130.7,94.05,130.36,94.05z"/>
			</g>
			<g>
				<path class="st16" d="M156.25,94.05c-0.34,0-0.62-0.28-0.62-0.62c0-1.07-0.43-2.29-3.82-2.29c-3.39,0-3.82,1.22-3.82,2.29
					c0,0.34-0.28,0.62-0.62,0.62c-0.34,0-0.62-0.28-0.62-0.62c0-2.34,1.7-3.53,5.06-3.53c3.36,0,5.06,1.19,5.06,3.53
					C156.86,93.78,156.59,94.05,156.25,94.05z"/>
			</g>
		</g>
	</g>
</g>
</svg>
