<?xml version="1.0" encoding="utf-8"?>
<!-- Generator: Adobe Illustrator 23.0.6, SVG Export Plug-In . SVG Version: 6.00 Build 0)  -->
<svg version="1.1" id="Capa_1" xmlns="http://www.w3.org/2000/svg" xmlns:xlink="http://www.w3.org/1999/xlink" x="0px" y="0px"
	 viewBox="0 0 300 500" style="enable-background:new 0 0 300 500;" xml:space="preserve">
<style type="text/css">
	.st0{fill:#363636;}
	.st1{fill:#202020;}
	.st2{fill:#2D363A;}
	.st3{fill:#F1D19E;}
	.st4{fill:#FFFFFF;}
	.st5{fill:#F1D19E;stroke:#272425;stroke-width:0.1206;stroke-miterlimit:10;}
	.st6{fill:#F1F1F1;}
	.st7{fill:#272425;}
	.st8{fill:#1C1A1B;}
	.st9{fill:#1E2528;}
	.st10{fill:#B6B9C1;}
	.st11{fill:#FAF5EB;}
	.st12{fill:#48391D;}
	.st13{display:none;fill:#F1D19E;stroke:#272425;stroke-width:0.1206;stroke-miterlimit:10;}
	.st14{fill:#4C2208;}
	.st15{fill:#884D12;}
	.st16{fill:#583C1C;}
	.st17{fill:#7F6528;}
	.st18{fill:#F5E1C2;}
	.st19{fill:none;}
	.st20{fill:#360000;}
	.st21{fill:#F5E1C2;stroke:#B5966E;stroke-width:0.1184;stroke-miterlimit:10;}
	.st22{fill:#F5E1C2;stroke:#424140;stroke-width:0.1184;stroke-miterlimit:10;}
	.st23{fill:#E0CEAB;stroke:#B5966E;stroke-width:0.1206;stroke-miterlimit:10;}
	.st24{fill:#F5E1C2;stroke:#B5966E;stroke-width:0.1091;stroke-miterlimit:10;}
	.st25{fill:#C09D38;}
	.st26{fill:none;stroke:#7E5E40;stroke-linecap:round;stroke-linejoin:round;stroke-miterlimit:10;}
	.st27{fill:#DD902F;}
	.st28{fill:none;stroke:#815E18;stroke-linecap:round;stroke-miterlimit:10;}
	.st29{fill:#B62228;}
	.st30{fill:#997B55;}
	.st31{fill:#723324;}
	.st32{fill:#E6E6E6;}
	.st33{fill:#7E5E40;}
	.st34{fill:#815E18;}
	.st35{fill:#CACACA;}
	.st36{fill:#333333;}
	.st37{fill:#1A1A1A;}
	.st38{fill:#4D4D4D;}
	.st39{fill:#F0DDC0;}
	.st40{fill:#A2867E;}
	.st41{fill:#040006;}
	.st42{fill:#353745;}
	.st43{fill:#F7E3C4;stroke:#B7986E;stroke-width:0.1184;stroke-miterlimit:10;}
	.st44{display:none;fill:#F3D3A0;stroke:#272425;stroke-width:0.1206;stroke-miterlimit:10;}
	.st45{fill:#F3D3A0;}
	.st46{fill:#D5D6D6;}
	.st47{fill:#744C15;stroke:#272425;stroke-width:0.1206;stroke-miterlimit:10;}
	.st48{display:none;fill:#3E526A;}
	.st49{fill:#203847;}
	.st50{fill:#BC821F;}
	.st51{display:none;fill:#BC821F;}
	.st52{fill:#914310;}
	.st53{fill:#F7E3C4;stroke:#B7986E;stroke-width:0.1091;stroke-miterlimit:10;}
	.st54{fill:#7B0032;}
	.st55{fill:#7F5E40;}
	.st56{fill:#979797;}
	.st57{fill:#B0B0B0;stroke:#7F7F7F;stroke-width:0.25;stroke-miterlimit:10;}
	.st58{fill:none;stroke:#979797;stroke-miterlimit:10;}
	.st59{fill:#BCBA9A;stroke:#7F7F7F;stroke-width:0.25;stroke-miterlimit:10;}
	.st60{fill:#7F7F7F;}
	.st61{fill:#5888A7;stroke:#7F7F7F;stroke-width:0.25;stroke-miterlimit:10;}
	.st62{fill:#C8C8C8;stroke:#7F7F7F;stroke-width:0.25;stroke-miterlimit:10;}
	.st63{fill:#B0B0B0;}
	.st64{fill:#B67849;}
	.st65{fill:#7F5032;}
	.st66{fill:#4C3018;}
	.st67{fill:#C4C4C4;}
	.st68{fill:#A52B31;}
	.st69{fill:#1C2853;}
	.st70{fill:#F8F8F8;}
	.st71{fill:#81D646;}
	.st72{fill:#DEC69A;}
	.st73{fill:#DB391D;}
	.st74{fill:#8F673C;}
	.st75{opacity:0.35;}
	.st76{fill:#6FB353;}
	.st77{opacity:0.7;}
	.st78{fill:#DDC092;}
	.st79{fill:url(#);}
	.st80{fill:#754C24;}
	.st81{fill:#243B56;}
	.st82{fill:#CEAE7E;}
</style>
<g>
	<g>
	</g>
</g>
<g>
	<g>
		<polygon class="st43" points="166.71,185.98 198.15,186.17 192.11,164.22 173.01,164.11 		"/>
		<path class="st44" d="M152.76,141.55c-0.06,10.94,17.94,32.26,28.88,32.33l1.73,0.01c10.94,0.06,29.19-21.04,29.26-31.98
			l1.35-18.62c0.06-10.94-13.04-26.06-23.98-26.13l-14.07-0.08c-10.94-0.06-24.22,14.9-24.29,25.84L152.76,141.55z"/>
	</g>
	<g>
		<g>
			<g>
				<path class="st45" d="M217.44,310.75c0.75,0.26,1.61,0.16,2.31-0.33c11.6-8.21,8.41-16,7.59-17.57l-5.37-14.01
					c-0.32-0.84-1.06-1.44-1.94-1.6c-0.88-0.16-1.79,0.16-2.38,0.84l-5.33,6.13c-0.31,0.36-0.52,0.8-0.6,1.27l-0.94,5.82
					c-0.23,1.39,0.71,2.71,2.12,2.93c1.4,0.23,2.71-0.72,2.94-2.12l0.82-5.1l2.06-2.36l3.91,10.19c0.06,0.15,0.13,0.3,0.21,0.43
					c0.08,0.15,2.57,4.88-6.05,10.98c-1.15,0.82-1.43,2.41-0.61,3.57C216.5,310.27,216.95,310.59,217.44,310.75z"/>
				<path class="st45" d="M219.33,278.85l6.18,16.8c0,0,0.29,5.81-2.86,8.83c0,0,7.48-2.78,10.13-11.55
					c0.65-2.14-3.26-16.21-3.08-16.07C229.88,276.99,219.33,278.85,219.33,278.85z"/>
			</g>
			<g>
				<path class="st45" d="M44.04,189.33c0.26-0.45,0.65-0.83,1.16-1.06c1.28-0.59,2.8-0.03,3.4,1.25c4.46,9.67,9.64,7.97,9.69,7.95
					c0.15-0.06,0.31-0.1,0.46-0.13l10.73-1.98l-1.95-2.46l-4.87-1.74c-1.33-0.48-2.02-1.94-1.55-3.27c0.47-1.33,1.94-2.02,3.27-1.55
					l5.55,1.99c0.45,0.16,0.85,0.44,1.14,0.82l5.05,6.36c0.56,0.7,0.71,1.65,0.39,2.49c-0.32,0.84-1.05,1.46-1.93,1.62l-14.75,2.73
					c-1.7,0.52-9.94,2.23-15.89-10.67C43.58,190.89,43.65,190.02,44.04,189.33z"/>
				<path class="st45" d="M75.06,197.01l-17.64,3.01c0,0-5.76-0.77-8.16-4.43c0,0,1.37,7.86,9.51,12.07
					c1.99,1.03,16.53-0.25,16.37-0.09C74.97,207.73,75.06,197.01,75.06,197.01z"/>
			</g>
		</g>
		<g>
			<path class="st46" d="M233.92,283.88c14.98-40.47,14.64-43.56,14.79-45.36c0.35-4.09-0.43-12.23-21.87-36.43
				c-5.45-8.9-12.43-16.86-28.09-16.95l-16.17,12.7l-16.46-12.89c-13.67-0.08-22.49,7.78-29.93,16.9
				c-5.37,5.45-15.4,13.94-19.57,17.62c-8.25-5.26-25.64-14.86-39.01-24.92L66.7,209.05c46.94,35.31,47.57,34.96,53.14,34.06
				c3.58-0.58,12.49-4.59,32.25-22.33l1.58-1.62l0.93-2.07c1.78-3.96,4.67-6.61,6.25-6.6l42.87,0.25c1.31,0.01,1.97,0.01,6.98,8.23
				l0.6,0.99l0.77,0.86c5.73,6.43,11.59,13.75,14.24,17.7c-2.22,7.13-5.49,24.57-10.67,38.58L233.92,283.88z"/>
			<g>
				<path class="st47" d="M153.33,257.14l57.35,0.34c0,0,0.68,15.4,4.32,32.69s-17.83,82.15-6.82,194.12l-18.01-0.11l-8.73-131.77
					l-0.43-31.22l-0.8,31.21l-11.57,131.65l-18.01-0.11c8.95-112.28-7.14-174.83-2.94-193.68
					C151.88,271.43,153.33,257.14,153.33,257.14z"/>
				<g>
					<path class="st46" d="M148.22,231.66l-3.27,88.03l71.66,0.43l-0.51-88.05l3.07-21.94c0.11-17.8-7.4-25.09-22.15-25.17
						l-14.16-0.67l-15.01,0.5c-14.74-0.09-22.34,7.11-22.44,24.91L148.22,231.66z"/>
				</g>
				<path class="st48" d="M153.17,284.01l57.35,0.34c0,0,5.76,14.13,9.4,31.43s-11.74,168.51-11.74,168.51l-18.01-0.11l-8.73-131.77
					l-0.51-18.43l-0.72,18.42l-11.57,131.65l-18.01-0.11c0,0-11.37-149.78-7.18-168.63C147.64,296.48,153.17,284.01,153.17,284.01z"
					/>
				<g>
					<polygon class="st49" points="188.94,488.04 241.82,488.36 241.83,486.38 210.01,474.39 188.99,479.39 					"/>
					<polygon class="st49" points="169.83,487.93 118.22,487.62 118.24,485.64 150.2,474.04 169.88,479.27 					"/>
				</g>
			</g>
		</g>
	</g>
	<g>
		<g>
			<path class="st50" d="M155.01,102.92c0.87,0.09,1.74,0.08,2.58-0.05c1.65-1.43,3.54-2.69,5.73-3.63
				c0.29-0.13,0.61-0.24,0.94-0.36c0.77-1.02,1.36-2.2,1.71-3.51c2.35-8.88,11.46-14.17,20.34-11.81
				c6.89,1.83,11.6,7.73,12.27,14.44c1.11,0.22,2.03,0.45,2.71,0.71c7.16,2.73,10.01,5.26,13.17,12.52
				c1.83,4.21,1.68,13.04,1.68,13.04c-0.02,3.63-2.82,19.35-6.16,19.33l-54.37-0.32c-2.94-0.02-5.31-12.24-5.82-17.63
				c-0.3-0.33-0.59-0.67-0.88-1.01C148.1,117.11,151.83,109.71,155.01,102.92z"/>
			<g>
				<path class="st50" d="M209.64,147.61c3.72,0.53,5.85-11.35,5.85-11.35c0.43-3.04,0.41-5.99-3.32-6.52l0,0L209.64,147.61z"/>
				<path class="st50" d="M155.49,147.33c-3.73,0.43-5.56-11.5-5.56-11.5c-0.35-3.05-0.25-6,3.48-6.43l0,0L155.49,147.33z"/>
			</g>
			<g>
				<path class="st50" d="M181.67,173.88c-10.55-0.06-27.89-23.94-27.82-34.88l0.19-16.07c0.06-10.94,11.54-16.96,22.09-16.9
					l13.57,0.08c10.55,0.06,21.95,6.22,21.89,17.16l-0.01,16.07c-0.06,10.94-17.69,34.61-28.23,34.55L181.67,173.88"/>
				<path class="st51" d="M152.76,141.55c-0.06,10.94,17.94,32.26,28.88,32.33l1.73,0.01c10.94,0.06,29.2-21.04,29.26-31.98
					l1.35-18.62c0.06-10.94-13.04-26.06-23.98-26.13l-14.07-0.08c-10.94-0.06-24.22,14.9-24.29,25.84L152.76,141.55z"/>
			</g>
			<g>
				<g>
					<path class="st50" d="M191.72,153.52c-1.13,3.68-4.81,8.93-9.15,8.9c-4.34-0.03-7.96-5.32-9.05-9.01
						c2.13,1.56,5.41,1.29,9.09,1.31C186.3,154.74,189.58,155.05,191.72,153.52z"/>
				</g>
				<g>
					<g>
						<path class="st50" d="M200.71,132.45c-0.24,0-0.47-0.14-0.57-0.37c-0.92-2.05-1.82-2.65-4-2.66c-0.02,0-0.05,0-0.07,0
							c-2.15,0-3.08,0.62-3.95,2.6c-0.14,0.32-0.51,0.46-0.83,0.32c-0.32-0.14-0.46-0.51-0.32-0.83c1.07-2.44,2.46-3.35,5.11-3.35
							c0.02,0,0.05,0,0.07,0c2.67,0.02,4.02,0.91,5.14,3.41c0.14,0.32,0,0.69-0.32,0.83C200.88,132.44,200.8,132.45,200.71,132.45z"
							/>
					</g>
					<g>
						<path class="st50" d="M173.97,132.29c-0.25,0-0.48-0.15-0.58-0.39c-0.82-1.99-1.79-2.63-3.99-2.65c-0.02,0-0.05,0-0.07,0
							c-2.13,0-3.02,0.6-3.96,2.61c-0.14,0.32-0.52,0.45-0.83,0.31c-0.32-0.14-0.45-0.52-0.31-0.83c1.15-2.48,2.48-3.36,5.18-3.34
							c2.73,0.02,4.12,0.94,5.14,3.42c0.13,0.32-0.02,0.69-0.34,0.82C174.13,132.28,174.05,132.29,173.97,132.29z"/>
					</g>
				</g>
			</g>
			<path class="st50" d="M186.76,149.3c0.01-1.34-1.81-2.44-4.05-2.45c-2.25-0.01-4.07,1.06-4.08,2.41"/>
		</g>
		<g>
			<path class="st52" d="M155.01,102.92c0.87,0.09,1.74,0.08,2.58-0.05c1.65-1.43,3.54-2.69,5.73-3.63
				c0.29-0.13,0.61-0.24,0.94-0.36c0.77-1.02,1.36-2.2,1.71-3.51c2.35-8.88,11.46-14.17,20.34-11.81
				c6.89,1.83,11.6,7.73,12.27,14.44c1.11,0.22,2.03,0.45,2.71,0.71c7.16,2.73,10.01,5.26,13.17,12.52
				c1.83,4.21,1.68,13.04,1.68,13.04c-0.02,3.63-2.82,19.35-6.16,19.33l-54.37-0.32c-2.94-0.02-5.31-12.24-5.82-17.63
				c-0.3-0.33-0.59-0.67-0.88-1.01C148.1,117.11,151.83,109.71,155.01,102.92z"/>
			<g>
				<path class="st53" d="M209.64,147.61c3.72,0.53,5.85-11.35,5.85-11.35c0.43-3.04,0.41-5.99-3.32-6.52l0,0L209.64,147.61z"/>
				<path class="st53" d="M155.49,147.33c-3.73,0.43-5.56-11.5-5.56-11.5c-0.35-3.05-0.25-6,3.48-6.43l0,0L155.49,147.33z"/>
			</g>
			<g>
				<path class="st43" d="M181.67,173.88c-10.55-0.06-27.89-23.94-27.82-34.88l0.19-16.07c0.06-10.94,11.54-16.96,22.09-16.9
					l13.57,0.08c10.55,0.06,21.95,6.22,21.89,17.16l-0.01,16.07c-0.06,10.94-17.69,34.61-28.23,34.55L181.67,173.88"/>
				<path class="st44" d="M152.76,141.55c-0.06,10.94,17.94,32.26,28.88,32.33l1.73,0.01c10.94,0.06,29.2-21.04,29.26-31.98
					l1.35-18.62c0.06-10.94-13.04-26.06-23.98-26.13l-14.07-0.08c-10.94-0.06-24.22,14.9-24.29,25.84L152.76,141.55z"/>
			</g>
			<g>
				<g>
					<path class="st54" d="M191.72,153.52c-1.13,3.68-4.81,8.93-9.15,8.9c-4.34-0.03-7.96-5.32-9.05-9.01
						c2.13,1.56,5.41,1.29,9.09,1.31C186.3,154.74,189.58,155.05,191.72,153.52z"/>
				</g>
				<g>
					<g>
						<path class="st55" d="M200.71,132.45c-0.24,0-0.47-0.14-0.57-0.37c-0.92-2.05-1.82-2.65-4-2.66c-0.02,0-0.05,0-0.07,0
							c-2.15,0-3.08,0.62-3.95,2.6c-0.14,0.32-0.51,0.46-0.83,0.32c-0.32-0.14-0.46-0.51-0.32-0.83c1.07-2.44,2.46-3.35,5.11-3.35
							c0.02,0,0.05,0,0.07,0c2.67,0.02,4.02,0.91,5.14,3.41c0.14,0.32,0,0.69-0.32,0.83C200.88,132.44,200.8,132.45,200.71,132.45z"
							/>
					</g>
					<g>
						<path class="st55" d="M173.97,132.29c-0.25,0-0.48-0.15-0.58-0.39c-0.82-1.99-1.79-2.63-3.99-2.65c-0.02,0-0.05,0-0.07,0
							c-2.13,0-3.02,0.6-3.96,2.61c-0.14,0.32-0.52,0.45-0.83,0.31c-0.32-0.14-0.45-0.52-0.31-0.83c1.15-2.48,2.48-3.36,5.18-3.34
							c2.73,0.02,4.12,0.94,5.14,3.42c0.13,0.32-0.02,0.69-0.34,0.82C174.13,132.28,174.05,132.29,173.97,132.29z"/>
					</g>
				</g>
			</g>
			<path class="st50" d="M186.76,149.3c0.01-1.34-1.81-2.44-4.05-2.45c-2.25-0.01-4.07,1.06-4.08,2.41"/>
		</g>
	</g>
	<g>
		<polygon class="st56" points="164.13,321.09 162.87,321.07 164.28,191.32 198.1,185.03 198.33,186.26 165.53,192.37 		"/>
	</g>
	<circle class="st57" cx="174.42" cy="205.34" r="3.2"/>
	<circle class="st57" cx="174.3" cy="225.81" r="3.2"/>
	<circle class="st57" cx="196.17" cy="205.47" r="3.2"/>
	<circle class="st57" cx="196.05" cy="225.94" r="3.2"/>
	<circle class="st57" cx="174.18" cy="246.29" r="3.2"/>
	<circle class="st57" cx="195.93" cy="246.41" r="3.2"/>
	<circle class="st57" cx="174.06" cy="266.76" r="3.2"/>
	<circle class="st57" cx="195.83" cy="264.33" r="3.2"/>
	<circle class="st57" cx="196.98" cy="286.09" r="3.2"/>
	<circle class="st57" cx="196.87" cy="304" r="3.2"/>
	<circle class="st57" cx="173.94" cy="287.23" r="3.2"/>
	<circle class="st57" cx="173.83" cy="305.15" r="3.2"/>
	<path class="st58" d="M166.87,184.82c0,0,25.02,2.72,24.66,2.07"/>
	<polygon class="st46" points="151.3,112.43 214,112.8 227.35,19.47 139.06,18.95 	"/>
	
		<rect x="148.79" y="94.7" transform="matrix(-1 -5.939022e-03 5.939022e-03 -1 364.7882 208.4025)" class="st59" width="67.82" height="17.91"/>
	<g>
		<polygon class="st60" points="158.93,92.03 159.27,91.98 149.41,27.94 149.07,27.99 		"/>
	</g>
	<g>
		
			<rect x="147.78" y="58.68" transform="matrix(6.121253e-03 -1 1 6.121253e-03 118.5511 236.9765)" class="st60" width="61.42" height="0.35"/>
	</g>
	<g>
		<polygon class="st60" points="204.5,89.83 204.84,89.89 215.46,25.98 215.11,25.92 		"/>
	</g>
	<path class="st61" d="M195.71,176.67c-3.85,1.26-8.99,6.34-26.88,1.12l-3.92,14.05l16.66-3.74l16.65-2.46L195.71,176.67z"/>
	
		<ellipse transform="matrix(5.939022e-03 -1 1 5.939022e-03 163.5525 201.664)" class="st62" cx="183.21" cy="18.57" rx="5.76" ry="44.15"/>
	<g>
		<ellipse class="st35" cx="57.46" cy="191.39" rx="40.96" ry="9.83"/>
		<ellipse class="st63" cx="57.23" cy="188.93" rx="28.44" ry="6.83"/>
		<ellipse class="st64" cx="57" cy="185.29" rx="28.67" ry="5.92"/>
		
			<rect x="28.33" y="153.89" transform="matrix(-1 -4.488866e-11 4.488866e-11 -1 114.0067 339.6382)" class="st64" width="57.34" height="31.85"/>
		<ellipse class="st65" cx="57" cy="153.44" rx="28.67" ry="5.92"/>
		<path class="st66" d="M83.63,170.83c-0.99,0.07-1.33-2.3-2.22-2.75c-3.21-1.61-4.69,3.56-5.29,5.45
			c-0.48,1.52-0.13,3.22-0.68,4.71c-0.55,1.5-2.86,2.46-3.65,1.07c-0.78-1.39,1-3.4-0.04-4.62c-0.38-0.45-2.61-1.76-3.2-1.8
			c-4.61-0.29-7.45,4.98-7.52,9.61c-0.02,1.06,0.16,2.18-0.28,3.16s-1.84,1.6-2.57,0.83c0.42-2.15,1.28-4.22,1.41-6.41
			c0.19-3.16-1.38-6.5-4.2-7.93s-6.53-0.34-8.26,2.31c-0.45,0.7-0.16,4.08-1.74,3.32c-1.57-0.75,0-4.17-1.72-5.19
			c-1.31-0.78-2.94-0.67-4.46-0.54c-1.54,0.13-3.4,0.5-3.89,1.97c-0.33,0.96,0.11,2,0.24,3.01c0.13,1.01-0.34,2.31-1.36,2.32
			c-0.82,0.01-1.39-0.9-1.4-1.72c-0.01-0.82,0.35-1.6,0.55-2.4c0.36-1.48,0.08-3.2-1.05-4.22c-1.13-1.02-3.17-1-4.02,0.26
			c0.2-0.29-0.35-2.03-0.41-2.42c-0.13-0.88-0.24-1.77-0.29-2.66c-0.09-1.7,0.16-3.33,0.47-4.99c0.02-0.13,0.05-0.26,0.14-0.35
			c0.11-0.12,0.28-0.15,0.43-0.18c0.49-0.09,1.02-0.22,1.31-0.62c1.09-1.47-1.7,4.04-1.56,3.21c0.24-1.44-1.61-8.04,0-9.64
			c1.73-0.51,4.28,0.33,5.97,0.96c2.35,0.87,4.86,1.19,7.35,1.45c10.31,1.07,20.72,1.18,31.05,0.33c3.52-0.29,7.19-0.74,10.15-2.66
			c5.24-3.4,4.26,4.22,4.35,7.58C87.31,164.04,87.98,170.83,83.63,170.83z"/>
		<path class="st66" d="M70.2,150.18c-6.64-0.62-13.33-0.59-20-0.57c-4.48,0.02-9.11,0.07-13.22,1.86
			c-2.66,1.16-5.77,3.03-8.19,1.42c6.77-5.31,16.04-5.76,24.64-5.86c10.2-0.11,23.83-0.57,32.42,5.96
			c-1.23,3.35-3.72,0.76-5.42-0.23C77.39,150.97,73.67,150.5,70.2,150.18z"/>
	</g>
	<path class="st67" d="M76.28,143.18c-0.63-1.04-0.3-2.23,0.34-3.08c0.63-0.87,1.48-1.6,2.42-2.13c0.91-0.5,2.07-1.01,3.09-1.68
		c1.02-0.67,2.11-1.52,2.72-2.95c0.29-0.71,0.38-1.52,0.26-2.3c-0.13-0.79-0.48-1.47-0.86-2.04c-0.79-1.15-1.66-1.93-2.5-2.77
		c-1.7-1.62-3.44-3.07-4.66-4.77c-0.65-0.85-1.11-1.68-1.4-2.62c-0.27-0.94-0.37-1.94-0.26-2.88c0.1-0.94,0.43-1.82,0.99-2.45
		c0.55-0.65,1.33-0.95,2.54-1.45c0.58-0.24,1.24-0.62,1.77-1.13c0.52-0.5,0.93-1.1,1.18-1.74c0.51-1.28,0.58-2.64,0.29-3.9
		c-0.67-2.54-2.53-4.29-4.48-5.53c1.56,1.69,2.96,3.66,3.13,5.76c0.09,1.02-0.11,2.06-0.59,2.89c-0.5,0.85-1.11,1.34-2.09,1.64
		c-0.5,0.17-1.08,0.31-1.72,0.57c-0.65,0.27-1.28,0.71-1.8,1.21c-1.05,1.05-1.62,2.42-1.84,3.76c-0.22,1.35-0.09,2.71,0.26,4
		c0.36,1.3,1.03,2.53,1.77,3.52c1.55,2.03,3.43,3.55,5.12,5.05c0.84,0.74,1.73,1.5,2.29,2.24c0.57,0.75,0.76,1.44,0.56,2.21
		c-0.21,0.77-0.93,1.54-1.76,2.23c-0.84,0.72-1.77,1.26-2.79,2.02c-0.96,0.79-1.79,1.74-2.32,2.87c-0.25,0.57-0.42,1.19-0.39,1.82
		C75.6,142.18,75.87,142.76,76.28,143.18z"/>
	<path class="st67" d="M65.47,138.74c-1.33-0.79-2.69-1.57-3.78-2.58c-0.54-0.51-1.01-1.06-1.28-1.68c-0.28-0.62-0.36-1.3-0.21-1.87
		c0.26-1.18,1.54-1.65,3.03-2.24c0.73-0.3,1.57-0.7,2.27-1.43c0.7-0.71,1.13-1.75,1.17-2.75c0.04-2.03-0.97-3.71-2.24-4.95
		c-1.33-1.24-2.76-1.99-4.18-2.73c-1.41-0.72-2.82-1.31-4.09-2.03c-1.27-0.7-2.37-1.57-3.37-2.54c-0.96-1.01-1.79-2.13-2.4-3.38
		c-0.57-1.27-0.99-2.62-1.19-4.03c-0.43-2.82-0.08-5.79,0.72-8.63c0.38-1.44,0.96-2.8,1.58-4.18c0.63-1.4,1.36-2.87,1.62-4.56
		c0.1-0.85,0.11-1.71-0.19-2.57c-0.28-0.83-0.8-1.54-1.41-2.09c-1.22-1.13-2.95-1.61-4.47-1.27c3.15-0.09,5.72,3.02,4.74,5.67
		c-0.35,1.36-1.13,2.64-1.9,3.98c-0.78,1.37-1.49,2.83-2.02,4.35c-1.13,3.02-1.6,6.33-1.27,9.64c0.17,1.66,0.67,3.29,1.35,4.84
		c0.72,1.54,1.71,2.95,2.88,4.18c1.23,1.16,2.59,2.19,4.05,2.96c1.44,0.77,2.88,1.39,4.25,2.01c1.35,0.62,2.69,1.3,3.67,2.14
		c0.95,0.85,1.68,2.04,1.73,3.14c0.04,1.1-0.69,1.92-2.05,2.58c-0.66,0.35-1.4,0.69-2.13,1.24c-0.73,0.53-1.36,1.44-1.47,2.4
		c-0.23,1.96,1.04,3.53,2.35,4.39C62.55,137.69,64.02,138.22,65.47,138.74z"/>
	<path class="st67" d="M43.78,139.41c-1.13-0.31-2.29-0.63-3.16-1.26c-0.88-0.59-1.33-1.63-1.17-2.49c0.08-0.42,0.27-0.69,0.61-0.88
		c0.35-0.22,0.92-0.36,1.58-0.76c0.68-0.41,1.24-1.2,1.38-2.01c0.16-0.81,0.06-1.59-0.18-2.28c-0.24-0.69-0.61-1.33-1.1-1.88
		c-0.24-0.28-0.54-0.53-0.85-0.75c-0.3-0.2-0.59-0.37-0.89-0.53c-1.21-0.61-2.43-0.91-3.49-1.25c-1.09-0.34-1.96-0.67-2.74-1.27
		c-0.78-0.58-1.45-1.34-1.96-2.2c-1.06-1.69-1.51-3.81-1.15-5.74c0.28-1.93,1.64-3.64,3.15-5.36c0.76-0.86,1.59-1.72,2.33-2.7
		c0.75-0.95,1.43-2.1,1.81-3.28c0.37-1.19,0.56-2.46,0.36-3.7c-0.11-0.62-0.3-1.22-0.61-1.75c-0.33-0.52-0.76-0.96-1.24-1.29
		c0.8,0.88,1.13,2.01,1.09,3.1c-0.04,1.1-0.36,2.16-0.86,3.13c-0.94,1.96-2.72,3.33-4.43,4.98c-1.72,1.58-3.55,3.61-4.17,6.34
		c-0.57,2.66-0.01,5.43,1.36,7.72c0.71,1.13,1.62,2.15,2.73,2.94c1.1,0.81,2.45,1.32,3.61,1.6c1.18,0.3,2.26,0.52,3.16,0.91
		c0.22,0.1,0.44,0.21,0.63,0.33c0.16,0.1,0.33,0.23,0.48,0.37c0.31,0.29,0.58,0.66,0.76,1.05c0.36,0.83,0.33,1.57-0.22,2.03
		c-0.3,0.27-0.87,0.49-1.47,0.95c-0.63,0.46-1.06,1.32-1.04,2.07c-0.01,1.49,0.96,2.76,2.14,3.26
		C41.4,139.35,42.61,139.38,43.78,139.41z"/>
</g>
</svg>
