<?xml version="1.0" encoding="utf-8"?>
<!-- Generator: Adobe Illustrator 23.0.6, SVG Export Plug-In . SVG Version: 6.00 Build 0)  -->
<svg version="1.1" id="Capa_1" xmlns="http://www.w3.org/2000/svg" xmlns:xlink="http://www.w3.org/1999/xlink" x="0px" y="0px"
	 viewBox="0 0 300 500" style="enable-background:new 0 0 300 500;" xml:space="preserve">
<style type="text/css">
	.st0{fill:#363636;}
	.st1{fill:#202020;}
	.st2{fill:#2D363A;}
	.st3{fill:#F1D19E;}
	.st4{fill:#FFFFFF;}
	.st5{fill:#F1D19E;stroke:#272425;stroke-width:0.1206;stroke-miterlimit:10;}
	.st6{fill:#F1F1F1;}
	.st7{fill:#272425;}
	.st8{fill:#1C1A1B;}
	.st9{fill:#1E2528;}
	.st10{fill:#B6B9C1;}
	.st11{fill:#FAF5EB;}
	.st12{fill:#48391D;}
	.st13{display:none;fill:#F1D19E;stroke:#272425;stroke-width:0.1206;stroke-miterlimit:10;}
	.st14{fill:#4C2208;}
	.st15{fill:#884D12;}
	.st16{fill:#583C1C;}
	.st17{fill:#7F6528;}
	.st18{fill:#F5E1C2;}
	.st19{fill:none;}
	.st20{fill:#360000;}
	.st21{fill:#F5E1C2;stroke:#B5966E;stroke-width:0.1184;stroke-miterlimit:10;}
	.st22{fill:#F5E1C2;stroke:#424140;stroke-width:0.1184;stroke-miterlimit:10;}
	.st23{fill:#E0CEAB;stroke:#B5966E;stroke-width:0.1206;stroke-miterlimit:10;}
	.st24{fill:#F5E1C2;stroke:#B5966E;stroke-width:0.1091;stroke-miterlimit:10;}
	.st25{fill:#C09D38;}
	.st26{fill:none;stroke:#7E5E40;stroke-linecap:round;stroke-linejoin:round;stroke-miterlimit:10;}
	.st27{fill:#DD902F;}
	.st28{fill:none;stroke:#815E18;stroke-linecap:round;stroke-miterlimit:10;}
	.st29{fill:#B62228;}
	.st30{fill:#997B55;}
	.st31{fill:#723324;}
	.st32{fill:#E6E6E6;}
	.st33{fill:#7E5E40;}
	.st34{fill:#815E18;}
	.st35{fill:#CACACA;}
	.st36{fill:#333333;}
	.st37{fill:#1A1A1A;}
	.st38{fill:#4D4D4D;}
	.st39{fill:#F0DDC0;}
	.st40{fill:#A2867E;}
	.st41{fill:#040006;}
	.st42{fill:#353745;}
	.st43{fill:#F7E3C4;stroke:#B7986E;stroke-width:0.1184;stroke-miterlimit:10;}
	.st44{display:none;fill:#F3D3A0;stroke:#272425;stroke-width:0.1206;stroke-miterlimit:10;}
	.st45{fill:#F3D3A0;}
	.st46{fill:#D5D6D6;}
	.st47{fill:#744C15;stroke:#272425;stroke-width:0.1206;stroke-miterlimit:10;}
	.st48{display:none;fill:#3E526A;}
	.st49{fill:#203847;}
	.st50{fill:#BC821F;}
	.st51{display:none;fill:#BC821F;}
	.st52{fill:#914310;}
	.st53{fill:#F7E3C4;stroke:#B7986E;stroke-width:0.1091;stroke-miterlimit:10;}
	.st54{fill:#7B0032;}
	.st55{fill:#7F5E40;}
	.st56{fill:#979797;}
	.st57{fill:#B0B0B0;stroke:#7F7F7F;stroke-width:0.25;stroke-miterlimit:10;}
	.st58{fill:none;stroke:#979797;stroke-miterlimit:10;}
	.st59{fill:#BCBA9A;stroke:#7F7F7F;stroke-width:0.25;stroke-miterlimit:10;}
	.st60{fill:#7F7F7F;}
	.st61{fill:#5888A7;stroke:#7F7F7F;stroke-width:0.25;stroke-miterlimit:10;}
	.st62{fill:#C8C8C8;stroke:#7F7F7F;stroke-width:0.25;stroke-miterlimit:10;}
	.st63{fill:#B0B0B0;}
	.st64{fill:#B67849;}
	.st65{fill:#7F5032;}
	.st66{fill:#4C3018;}
	.st67{fill:#C4C4C4;}
	.st68{fill:#A52B31;}
	.st69{fill:#1C2853;}
	.st70{fill:#F8F8F8;}
	.st71{fill:#81D646;}
	.st72{fill:#DEC69A;}
	.st73{fill:#DB391D;}
	.st74{fill:#8F673C;}
	.st75{opacity:0.35;}
	.st76{fill:#6FB353;}
	.st77{opacity:0.7;}
	.st78{fill:#DDC092;}
	.st79{fill:url(#);}
	.st80{fill:#754C24;}
	.st81{fill:#243B56;}
	.st82{fill:#CEAE7E;}
	.st83{fill:#EFDE96;}
	.st84{fill:#E0C9A7;stroke:#B9926A;stroke-width:0.1206;stroke-miterlimit:10;}
	.st85{fill:#F1DDBE;stroke:#B9926A;stroke-width:0.1184;stroke-miterlimit:10;}
	.st86{fill:#040006;stroke:#221D1F;stroke-width:0.1206;stroke-miterlimit:10;}
	.st87{fill:#1F1F1F;}
	.st88{fill:#7D1C7C;}
	.st89{fill:#393A3A;}
	.st90{fill:#414040;}
	.st91{fill:#F1DDBE;stroke:#B9926A;stroke-width:0.1091;stroke-miterlimit:10;}
	.st92{fill:#871830;}
	.st93{fill:#D68A2D;}
	.st94{fill:#845C3B;}
	.st95{fill:#F1DDBE;}
	.st96{fill:#F2DEBF;stroke:#B9926A;stroke-width:0.1184;stroke-miterlimit:10;}
	.st97{fill:#696A69;}
	.st98{fill:#8F8F8F;}
	.st99{fill:#7E7F7F;}
	.st100{fill:#BDBDBC;}
	.st101{fill:#F4EEAA;}
	.st102{fill:#585756;}
	.st103{fill:#757474;}
	.st104{fill:#9E9F9F;}
	.st105{opacity:0.43;fill:#9E9F9F;}
	.st106{fill:#7A7D80;}
	.st107{fill:#636569;}
	.st108{fill:none;stroke:#B9926A;stroke-width:0.1184;stroke-miterlimit:10;}
	.st109{fill:#EBCC99;}
	.st110{fill:#C9C9C9;}
	.st111{fill:#181718;}
	.st112{fill:#716557;}
	.st113{fill:#DDBE92;stroke:#221D1F;stroke-width:0.0958;stroke-miterlimit:10;}
	.st114{fill:#070208;}
	.st115{display:none;fill:#EBCC99;stroke:#221D1F;stroke-width:0.0958;stroke-miterlimit:10;}
	.st116{fill:#ECCCA9;}
	.st117{fill:#531B13;}
	.st118{fill:#924B1D;}
	.st119{fill:#5E3818;}
	.st120{fill:#3E3E3E;}
	.st121{fill:#A07A30;}
	.st122{fill:#DCE3E8;}
	.st123{fill:#C85A25;}
	.st124{fill:url(#SVGID_1_);}
	.st125{fill:#969696;}
	.st126{fill:#C35326;}
	.st127{fill:#B2CC92;}
	.st128{fill:#9A3A1D;}
	.st129{fill:#9BBD75;}
	.st130{fill:url(#SVGID_2_);}
	.st131{fill:url(#SVGID_3_);}
	.st132{fill:#DEBC74;}
	.st133{fill:#BFCF64;}
	.st134{clip-path:url(#SVGID_8_);}
	.st135{fill-rule:evenodd;clip-rule:evenodd;fill:#4D4D4D;}
	.st136{fill:#83632F;}
	.st137{fill-rule:evenodd;clip-rule:evenodd;fill:#B3B3B3;}
	.st138{fill-rule:evenodd;clip-rule:evenodd;fill:#666666;}
	.st139{fill-rule:evenodd;clip-rule:evenodd;fill:#333333;}
	.st140{fill-rule:evenodd;clip-rule:evenodd;fill:url(#SVGID_9_);}
	.st141{fill-rule:evenodd;clip-rule:evenodd;fill:#5B5A5C;}
	.st142{fill-rule:evenodd;clip-rule:evenodd;fill:url(#SVGID_10_);}
	.st143{fill-rule:evenodd;clip-rule:evenodd;fill:#474846;}
	.st144{opacity:0.5;fill-rule:evenodd;clip-rule:evenodd;fill:#F2F2F2;}
	.st145{fill:url(#SVGID_11_);}
	.st146{fill:url(#SVGID_12_);}
	.st147{fill:url(#SVGID_13_);}
	.st148{fill:url(#SVGID_14_);}
	.st149{fill:url(#SVGID_15_);}
	.st150{fill:url(#SVGID_16_);}
	.st151{fill:url(#SVGID_17_);}
	.st152{fill:url(#SVGID_18_);}
	.st153{fill:url(#SVGID_19_);}
	.st154{fill:url(#SVGID_20_);}
	.st155{opacity:0.5;fill-rule:evenodd;clip-rule:evenodd;fill:#4D4D4D;}
	.st156{opacity:0.2;fill-rule:evenodd;clip-rule:evenodd;fill:#887B9B;}
	.st157{opacity:0.3;fill-rule:evenodd;clip-rule:evenodd;fill:#887B9B;}
	.st158{opacity:0.2;fill-rule:evenodd;clip-rule:evenodd;fill:#333333;}
	.st159{fill-rule:evenodd;clip-rule:evenodd;fill:#808080;}
	.st160{fill:url(#SVGID_21_);}
	.st161{fill:url(#SVGID_22_);}
	.st162{fill:url(#SVGID_23_);}
	.st163{fill:url(#SVGID_24_);}
	.st164{fill:url(#SVGID_25_);}
	.st165{fill:url(#SVGID_26_);}
	.st166{fill:url(#SVGID_27_);}
	.st167{fill:url(#SVGID_28_);}
	.st168{fill:url(#SVGID_29_);}
	.st169{fill:url(#SVGID_30_);}
	.st170{opacity:0.2;fill-rule:evenodd;clip-rule:evenodd;fill:#4D4D4D;}
	.st171{fill-rule:evenodd;clip-rule:evenodd;fill:#E6E6E6;}
	.st172{fill-rule:evenodd;clip-rule:evenodd;fill:url(#SVGID_31_);}
	.st173{fill-rule:evenodd;clip-rule:evenodd;fill:#9E7537;}
	.st174{fill-rule:evenodd;clip-rule:evenodd;fill:#999999;}
	.st175{fill-rule:evenodd;clip-rule:evenodd;fill:url(#SVGID_32_);}
	.st176{fill:#9E7537;}
	.st177{fill:url(#SVGID_33_);}
	.st178{fill:#808080;}
	.st179{fill-rule:evenodd;clip-rule:evenodd;fill:none;}
	.st180{clip-path:url(#SVGID_8_);fill:#7A7A7A;}
	.st181{clip-path:url(#SVGID_8_);fill:#4D4D4D;}
	.st182{opacity:0.2;clip-path:url(#SVGID_8_);fill:#4D4D4D;}
	.st183{clip-path:url(#SVGID_8_);fill-rule:evenodd;clip-rule:evenodd;fill:#B3B3B3;}
	.st184{clip-path:url(#SVGID_8_);fill-rule:evenodd;clip-rule:evenodd;fill:#4D4D4D;}
	
		.st185{clip-path:url(#SVGID_8_);fill-rule:evenodd;clip-rule:evenodd;fill:none;stroke:url(#SVGID_34_);stroke-width:0.75;stroke-miterlimit:10;}
	
		.st186{clip-path:url(#SVGID_8_);fill-rule:evenodd;clip-rule:evenodd;fill:none;stroke:url(#SVGID_35_);stroke-width:0.5;stroke-miterlimit:10;}
	
		.st187{clip-path:url(#SVGID_8_);fill-rule:evenodd;clip-rule:evenodd;fill:none;stroke:url(#SVGID_36_);stroke-width:0.75;stroke-miterlimit:10;}
	.st188{clip-path:url(#SVGID_8_);fill:#83632F;}
	
		.st189{clip-path:url(#SVGID_8_);fill-rule:evenodd;clip-rule:evenodd;fill:none;stroke:url(#SVGID_37_);stroke-width:0.75;stroke-miterlimit:10;}
	
		.st190{clip-path:url(#SVGID_8_);fill-rule:evenodd;clip-rule:evenodd;fill:none;stroke:url(#SVGID_38_);stroke-width:0.5;stroke-miterlimit:10;}
	.st191{fill:#E8C78F;}
	.st192{fill:#A38F69;}
	.st193{fill:#C3C09A;}
	.st194{fill:#EFDEC5;}
	.st195{fill:#827455;}
	.st196{fill:#C9D5D7;}
	.st197{fill:#BAD9DA;}
	.st198{fill:#DEEADE;}
	.st199{fill:#CCAF80;}
	.st200{fill:#B49D73;}
	.st201{fill:#8F7E5C;}
	.st202{fill:#B09970;}
	.st203{fill:#747373;}
	.st204{fill:#C0C0C0;}
	.st205{fill:#8C8C8B;}
	.st206{fill:#6B6B6A;}
	.st207{fill:#B1251E;}
	.st208{fill:#6AA745;}
	.st209{fill:#B1BDBF;}
	.st210{fill:none;stroke:#FFFFFF;stroke-width:6;stroke-miterlimit:10;}
	.st211{fill:#80623E;}
	.st212{fill:#B56923;}
	.st213{fill:#A25923;}
	.st214{fill:#D47A45;}
	.st215{fill:#9A5621;}
	.st216{fill:#DA8C4A;}
	.st217{fill:#C0A67A;}
	.st218{fill:#988562;}
	.st219{fill:#7D6E51;}
	.st220{fill:#487134;}
	.st221{fill:#CECECE;}
	.st222{fill:#EFDCB1;}
	.st223{fill:#C8304E;}
</style>
<g>
	<path class="st92" d="M85.18,69.68c-4.95-2.57-10.75-3.47-16.25-2.54c0.81,4.4,1.91,8.76,3.28,13.02
		c8.27-5.92,15.57-6.57,14.83-18.62c-0.61-9.97-6.73-6.6-12.42-1.44C77.08,63.05,81.73,67.88,85.18,69.68z"/>
	<g>
		<g>
			<g>
				<g>
					<g>
						<g>
							<path class="st109" d="M29.25,291.38c-0.8,0-1.59-0.37-2.1-1.07c-8.4-11.65-2.81-18.05-1.51-19.3l9.73-11.64
								c0.58-0.7,1.48-1.04,2.38-0.9c0.9,0.14,1.66,0.74,2,1.58l3.1,7.61c0.18,0.45,0.24,0.94,0.15,1.41L42,274.95
								c-0.24,1.41-1.58,2.35-2.99,2.11c-1.41-0.24-2.35-1.58-2.11-2.99l0.88-5.15l-1.2-2.94l-7.07,8.47
								c-0.11,0.13-0.22,0.24-0.35,0.34c-0.13,0.12-4.06,3.82,2.19,12.48c0.84,1.16,0.57,2.78-0.58,3.61
								C30.31,291.23,29.78,291.38,29.25,291.38z"/>
							<path class="st109" d="M37.89,260.25L26.48,274.3c0,0-2.18,5.46-0.15,9.38c0,0-6.24-5.11-5.9-14.37
								c0.08-2.26,8.42-14.44,8.21-14.37C28.4,255.01,37.89,260.25,37.89,260.25z"/>
						</g>
					</g>
					<g>
						<path class="st110" d="M237.71,178.09l-26.34,35.44l-10.52,11.77c-4.7,5.26-13.03,4.93-17.3-0.68l-30.35-39.91
							c-2.59-4.7-6.29-7.59-8.29-7.59H89.94c-2.86,0-7.84,3.79-9.35,7.11l-0.08,0.17l-37.23,82.82l-18.69-8.99l33.36-84.43
							c4.83-10.5,17.65-21.61,32-21.61h54.98c14.12,0,24.96,10.84,30.39,20.99l0.28,0.55l19.63,25.32l20.24-23.99L237.71,178.09z"/>
						<g>
							<polygon class="st111" points="119.26,283.66 118.02,283.66 116.78,283.66 115.54,283.66 74.21,283.66 87.66,454.09 
								112.34,454.09 116.78,320.93 117.4,302.31 118.02,320.93 122.46,454.09 147.14,454.09 160.59,283.66 							"/>
							<path class="st110" d="M165.02,181.8c0-18-14.55-30.26-31.48-30.26h-33.53c-16.94,0-31.48,12.26-31.48,30.26l1.91,43.13
								c0,1.49,0.14,3.1,0.38,4.78l2.58,63.84h86.75l2.58-63.83c0.24-1.69,0.38-3.3,0.38-4.79L165.02,181.8z"/>
							<g>
								<polygon class="st112" points="112.27,458 54.92,458 54.92,456 87.16,444.07 112.27,449.25 								"/>
								<polygon class="st112" points="122.54,458 179.88,458 179.88,456 147.64,444.07 122.54,449.25 								"/>
							</g>
							<path class="st113" d="M136.73,151.54L136.73,151.54c0-0.71-0.22-1.36-0.59-1.97l-5.65-18.85h-27.42l-5.65,18.85
								c-0.37,0.61-0.59,1.26-0.59,1.97v0l0,0v0c0,10.01,8.93,18.13,19.95,18.13C127.8,169.67,136.73,161.55,136.73,151.54
								L136.73,151.54L136.73,151.54z"/>
						</g>
					</g>
				</g>
			</g>
			<g>
				<g>
					<path class="st109" d="M83.4,116.44c-4.2,0-4.69-13.47-4.69-13.47c0-3.43,0.49-6.69,4.69-6.69l0,0V116.44z"/>
					<path class="st109" d="M150.16,116.44c4.2,0,4.69-13.47,4.69-13.47c0-3.43-0.49-6.69-4.69-6.69l0,0V116.44z"/>
				</g>
				<path class="st114" d="M153.02,103.12c0,3.67-4.27,19.58-7.94,19.58H88.12c-3.67,0-7.94-15.91-7.94-19.58
					c0,0-3.15-25.01-1.29-29.34c1.86-4.33,13.44-21.19,17.95-25.72c4.84-4.86,33.22-5.82,38.55-1.29
					c4.2,3.57,16.21,22.7,18.92,27.02C157.03,78.1,153.02,103.12,153.02,103.12z"/>
				<g>
					<path class="st115" d="M150.16,114.27c0,11.06-15.21,26.27-26.27,26.27h-14.23c-11.06,0-26.27-15.21-26.27-26.27V89.2
						c0-11.06,15.21-26.27,26.27-26.27h14.23c11.06,0,26.27,15.21,26.27,26.27V114.27z"/>
					<path class="st116" d="M150.16,114.27c0,11.06-15.21,26.27-26.27,26.27h-14.23c-11.06,0-26.27-15.21-26.27-26.27V89.2
						c0-11.06,11.33-19.8,22.39-19.8h21.99c11.06,0,22.39,8.74,22.39,19.8V114.27z"/>
				</g>
				<g>
					<path class="st117" d="M107.58,123.78c1.12,3.73,4.81,7.76,9.2,7.76c4.39,0,8.08-4.03,9.2-7.76c-2.16,1.56-5.48,1.27-9.2,1.27
						S109.74,125.34,107.58,123.78z"/>
				</g>
				<path class="st118" d="M112.67,116.42c0-1.36,1.84-2.46,4.11-2.46c2.27,0,4.11,1.1,4.11,2.46"/>
				<g>
					<g>
						<path class="st119" d="M107.9,98.56c-0.36,0-0.65-0.29-0.65-0.65c0-1.11-0.45-2.39-3.99-2.39c-3.54,0-3.99,1.28-3.99,2.39
							c0,0.36-0.29,0.65-0.65,0.65s-0.65-0.29-0.65-0.65c0-2.45,1.78-3.69,5.28-3.69c3.5,0,5.28,1.24,5.28,3.69
							C108.55,98.27,108.26,98.56,107.9,98.56z"/>
					</g>
					<g>
						<path class="st119" d="M134.93,98.56c-0.36,0-0.65-0.29-0.65-0.65c0-1.11-0.45-2.39-3.99-2.39c-3.54,0-3.99,1.28-3.99,2.39
							c0,0.36-0.29,0.65-0.65,0.65s-0.65-0.29-0.65-0.65c0-2.45,1.78-3.69,5.28-3.69c3.51,0,5.28,1.24,5.28,3.69
							C135.58,98.27,135.29,98.56,134.93,98.56z"/>
					</g>
				</g>
			</g>
		</g>
	</g>
	<path class="st92" d="M78.73,73.68c0.37,4.21,0.74,8.43,1.11,12.64c7.1,0.88,13.69-0.54,20.84-0.84
		c15.71-0.66,38.33,0.08,54.18,1.04c2.32,0.14-0.54-12.73-0.54-12.73c-7.52-0.2-24.15,1.87-31.68,1.6
		C118.88,75.26,78.8,74.55,78.73,73.68z"/>
	<g>
		<path class="st110" d="M96.03,151.53c0,0,25.3,16.29,43.84,5.68l-9.57,126.45"/>
		<path class="st111" d="M130.93,293.6l-1.27-0.1l9.48-135.17c-18.56,9.53-43.21-6.1-43.46-6.26l0.69-1.07
			c0.25,0.16,25.19,15.95,43.18,5.67l1.04-0.6L130.93,293.6z"/>
	</g>
	<circle class="st111" cx="104.46" cy="184.65" r="1.63"/>
	<circle class="st111" cx="126.42" cy="184.65" r="1.63"/>
	<circle class="st111" cx="104.46" cy="217.42" r="1.63"/>
	<circle class="st111" cx="126.42" cy="217.42" r="1.63"/>
	<circle class="st111" cx="104.46" cy="250.19" r="1.63"/>
	<circle class="st111" cx="126.42" cy="250.19" r="1.63"/>
	<path class="st120" d="M105.45,122.88c0.33-0.31,0.72-0.57,1.14-0.75c-0.73,0.5-1.32,1.18-1.72,1.97c0.69-0.85,1.6-1.53,2.61-1.94
		c-0.67,0.51-1.23,1.17-1.62,1.91c0.61-0.65,1.38-1.14,2.23-1.41c-0.43,0.58-0.89,1.14-1.37,1.68c0.78-1.1,2-1.82,3.26-2.31
		c1.26-0.49-1.37-1.4-2.01-1.27C106.87,120.97,106.2,122.17,105.45,122.88z"/>
	<path class="st120" d="M128.2,122.78c-0.33-0.31-0.72-0.57-1.14-0.75c0.73,0.5,1.32,1.18,1.72,1.97c-0.69-0.85-1.6-1.53-2.61-1.94
		c0.67,0.51,1.23,1.17,1.62,1.91c-0.61-0.65-1.38-1.14-2.23-1.41c0.43,0.58,0.89,1.14,1.37,1.68c-0.78-1.1-2-1.82-3.26-2.31
		c-1.26-0.49,1.37-1.4,2.01-1.27C126.78,120.87,127.45,122.07,128.2,122.78z"/>
	<path class="st120" d="M120.4,136.24c0.05,3.08,0.03,6.16-0.06,9.24c-0.35-1.53-0.7-3.05-1.05-4.58c-0.38,1.15-0.53,2.38-0.44,3.59
		c-0.29-1.54-0.58-3.09-0.87-4.63c-0.18,1.36-0.35,2.72-0.53,4.08c-0.01-1.24-0.16-2.49-0.45-3.7c-0.21,1.69-0.5,3.37-0.89,5.04
		c-0.08-1.62-0.17-3.24-0.25-4.87c-0.28,1.51-0.57,3.01-0.85,4.52c-0.12-1.59-0.15-3.18-0.1-4.77c-0.23,1.39-0.47,2.78-0.7,4.17
		c-0.13-1.49-0.5-6.48,0.8-7.56C115.29,136.53,120.42,137.47,120.4,136.24z"/>
	<path class="st109" d="M221.2,177.73c1.47,0.48,3.04,0.66,4.6,0.79c1.97,0.17,3.95,0.29,5.93,0.35c2.73,0.09,5.56,0.05,7.99-0.95
		s4.32-3.21,3.87-5.52c-5.52-1.13-11.21-0.05-16.84-0.32c-2.33-0.11-10.4-2.26-11.91-0.4C213.06,173.84,219.3,177.1,221.2,177.73z"
		/>
	<polygon class="st121" points="282,174.14 196.14,174.14 204.88,162.81 269.9,163.07 	"/>
	<g>
		<path class="st122" d="M216.17,168.94c-0.48-0.04-0.98-0.11-1.39-0.37c-0.29-0.19-0.51-0.48-0.69-0.78
			c-1.05-1.82-1.08-4.42-0.19-6.35c1.04-2.25,3.9-3.08,6.22-2.81c3.37,0.4,4.5,2.72,5.02,5.79c0.13,0.77,0.26,1.53,0.39,2.3
			c0.35,2.1-0.99,2.37-2.73,2.34C220.59,169.01,218.39,169.14,216.17,168.94z"/>
		<path class="st41" d="M213.35,167.39c-0.34-0.67-0.48-1.42-0.58-2.16c-0.23-1.72-0.5-3.72,0.16-5.38c1.12-2.83,4.4-4.23,7.23-3.54
			c3.04,0.74,5.39,4.29,5.69,7.28c0.12,1.23,0.06,2.45-0.15,3.67c-0.08,0.48-0.17,1.17-0.7,1.4c0.27-0.67,0.41-1.21,0.42-1.93
			c0-0.45-0.07-1.02-0.18-1.45c-0.18-0.71-0.19-1.45-0.42-2.15c-0.42-1.29-0.96-2.62-2.03-3.46c-0.49-0.38-1.06-0.64-1.65-0.82
			c-2.07-0.61-4.42-0.17-6.12,1.16c-0.35,0.27-0.68,0.59-0.91,0.97c-0.41,0.69-0.44,1.54-0.46,2.34c-0.02,0.6-0.03,1.2-0.05,1.8
			c-0.01,0.27-0.01,0.54,0.06,0.79c0.07,0.22,0.19,0.41,0.28,0.62c0.36,0.79,0.45,1.59,0.96,2.29
			C214.22,168.69,213.65,167.98,213.35,167.39z"/>
		<path class="st123" d="M220.5,163.79c0.05-0.01,0.1-0.02,0.14-0.06c0.07-0.08,0.03-0.2-0.02-0.29c-0.25-0.44-0.6-0.88-0.56-1.38
			c0.01-0.12,0.04-0.24,0.02-0.36c-0.02-0.1-0.09-0.19-0.17-0.27c-0.36-0.38-0.87-0.58-1.36-0.76c-0.15-0.06-0.3-0.11-0.45-0.13
			c-0.25-0.03-0.49,0.03-0.73,0.1c-0.11,0.03-0.23,0.06-0.31,0.15c-0.1,0.1-0.12,0.24-0.15,0.38c-0.12,0.74-0.2,1.49-0.25,2.24
			c-0.06,1.01,0.33,0.99,1.19,0.87C218.73,164.15,219.62,163.99,220.5,163.79z"/>
		
			<linearGradient id="SVGID_1_" gradientUnits="userSpaceOnUse" x1="-97.4176" y1="287.315" x2="-91.0566" y2="287.315" gradientTransform="matrix(0.9984 0.0564 -0.0564 0.9984 328.7937 -115.8773)">
			<stop  offset="6.968436e-03" style="stop-color:#ECE144"/>
			<stop  offset="0.6998" style="stop-color:#63A24A"/>
			<stop  offset="0.9839" style="stop-color:#63A24A"/>
		</linearGradient>
		<path class="st124" d="M215.62,166.13c-0.24,0.3-0.53,0.72-0.29,1.03c0.09,0.12,0.24,0.17,0.38,0.21
			c0.71,0.21,1.49,0.19,2.19-0.05c0.42-0.15,0.84-0.37,1.27-0.3c0.29,0.05,0.55,0.22,0.84,0.26c0.58,0.08,1.09-0.38,1.37-0.89
			c0.21-0.38,0.34-0.82,0.31-1.25c-0.03-0.43-0.24-0.87-0.61-1.11c-0.64-0.43-1.49-0.17-2.24,0c-0.41,0.09-0.83,0.15-1.25,0.17
			c-0.27,0.02-0.84-0.1-1.05,0.06c-0.16,0.13-0.27,0.78-0.37,0.99C216.02,165.57,215.83,165.86,215.62,166.13z"/>
		<path class="st125" d="M219.44,161.12c0.17,0.1,0.34,0.23,0.45,0.39c0.28,0.43,0.1,1.02,0.29,1.5c0.23,0.59,0.95,0.85,1.29,1.38
			c0.39,0.6,0.23,1.42-0.12,2.04c0.45-0.08,0.96-0.21,1.15-0.62c0.1-0.21,0.09-0.45,0.07-0.68c-0.07-1.03-0.27-2.06-0.59-3.05
			c-0.23-0.71-0.55-1.1-1.2-1.46c-0.46-0.25-0.94-0.66-1.43-0.83c-0.35-0.13-1.4-0.18-1.47,0.35
			C217.81,160.66,219.1,160.91,219.44,161.12z"/>
	</g>
	<g>
		<path class="st122" d="M259.23,167.07c-0.4-0.07-0.81-0.16-1.13-0.41c-0.23-0.18-0.39-0.44-0.51-0.7
			c-0.74-1.59-0.57-3.74,0.32-5.27c1.03-1.78,3.48-2.26,5.39-1.86c2.78,0.58,3.55,2.6,3.75,5.17c0.05,0.64,0.1,1.29,0.15,1.93
			c0.14,1.76-1,1.89-2.45,1.73C262.91,167.46,261.06,167.41,259.23,167.07z"/>
		<path class="st41" d="M256.99,165.57c-0.23-0.58-0.3-1.21-0.32-1.83c-0.06-1.44-0.14-3.12,0.53-4.44
			c1.15-2.26,3.98-3.17,6.29-2.38c2.47,0.84,4.17,3.96,4.19,6.45c0.01,1.02-0.13,2.03-0.4,3.02c-0.1,0.39-0.23,0.96-0.68,1.11
			c0.27-0.53,0.43-0.97,0.49-1.57c0.04-0.37,0.02-0.85-0.04-1.21c-0.09-0.6-0.05-1.22-0.19-1.81c-0.25-1.1-0.6-2.24-1.43-3.02
			c-0.38-0.35-0.83-0.61-1.32-0.8c-1.68-0.66-3.67-0.47-5.19,0.49c-0.31,0.2-0.61,0.43-0.83,0.74c-0.39,0.54-0.48,1.24-0.56,1.9
			c-0.06,0.49-0.12,0.99-0.18,1.48c-0.03,0.22-0.05,0.44-0.01,0.66c0.04,0.18,0.13,0.35,0.19,0.53c0.24,0.68,0.26,1.35,0.63,1.97
			C257.62,166.71,257.2,166.08,256.99,165.57z"/>
		<path class="st126" d="M262.74,163.93c0.03,0.03,0.07,0.05,0.11,0.06c0.09,0.01,0.14-0.09,0.17-0.17
			c0.15-0.39,0.24-0.85,0.58-1.09c0.08-0.06,0.18-0.1,0.24-0.18c0.05-0.07,0.07-0.16,0.08-0.25c0.05-0.44-0.1-0.87-0.24-1.28
			c-0.04-0.12-0.09-0.25-0.16-0.36c-0.11-0.17-0.29-0.3-0.45-0.42c-0.08-0.06-0.16-0.12-0.26-0.12c-0.11-0.01-0.22,0.05-0.32,0.11
			c-0.54,0.32-1.06,0.67-1.56,1.03c-0.68,0.5-0.45,0.74,0.08,1.23C261.56,162.98,262.14,163.47,262.74,163.93z"/>
		<path class="st127" d="M258.98,162.52c-0.31,0.02-0.72,0.08-0.8,0.38c-0.03,0.11,0,0.23,0.04,0.33c0.2,0.51,0.59,0.94,1.08,1.21
			c0.29,0.16,0.64,0.27,0.8,0.56c0.11,0.19,0.12,0.43,0.23,0.61c0.22,0.37,0.77,0.41,1.23,0.3c0.34-0.08,0.69-0.24,0.95-0.49
			c0.26-0.25,0.44-0.59,0.42-0.93c-0.03-0.59-0.6-0.93-1.07-1.26c-0.25-0.18-0.49-0.39-0.71-0.61c-0.14-0.14-0.34-0.53-0.54-0.56
			c-0.16-0.02-0.63,0.26-0.81,0.32C259.54,162.44,259.26,162.5,258.98,162.52z"/>
		<path class="st125" d="M263.87,161.83c0.02,0.17,0.04,0.34-0.01,0.5c-0.12,0.41-0.6,0.61-0.81,0.98
			c-0.25,0.46-0.03,1.06-0.19,1.57c-0.17,0.57-0.78,0.9-1.37,1.01c0.29,0.24,0.65,0.5,1.01,0.41c0.18-0.05,0.33-0.18,0.47-0.31
			c0.62-0.6,1.17-1.27,1.63-2c0.33-0.53,0.41-0.94,0.28-1.55c-0.09-0.43-0.08-0.95-0.24-1.37c-0.11-0.29-0.63-1-1.01-0.76
			C263.29,160.54,263.82,161.5,263.87,161.83z"/>
	</g>
	<g>
		<path class="st122" d="M247.99,168.17c-0.39-0.07-0.79-0.16-1.1-0.4c-0.22-0.18-0.38-0.42-0.5-0.68
			c-0.72-1.55-0.55-3.64,0.31-5.13c1-1.73,3.38-2.2,5.24-1.81c2.71,0.57,3.45,2.53,3.65,5.04c0.05,0.63,0.1,1.25,0.15,1.88
			c0.14,1.72-0.97,1.84-2.38,1.68C251.57,168.55,249.77,168.5,247.99,168.17z"/>
		<path class="st41" d="M245.81,166.71c-0.23-0.56-0.29-1.18-0.31-1.79c-0.06-1.41-0.13-3.04,0.52-4.32
			c1.12-2.2,3.87-3.08,6.12-2.32c2.41,0.82,4.06,3.85,4.08,6.28c0.01,1-0.13,1.98-0.38,2.94c-0.1,0.38-0.22,0.93-0.67,1.08
			c0.26-0.52,0.42-0.95,0.48-1.52c0.04-0.36,0.02-0.82-0.04-1.18c-0.09-0.58-0.05-1.18-0.18-1.76c-0.24-1.07-0.59-2.18-1.39-2.94
			c-0.37-0.34-0.81-0.59-1.28-0.78c-1.63-0.65-3.57-0.46-5.05,0.48c-0.31,0.19-0.6,0.42-0.81,0.72c-0.38,0.53-0.47,1.21-0.55,1.85
			c-0.06,0.48-0.11,0.96-0.17,1.44c-0.03,0.21-0.05,0.43-0.01,0.64c0.04,0.18,0.12,0.34,0.19,0.52c0.24,0.66,0.25,1.31,0.61,1.92
			C246.43,167.82,246.01,167.21,245.81,166.71z"/>
		<path class="st128" d="M249.88,163.06c-0.05,0.01-0.1,0.02-0.14,0.03c-0.91,0.16-1.46,0.73-1.66,1.61
			c-0.25,1.14,1.28,1.29,2.06,1.38c0.67,0.08,0.95-0.27,0.93-0.9c-0.02-0.47,0.1-1.83-0.19-2.19c0,0,0,0,0,0
			c-0.3-0.35-1.86,0.33-2.19,0.51c-0.37,0.2-0.71,0.5-0.88,0.89c0.29-0.35,0.63-0.46,0.92-0.81c0.07-0.08,0.17-0.17,0.27-0.14"/>
		<path class="st129" d="M252.41,167.12c0.23,0.22,0.54,0.48,0.81,0.31c0.1-0.07,0.16-0.18,0.2-0.29c0.22-0.56,0.26-1.19,0.12-1.78
			c-0.09-0.35-0.24-0.71-0.15-1.06c0.06-0.23,0.22-0.43,0.27-0.66c0.11-0.46-0.23-0.91-0.62-1.18c-0.29-0.2-0.63-0.34-0.99-0.34
			c-0.35-0.01-0.72,0.13-0.94,0.41c-0.39,0.49-0.24,1.2-0.17,1.82c0.04,0.34,0.06,0.68,0.05,1.02c-0.01,0.22-0.15,0.68-0.03,0.85
			c0.09,0.14,0.61,0.27,0.77,0.37C251.98,166.75,252.21,166.92,252.41,167.12z"/>
		<path class="st125" d="M248.66,163.65c0.1-0.13,0.21-0.26,0.35-0.33c0.37-0.2,0.83,0,1.23-0.12c0.49-0.14,0.75-0.71,1.21-0.95
			c0.51-0.28,1.16-0.08,1.64,0.25c-0.03-0.37-0.1-0.79-0.42-0.98c-0.16-0.09-0.35-0.1-0.54-0.11c-0.84-0.02-1.68,0.07-2.5,0.25
			c-0.59,0.13-0.93,0.37-1.26,0.87c-0.24,0.36-0.6,0.71-0.78,1.1c-0.13,0.28-0.25,1.12,0.17,1.21
			C248.17,164.94,248.47,163.91,248.66,163.65z"/>
	</g>
	<g>
		<path class="st122" d="M236.31,169.3c-0.37-0.07-0.76-0.15-1.05-0.39c-0.21-0.17-0.36-0.41-0.48-0.65
			c-0.69-1.49-0.53-3.5,0.3-4.93c0.96-1.66,3.25-2.11,5.04-1.74c2.6,0.55,3.32,2.43,3.51,4.84c0.05,0.6,0.09,1.2,0.14,1.81
			c0.13,1.65-0.94,1.76-2.29,1.62C239.75,169.67,238.03,169.62,236.31,169.3z"/>
		<path class="st41" d="M234.22,167.9c-0.22-0.54-0.28-1.13-0.3-1.72c-0.06-1.35-0.13-2.92,0.5-4.15c1.07-2.11,3.72-2.96,5.88-2.23
			c2.31,0.78,3.9,3.7,3.92,6.03c0.01,0.96-0.12,1.9-0.37,2.83c-0.1,0.36-0.21,0.9-0.64,1.03c0.25-0.5,0.41-0.91,0.46-1.46
			c0.03-0.35,0.02-0.79-0.04-1.13c-0.09-0.56-0.05-1.14-0.18-1.69c-0.23-1.03-0.56-2.1-1.34-2.82c-0.35-0.33-0.78-0.57-1.23-0.75
			c-1.57-0.62-3.43-0.44-4.85,0.46c-0.29,0.19-0.57,0.41-0.78,0.69c-0.37,0.51-0.45,1.16-0.53,1.78c-0.05,0.46-0.11,0.92-0.16,1.39
			c-0.02,0.21-0.05,0.41-0.01,0.62c0.04,0.17,0.12,0.33,0.18,0.5c0.23,0.63,0.24,1.26,0.59,1.84
			C234.81,168.97,234.41,168.38,234.22,167.9z"/>
		<path class="st123" d="M240.05,165.62c0.04-0.01,0.08-0.01,0.11-0.04c0.06-0.05,0.04-0.15,0-0.23c-0.16-0.36-0.41-0.72-0.34-1.11
			c0.02-0.09,0.05-0.18,0.04-0.28c-0.01-0.08-0.06-0.16-0.11-0.22c-0.26-0.32-0.64-0.51-1.01-0.69c-0.11-0.05-0.22-0.11-0.34-0.13
			c-0.19-0.04-0.39-0.01-0.58,0.02c-0.09,0.01-0.18,0.03-0.26,0.09c-0.08,0.07-0.11,0.18-0.14,0.28c-0.14,0.57-0.26,1.14-0.35,1.72
			c-0.12,0.78,0.19,0.79,0.86,0.76C238.64,165.78,239.35,165.71,240.05,165.62z"/>
		
			<linearGradient id="SVGID_2_" gradientUnits="userSpaceOnUse" x1="-8.889" y1="69.4791" x2="-3.9142" y2="69.4791" gradientTransform="matrix(0.9893 0.1462 -0.1462 0.9893 254.8409 99.1343)">
			<stop  offset="0" style="stop-color:#BFCC40"/>
			<stop  offset="0.6915" style="stop-color:#82AF43"/>
			<stop  offset="0.9839" style="stop-color:#63A24A"/>
		</linearGradient>
		<path class="st130" d="M236.08,167.09c-0.21,0.22-0.46,0.52-0.3,0.77c0.06,0.1,0.17,0.15,0.28,0.19c0.54,0.21,1.15,0.25,1.71,0.11
			c0.34-0.08,0.68-0.23,1.01-0.15c0.22,0.06,0.41,0.21,0.64,0.26c0.44,0.1,0.88-0.22,1.13-0.6c0.19-0.28,0.32-0.61,0.33-0.95
			c0-0.34-0.13-0.69-0.39-0.9c-0.47-0.38-1.15-0.23-1.75-0.16c-0.33,0.04-0.66,0.06-0.98,0.05c-0.21-0.01-0.65-0.14-0.82-0.03
			c-0.14,0.09-0.26,0.59-0.36,0.74C236.43,166.68,236.27,166.9,236.08,167.09z"/>
		<path class="st125" d="M239.41,163.48c0.13,0.09,0.25,0.2,0.32,0.34c0.19,0.35,0,0.8,0.12,1.18c0.14,0.48,0.68,0.72,0.91,1.16
			c0.26,0.49,0.08,1.11-0.24,1.57c0.35-0.03,0.76-0.1,0.94-0.4c0.09-0.15,0.1-0.34,0.1-0.52c0.01-0.81-0.07-1.61-0.24-2.4
			c-0.13-0.57-0.35-0.89-0.84-1.21c-0.34-0.23-0.68-0.57-1.06-0.75c-0.27-0.12-1.08-0.24-1.17,0.17
			C238.17,163.01,239.16,163.3,239.41,163.48z"/>
	</g>
	<g>
		<path class="st122" d="M230.19,171.49c-0.48-0.09-0.97-0.19-1.35-0.5c-0.27-0.22-0.47-0.52-0.61-0.84
			c-0.88-1.91-0.67-4.5,0.38-6.34c1.24-2.14,4.16-2.72,6.44-2.24c3.32,0.7,4.24,3.12,4.48,6.22c0.06,0.77,0.12,1.55,0.18,2.32
			c0.16,2.12-1.2,2.27-2.93,2.08C234.58,171.96,232.37,171.89,230.19,171.49z"/>
		<path class="st41" d="M227.51,169.69c-0.28-0.7-0.35-1.46-0.38-2.21c-0.07-1.74-0.16-3.75,0.64-5.34
			c1.37-2.72,4.76-3.81,7.52-2.87c2.96,1.01,4.98,4.76,5.01,7.76c0.01,1.23-0.16,2.45-0.48,3.64c-0.12,0.47-0.27,1.15-0.82,1.33
			c0.33-0.64,0.52-1.17,0.59-1.89c0.04-0.44,0.02-1.02-0.04-1.46c-0.11-0.72-0.06-1.46-0.22-2.17c-0.3-1.32-0.72-2.7-1.71-3.63
			c-0.45-0.42-1-0.73-1.57-0.96c-2-0.8-4.39-0.57-6.2,0.6c-0.38,0.24-0.73,0.52-0.99,0.89c-0.47,0.65-0.58,1.49-0.67,2.29
			c-0.07,0.59-0.14,1.19-0.21,1.78c-0.03,0.26-0.06,0.53-0.01,0.79c0.05,0.22,0.15,0.43,0.23,0.64c0.29,0.82,0.31,1.62,0.75,2.37
			C228.26,171.06,227.76,170.31,227.51,169.69z"/>
		<path class="st123" d="M236.16,169.21c0.05-0.01,0.1-0.02,0.14-0.05c0.08-0.07,0.05-0.2,0-0.29c-0.21-0.46-0.21-0.83-0.12-1.33
			c0.02-0.12-0.25-0.33-0.27-0.45c-0.01-0.11-0.08-0.2-0.14-0.28c-0.33-0.41-0.82-0.65-1.29-0.88c-0.14-0.07-0.29-0.14-0.44-0.17
			c-0.24-0.05-0.49-0.01-0.74,0.03c-0.12,0.02-0.24,0.04-0.33,0.12c-0.54,0.45-0.57,2.15-0.64,2.81c-0.02,0.15-0.03,0.3,0.02,0.44
			C232.76,170.28,235.35,169.32,236.16,169.21z"/>
		
			<linearGradient id="SVGID_3_" gradientUnits="userSpaceOnUse" x1="6893.7656" y1="8943.1074" x2="6899.2104" y2="8943.1074" gradientTransform="matrix(-0.5274 -0.4959 0.685 -0.7285 -2256.1177 10100.2314)">
			<stop  offset="0" style="stop-color:#BFCC40"/>
			<stop  offset="0.6915" style="stop-color:#82AF43"/>
			<stop  offset="0.9839" style="stop-color:#63A24A"/>
		</linearGradient>
		<path class="st131" d="M234.73,165.87c0.16-0.07,0.33-0.15,0.49-0.26c0.07-0.05,0.13-0.1,0.18-0.17c0.09-0.14,0.05-0.29-0.01-0.4
			c-0.16-0.31-0.45-0.56-0.79-0.71c-0.7-0.32-1.5-1.42-2.52-0.88c-0.32,0.17-0.62,0.4-0.85,0.69c-0.23,0.29-0.37,0.65-0.33,0.95
			c0.07,0.53,0.63,0.69,1.09,0.87c0.25,0.1,0.48,0.23,0.7,0.37c0.14,0.1,0.35,0.4,0.54,0.37c0.15-0.02,0.57-0.4,0.74-0.5
			C234.22,166.06,234.48,165.98,234.73,165.87z"/>
		<path class="st125" d="M234.15,164c0.16,0.12,0.32,0.25,0.41,0.43c0.24,0.46,0.01,1.03,0.15,1.52c0.18,0.61,0.87,0.93,1.17,1.49
			c0.34,0.63,0.1,1.43-0.31,2.02c0.45-0.04,0.97-0.13,1.2-0.52c0.12-0.2,0.13-0.44,0.13-0.67c0.02-1.04-0.68-1.58-0.91-2.6
			c-0.16-0.73,0.15-1.64-0.47-2.05c-0.44-0.29-0.88-0.74-1.35-0.96c-0.34-0.16-1.38-0.31-1.49,0.21
			C232.57,163.39,233.83,163.76,234.15,164z"/>
	</g>
	<path class="st132" d="M207.41,164.47c0.52,0,1.02,0.21,1.5,0.43c0.15,0.07,0.31,0.14,0.44,0.26c0.18,0.16,0.29,0.39,0.38,0.62
		c0.43,1.13,0.61,2.52,1.64,3.15c0.13,0.08,0.27,0.15,0.37,0.27s0.11,0.32-0.02,0.41c-0.07,0.05-0.16,0.05-0.25,0.05
		c-0.89-0.01-1.77-0.15-2.64-0.29c-1.36-0.21-4.24,0.03-4.5-1.62C204.1,166.26,205.84,164.24,207.41,164.47z"/>
	<path class="st133" d="M207.83,167.29c0.05-0.01,0.11-0.03,0.16-0.04c0.69-0.18,0.8,0.04,0.97,0.63c0.23,0.77,0.86,1.09,1.51,1.49
		c0.31,0.19,0.62,0.42,0.78,0.75c0.68,1.47-2.28,1.43-3.03,1.42c-1.15-0.02-4.08-0.1-4.04-1.74
		C204.23,168.21,206.62,167.61,207.83,167.29z"/>
</g>
</svg>
