<?xml version="1.0" encoding="utf-8"?>
<!-- Generator: Adobe Illustrator 23.0.6, SVG Export Plug-In . SVG Version: 6.00 Build 0)  -->
<svg version="1.1" id="Capa_1" xmlns="http://www.w3.org/2000/svg" xmlns:xlink="http://www.w3.org/1999/xlink" x="0px" y="0px"
	 viewBox="0 0 300 500" style="enable-background:new 0 0 300 500;" xml:space="preserve">
<style type="text/css">
	.st0{fill:#363636;}
	.st1{fill:#202020;}
	.st2{fill:#2D363A;}
	.st3{fill:#F1D19E;}
	.st4{fill:#FFFFFF;}
	.st5{fill:#F1D19E;stroke:#272425;stroke-width:0.1206;stroke-miterlimit:10;}
	.st6{fill:#F1F1F1;}
	.st7{fill:#272425;}
	.st8{fill:#1C1A1B;}
	.st9{fill:#1E2528;}
	.st10{fill:#B6B9C1;}
	.st11{fill:#FAF5EB;}
	.st12{fill:#48391D;}
	.st13{display:none;fill:#F1D19E;stroke:#272425;stroke-width:0.1206;stroke-miterlimit:10;}
	.st14{fill:#4C2208;}
	.st15{fill:#884D12;}
	.st16{fill:#583C1C;}
	.st17{fill:#7F6528;}
	.st18{fill:#F5E1C2;}
	.st19{fill:none;}
	.st20{fill:#360000;}
	.st21{fill:#F5E1C2;stroke:#B5966E;stroke-width:0.1184;stroke-miterlimit:10;}
	.st22{fill:#F5E1C2;stroke:#424140;stroke-width:0.1184;stroke-miterlimit:10;}
	.st23{fill:#E0CEAB;stroke:#B5966E;stroke-width:0.1206;stroke-miterlimit:10;}
	.st24{fill:#F5E1C2;stroke:#B5966E;stroke-width:0.1091;stroke-miterlimit:10;}
	.st25{fill:#C09D38;}
	.st26{fill:none;stroke:#7E5E40;stroke-linecap:round;stroke-linejoin:round;stroke-miterlimit:10;}
	.st27{fill:#DD902F;}
	.st28{fill:none;stroke:#815E18;stroke-linecap:round;stroke-miterlimit:10;}
	.st29{fill:#B62228;}
	.st30{fill:#997B55;}
	.st31{fill:#723324;}
	.st32{fill:#E6E6E6;}
	.st33{fill:#7E5E40;}
	.st34{fill:#815E18;}
	.st35{fill:#CACACA;}
	.st36{fill:#333333;}
	.st37{fill:#1A1A1A;}
	.st38{fill:#4D4D4D;}
	.st39{fill:#F0DDC0;}
	.st40{fill:#A2867E;}
	.st41{fill:#040006;}
	.st42{fill:#353745;}
	.st43{fill:#F7E3C4;stroke:#B7986E;stroke-width:0.1184;stroke-miterlimit:10;}
	.st44{display:none;fill:#F3D3A0;stroke:#272425;stroke-width:0.1206;stroke-miterlimit:10;}
	.st45{fill:#F3D3A0;}
	.st46{fill:#D5D6D6;}
	.st47{fill:#744C15;stroke:#272425;stroke-width:0.1206;stroke-miterlimit:10;}
	.st48{display:none;fill:#3E526A;}
	.st49{fill:#203847;}
	.st50{fill:#BC821F;}
	.st51{display:none;fill:#BC821F;}
	.st52{fill:#914310;}
	.st53{fill:#F7E3C4;stroke:#B7986E;stroke-width:0.1091;stroke-miterlimit:10;}
	.st54{fill:#7B0032;}
	.st55{fill:#7F5E40;}
	.st56{fill:#979797;}
	.st57{fill:#B0B0B0;stroke:#7F7F7F;stroke-width:0.25;stroke-miterlimit:10;}
	.st58{fill:none;stroke:#979797;stroke-miterlimit:10;}
	.st59{fill:#BCBA9A;stroke:#7F7F7F;stroke-width:0.25;stroke-miterlimit:10;}
	.st60{fill:#7F7F7F;}
	.st61{fill:#5888A7;stroke:#7F7F7F;stroke-width:0.25;stroke-miterlimit:10;}
	.st62{fill:#C8C8C8;stroke:#7F7F7F;stroke-width:0.25;stroke-miterlimit:10;}
	.st63{fill:#B0B0B0;}
	.st64{fill:#B67849;}
	.st65{fill:#7F5032;}
	.st66{fill:#4C3018;}
	.st67{fill:#C4C4C4;}
	.st68{fill:#A52B31;}
	.st69{fill:#1C2853;}
	.st70{fill:#F8F8F8;}
	.st71{fill:#81D646;}
	.st72{fill:#DEC69A;}
	.st73{fill:#DB391D;}
	.st74{fill:#8F673C;}
	.st75{opacity:0.35;}
	.st76{fill:#6FB353;}
	.st77{opacity:0.7;}
	.st78{fill:#DDC092;}
	.st79{fill:url(#);}
	.st80{fill:#754C24;}
	.st81{fill:#243B56;}
	.st82{fill:#CEAE7E;}
</style>
<g>
	<g>
	</g>
</g>
<g>
	<polygon class="st45" points="100.78,172.87 76.61,232.72 88.77,239.95 118.24,187.82 	"/>
	<g>
		<path class="st45" d="M84.59,243.41l0.67-0.8l0.6,1.48c1.81,0.96,2.34,6.34,4.17,7.27l1.52-5.74c0.08-0.47,0.03-0.95-0.15-1.38
			l-3.03-7.45c-0.34-0.82-1.08-1.41-1.96-1.55c-0.13-0.02-0.26-0.03-0.39-0.03c-0.75,0-1.46,0.33-1.95,0.91l-4.02,4.81
			C81.56,241.77,83.07,242.6,84.59,243.41z"/>
		<path class="st45" d="M82.31,242.18l4.23-5.2c0,0-8.86-5.29-9.07-5.2c-1.37,0.57-2.64,5.64-2.64,9.45
			C77.58,242.89,79.48,240.63,82.31,242.18z"/>
	</g>
	<g>
		<g>
			<path class="st45" d="M84.6,239.76c0.59,0.1,1.12,0.43,1.47,0.92l4.2,5.89c0.25,0.35,0.39,0.75,0.42,1.18l0.33,5.24
				c0.08,1.26-0.87,2.34-2.13,2.42c-1.26,0.09-2.34-0.87-2.42-2.13l-0.29-4.59l-1.62-2.27l-4.34,8.69
				c-0.06,0.13-0.14,0.25-0.23,0.36c-0.08,0.13-2.7,4.1,4.41,10.25c0.95,0.82,1.06,2.26,0.23,3.21c-0.82,0.95-2.26,1.06-3.21,0.23
				c-9.56-8.27-6.07-14.9-5.21-16.22l5.97-11.95c0.36-0.71,1.06-1.19,1.86-1.25C84.23,239.73,84.41,239.73,84.6,239.76z"/>
		</g>
		<path class="st45" d="M84.73,240.95l-7.14,14.64c0,0-0.76,5.12,1.78,8.07c0,0-6.39-3.1-7.98-11.11
			c-0.39-1.95,4.89-16.12,4.71-16.02C75.93,236.63,84.73,240.95,84.73,240.95z"/>
	</g>
	<g>
		<path class="st45" d="M87.12,242.19c-0.54-0.09-4.19-2.56-4.69-2.24c-1.06,0.68,2.67,5.34,3.15,6.49
			c0.73,1.75,0.77,4.38,0.88,6.59l0.01,0.21c0.06,1.26,1.13,2.22,2.39,2.16c1.26-0.06,2.23-1.13,2.16-2.39l-0.01-0.21
			c-0.06-4.64,0.39-8.3-1.03-9.12C89.34,243.33,87.72,242.51,87.12,242.19z"/>
	</g>
	<g>
		<path class="st45" d="M244.16,265.39c0.76,0,1.52-0.35,2-1.02c7.99-11.07,2.67-17.16,1.43-18.34l-9.24-11.06
			c-0.55-0.66-1.41-0.99-2.27-0.85c-0.85,0.13-1.57,0.7-1.9,1.5l-2.94,7.23c-0.17,0.43-0.22,0.89-0.15,1.34l0.96,5.59
			c0.23,1.34,1.51,2.24,2.84,2.01c1.34-0.23,2.24-1.5,2.01-2.84l-0.84-4.9l1.14-2.79l6.72,8.05c0.1,0.12,0.21,0.23,0.33,0.33
			c0.12,0.11,3.86,3.63-2.08,11.86c-0.79,1.1-0.55,2.64,0.56,3.43C243.15,265.24,243.66,265.39,244.16,265.39z"/>
		<path class="st45" d="M235.95,235.8l10.85,13.35c0,0,2.07,5.19,0.14,8.92c0,0,5.93-4.85,5.61-13.66
			c-0.08-2.15-8.01-13.72-7.8-13.66C244.96,230.82,235.95,235.8,235.95,235.8z"/>
	</g>
	<polyline class="st45" points="206.9,189.2 231.87,241.16 247.22,234.7 223.27,169.77 	"/>
	<path class="st68" d="M152.15,163.9c-1.9,0-11.41-2.54-20.28,2.54l-13.62,22.64l-17.47-14.94l8.64-20.07l0.26-0.52
		c5.16-9.65,15.47-19.95,28.89-19.95"/>
	<path class="st68" d="M146.9,133.09h39.58c13.64,0,25.82,10.57,30.41,20.54l6.38,16.14L206.9,189.2l-11.46-25.49l-0.07-0.16
		c-1.44-3.16-6.18-6.76-8.89-6.76h-52.26"/>
	<polyline class="st69" points="111.05,291.54 119.33,258.05 158.6,258.05 159.78,258.05 160.96,258.05 162.15,258.05 
		201.42,258.05 197.9,305.33 161.24,304.4 160.96,295.63 160.37,276.85 145.27,302.72 	"/>
	<polyline class="st4" points="112.37,338.47 125.65,393.25 149.01,390.79 138.32,334.41 	"/>
	<polyline class="st45" points="138.32,334.41 135.48,319.47 145.27,302.72 111.05,291.54 105.97,312.1 112.37,338.47 	"/>
	<polyline class="st45" points="162.85,355.75 161.24,304.4 197.9,305.33 194.02,357.55 	"/>
	<polyline class="st4" points="194.02,357.55 188.64,429.88 165.6,429.45 162.85,355.75 	"/>
	<path class="st70" d="M115.11,161.23c0-17.11,13.83-28.76,29.92-28.76h31.86c16.1,0,29.92,11.66,29.92,28.76L205,202.22
		c0,1.41-0.13,2.94-0.36,4.55l-2.45,51.28h-82.46l-2.45-51.28c-0.23-1.61-0.36-3.14-0.36-4.55L115.11,161.23z"/>
	<g>
		<polygon class="st71" points="165.25,433.82 219.76,433.82 219.76,431.8 189.11,419.78 165.25,425 		"/>
	</g>
	<path class="st72" d="M142,133.7L142,133.7c0-0.67,0.21-1.29,0.56-1.87l5.37-17.92H174l5.37,17.92c0.35,0.58,0.56,1.2,0.56,1.87v0
		l0,0v0c-2.22,2.02-5.85,5.21-18.62,6.26C150.87,140.82,144.09,136.27,142,133.7L142,133.7L142,133.7z"/>
	<polygon class="st71" points="151.47,403.08 94.07,398.09 94.39,396.1 124.42,389.56 149.01,390.79 	"/>
	<path class="st68" d="M195.5,136.92L190.81,258h-9.84l5.23-124.71C186.21,133.28,194.27,135.69,195.5,136.92z"/>
	<polygon class="st68" points="166.49,140.05 166.22,258 155.16,258 155.16,139.96 	"/>
	<path class="st68" d="M128.43,136.11l0.9,121.89h12.3l-4.31-124.71C137.32,133.28,129.66,134.88,128.43,136.11z"/>
	<path class="st4" d="M135.77,163.82h21.01c0.35,0,0.63-0.28,0.63-0.63v-5.7c0-0.35-0.28-0.63-0.63-0.63h-21.01
		c-0.35,0-0.63,0.28-0.63,0.63v5.7C135.14,163.54,135.42,163.82,135.77,163.82z"/>
	<polyline points="136.09,158.22 137.01,158.22 138.68,161.64 140.37,158.22 141.28,158.22 141.28,162.15 140.76,162.15 
		140.76,158.56 138.98,162.15 138.37,162.15 136.62,158.56 136.62,162.15 136.09,162.15 	"/>
	<path d="M142.33,163.18l0.54-1.05l-1.46-2.72h0.61l1.14,2.22l1.11-2.22h0.57l-1.95,3.77H142.33z"/>
	<path class="st73" d="M146.21,162.09v-3.76h0.53v3.29h2.14v0.46H146.21z"/>
	<path class="st73" d="M149.47,158.33v0.54h-0.5v-0.54H149.47z M148.97,162.09v-2.62h0.5v2.62H148.97z"/>
	<path class="st73" d="M149.99,162.09v-1.77c0-0.11,0-0.24-0.01-0.38c-0.01-0.14-0.02-0.3-0.03-0.46h0.5l0.03,0.45
		c0.13-0.18,0.28-0.31,0.47-0.39c0.18-0.08,0.41-0.12,0.67-0.12c0.39,0,0.68,0.09,0.88,0.28c0.19,0.19,0.29,0.47,0.29,0.85v1.55
		h-0.5v-1.47c0-0.29-0.06-0.51-0.19-0.65c-0.13-0.14-0.33-0.21-0.6-0.21c-0.3,0-0.54,0.08-0.73,0.24c-0.18,0.16-0.27,0.37-0.27,0.64
		v1.44H149.99z"/>
	<polyline class="st73" points="155.96,162.09 155.24,162.09 153.72,160.64 153.72,162.09 153.22,162.09 153.22,158.33 
		153.72,158.33 153.72,160.52 155.08,159.47 155.74,159.47 154.29,160.59 155.96,162.09 	"/>
	<rect x="144.61" y="160.18" width="1.15" height="0.51"/>
	<g>
		<path class="st4" d="M175.59,293.89c-0.49,0-0.88-0.4-0.88-0.88c0-2.01,0.02-4.06,0.04-6.04c0.03-2.76,0.05-5.6,0.03-8.45
			c-0.37,0.42-0.82,0.85-1.42,1.38c-0.37,0.32-0.93,0.29-1.25-0.08c-0.32-0.37-0.29-0.92,0.08-1.25c1.62-1.43,1.94-1.9,2.57-3.88
			c0.13-0.41,0.54-0.67,0.97-0.61c0.43,0.06,0.75,0.42,0.76,0.85c0.11,4.08,0.07,8.13,0.03,12.05c-0.02,1.98-0.04,4.02-0.04,6.02
			C176.47,293.49,176.08,293.89,175.59,293.89z"/>
	</g>
	<g>
		<path class="st4" d="M182.86,293.73c-2.64,0-4.07-5.25-4.07-10.2c0-4.75,1.43-9.57,4.16-9.57c2.73,0,4.16,4.81,4.16,9.57
			C187.1,288.54,185.52,293.73,182.86,293.73z M182.95,275.74c-0.81,0-2.38,2.75-2.38,7.79c0,5.14,1.51,8.42,2.3,8.42
			c0.87,0,2.47-3.47,2.47-8.42C185.33,278.49,183.76,275.74,182.95,275.74z"/>
	</g>
	<path class="st3" d="M192.18,101.71c3.92,0,4.38-12.58,4.38-12.58c0-3.2-0.46-6.25-4.38-6.25l0,0V101.71z"/>
	<path class="st3" d="M129.83,101.71c-3.92,0-4.38-12.58-4.38-12.58c0-3.2,0.46-6.25,4.38-6.25l0,0V101.71z"/>
	<path class="st74" d="M127.16,89.27c0,3.43,3.99,18.28,7.41,18.28h53.2c3.43,0,7.41-14.86,7.41-18.28c0,0,2.94-23.35,1.21-27.4
		c-1.74-4.04-5.62-25.56-24.5-27.96c-6.36-0.81-22.91,0.84-27.89,5.07c-3.92,3.33-16.48,6.34-18.05,22.89
		C125.5,66.62,127.16,89.27,127.16,89.27z"/>
	<path class="st3" d="M129.83,99.69c0,10.33,14.2,24.53,24.53,24.53h13.29c10.33,0,24.53-14.2,24.53-24.53V76.27
		c0-10.33-10.58-18.49-20.91-18.49h-20.53c-10.33,0-20.91,8.16-20.91,18.49V99.69z"/>
	<path class="st14" d="M169.6,108.56c-1.04,3.48-4.49,7.25-8.59,7.25c-4.1,0-7.55-3.77-8.59-7.25c2.02,1.46,5.11,1.19,8.59,1.19
		C164.48,109.75,167.58,110.02,169.6,108.56z"/>
	<path class="st15" d="M164.84,101.69c0-1.27-1.72-2.29-3.84-2.29c-2.12,0-3.84,1.03-3.84,2.29"/>
	<g>
		<path class="st16" d="M169.3,85.36c0.52,0,0.95-0.43,0.95-0.95c0-0.61,0-1.89,3.38-1.89c3.38,0,3.38,1.28,3.38,1.89
			c0,0.52,0.43,0.95,0.95,0.95c0.52,0,0.95-0.43,0.95-0.95c0-1.73-0.92-3.79-5.28-3.79c-4.36,0-5.28,2.06-5.28,3.79
			C168.35,84.93,168.77,85.36,169.3,85.36z"/>
	</g>
	<g>
		<path class="st16" d="M144.05,85.36c0.52,0,0.95-0.43,0.95-0.95c0-0.61,0-1.89,3.38-1.89c3.38,0,3.38,1.28,3.38,1.89
			c0,0.52,0.43,0.95,0.95,0.95c0.52,0,0.95-0.43,0.95-0.95c0-1.73-0.92-3.79-5.28-3.79c-4.36,0-5.28,2.06-5.28,3.79
			C143.1,84.93,143.53,85.36,144.05,85.36z"/>
	</g>
	<g>
		<g>
			<g>
				<ellipse class="st4" cx="91.12" cy="431.11" rx="29.81" ry="30.43"/>
				<path d="M61.13,431.11c0-16.88,13.45-30.61,29.99-30.61s29.99,13.73,29.99,30.61c0,16.88-13.45,30.61-29.99,30.61
					S61.13,447.99,61.13,431.11z M61.49,431.11c0,16.68,13.29,30.25,29.63,30.25s29.63-13.57,29.63-30.25
					c0-16.68-13.29-30.25-29.63-30.25S61.49,414.43,61.49,431.11z"/>
			</g>
		</g>
		<g class="st75">
			<path class="st76" d="M113.42,441.44c0.33-0.29,0.66-0.59,0.98-0.88c-3.54,7.59-11.3,13.04-19.64,13.8
				c-2.12,0.19-4.26,0.11-6.36,0.44c-0.01,0.43,0.57,0.58,1,0.59c9.67,0.08,19.3-4.03,25.94-11.06
				c-6.41,7.59-15.32,13.61-25.23,14.34c7.83-1.87,14.67-6.64,22.31-9.17c-6.42,7.53-16.43,11.85-26.31,11.35
				c1.99,0.94,4.31,0.78,6.47,0.43c6.38-1.04,12.49-3.67,17.64-7.58c2.73-2.07,5.27-4.63,6.38-7.87c0.56-1.63,0.72-3.37,0.89-5.09
				c-0.91,3.59-3.24,6.8-6.37,8.77c2.32-2.83,4.75-5.89,5.12-9.54c-1.6,2.93-3.36,5.77-5.29,8.5"/>
		</g>
		<g class="st75">
			<path class="st76" d="M79.45,408.83c-3.37,2.84-6,6.52-7.89,10.51c3.07-7.28,9.61-13.01,17.24-15.09
				c-2.41-0.41-4.86,0.4-7.05,1.49c-5.68,2.83-10.35,7.66-12.97,13.43c2.85-3,5.69-6.01,8.66-8.9c3.32-3.23,6.91-6.39,11.28-7.95
				c-10.48,0.52-20.32,7.73-23.99,17.56c1.36-0.79,2.29-2.14,3.17-3.44c2.59-3.79,5.41-7.61,9.18-10.32c1.89-1.36,4-2.37,6.27-2.89
				c1.33-0.31,5.73-1.23,3.14,1.18C84.55,406.22,81.56,407.05,79.45,408.83z"/>
		</g>
		<g>
			<g class="st77">
				<polyline class="st63" points="97.45,413.75 96.87,413.75 95.82,415.9 94.76,413.75 94.18,413.75 94.18,416.23 94.51,416.23 
					94.51,413.96 95.63,416.23 96.01,416.23 97.12,413.96 97.12,416.23 97.45,416.23 				"/>
			</g>
			<g class="st77">
				<path class="st63" d="M93.15,416.88l-1.23-2.38h0.36l0.7,1.4l0.72-1.4h0.39l-0.92,1.72l0.34,0.66H93.15z"/>
			</g>
			<g class="st77">
				<path class="st73" d="M89.02,416.23v-0.31h1.41v-2.17h0.35v2.48H89.02z"/>
			</g>
			<g class="st77">
				<path class="st73" d="M88.96,413.75v0.36h-0.33v-0.36H88.96z M88.63,416.23v-1.73h0.33v1.73H88.63z"/>
			</g>
			<g class="st77">
				<path class="st73" d="M87.95,416.23v-0.95c0-0.18-0.06-0.32-0.18-0.42c-0.12-0.11-0.28-0.16-0.48-0.16
					c-0.18,0-0.31,0.05-0.39,0.14c-0.08,0.09-0.13,0.23-0.13,0.43v0.97h-0.33v-1.02c0-0.25,0.06-0.43,0.19-0.56
					c0.13-0.12,0.32-0.19,0.58-0.19c0.18,0,0.32,0.03,0.44,0.08c0.12,0.05,0.22,0.14,0.31,0.26l0.02-0.3h0.33
					c-0.01,0.11-0.02,0.21-0.02,0.31c-0.01,0.09-0.01,0.18-0.01,0.25v1.17H87.95z"/>
			</g>
			<g class="st77">
				<polyline class="st73" points="84.36,416.23 84.83,416.23 85.83,415.27 85.83,416.23 86.17,416.23 86.17,413.75 85.83,413.75 
					85.83,415.2 84.94,414.5 84.51,414.5 85.46,415.24 84.36,416.23 				"/>
			</g>
			<g class="st77">
				<rect x="91.08" y="414.97" class="st63" width="0.76" height="0.33"/>
			</g>
		</g>
		<g>
			<g class="st77">
				<polyline class="st63" points="82.34,445.7 81.88,445.36 79.75,446.46 80.18,444.09 79.71,443.75 78.24,445.74 78.5,445.93 
					79.85,444.12 79.4,446.6 79.71,446.83 81.95,445.68 80.6,447.49 80.86,447.69 				"/>
			</g>
			<g class="st77">
				<path class="st63" d="M77.02,445.65l0.44-2.64l0.29,0.22l-0.27,1.54l1.41-0.69l0.31,0.23l-1.76,0.83l-0.12,0.73L77.02,445.65z"
					/>
			</g>
			<g class="st77">
				<path class="st73" d="M74.1,442.66l0.18-0.25l1.13,0.84l1.3-1.74l0.28,0.21l-1.48,1.99L74.1,442.66z"/>
			</g>
			<g class="st77">
				<path class="st73" d="M75.53,440.64l-0.21,0.29l-0.26-0.2l0.21-0.29L75.53,440.64z M73.79,442.43l1.03-1.38l0.26,0.2l-1.03,1.38
					L73.79,442.43z"/>
			</g>
			<g class="st77">
				<path class="st73" d="M73.24,442.02l0.57-0.76c0.11-0.14,0.14-0.29,0.11-0.45c-0.03-0.16-0.13-0.29-0.29-0.41
					c-0.14-0.11-0.27-0.15-0.4-0.13c-0.12,0.02-0.24,0.11-0.36,0.27l-0.58,0.78l-0.26-0.2l0.61-0.82c0.15-0.2,0.31-0.31,0.49-0.33
					c0.18-0.02,0.37,0.04,0.57,0.2c0.14,0.1,0.24,0.21,0.31,0.33c0.06,0.11,0.1,0.24,0.09,0.39l0.19-0.23l0.27,0.2
					c-0.07,0.08-0.14,0.16-0.2,0.23c-0.06,0.07-0.11,0.14-0.16,0.2l-0.7,0.94L73.24,442.02z"/>
			</g>
			<g class="st77">
				<polyline class="st73" points="70.36,439.87 70.74,440.16 72.11,439.99 71.54,440.76 71.81,440.95 73.28,438.97 73.02,438.77 
					72.16,439.93 71.85,438.84 71.5,438.58 71.83,439.74 70.36,439.87 				"/>
			</g>
			<g class="st77">
				
					<rect x="76.54" y="442.86" transform="matrix(0.5969 -0.8023 0.8023 0.5969 -324.7089 240.2374)" class="st63" width="0.33" height="0.76"/>
			</g>
		</g>
		<g>
			<g class="st77">
				<polyline class="st63" points="112.82,438.36 112.38,438.74 113,441.05 110.78,440.13 110.35,440.51 111.98,442.37 
					112.22,442.16 110.74,440.45 113.07,441.42 113.36,441.17 112.7,438.74 114.19,440.44 114.44,440.22 				"/>
			</g>
			<g class="st77">
				<path class="st63" d="M111.63,443.54l-2.49-0.99l0.27-0.24l1.45,0.59l-0.38-1.53l0.29-0.25l0.43,1.9l0.69,0.28L111.63,443.54z"
					/>
			</g>
			<g class="st77">
				<path class="st73" d="M108.09,445.76l-0.2-0.23l1.07-0.93l-1.43-1.64l0.26-0.23l1.63,1.87L108.09,445.76z"/>
			</g>
			<g class="st77">
				<path class="st73" d="M106.42,443.93l0.23,0.27l-0.25,0.22l-0.23-0.27L106.42,443.93z M107.8,446.02l-1.13-1.3l0.25-0.22
					l1.13,1.3L107.8,446.02z"/>
			</g>
			<g class="st77">
				<path class="st73" d="M107.28,446.46l-0.63-0.72c-0.12-0.13-0.25-0.2-0.41-0.2c-0.16,0-0.31,0.06-0.46,0.2
					c-0.13,0.12-0.2,0.24-0.21,0.36c0,0.12,0.06,0.26,0.19,0.4l0.64,0.73l-0.25,0.22l-0.67-0.77c-0.16-0.19-0.24-0.37-0.22-0.55
					c0.02-0.18,0.12-0.35,0.31-0.52c0.13-0.12,0.26-0.19,0.39-0.23c0.13-0.04,0.26-0.04,0.4-0.01l-0.18-0.24l0.25-0.22
					c0.07,0.09,0.13,0.17,0.19,0.24c0.06,0.07,0.11,0.14,0.16,0.19l0.77,0.88L107.28,446.46z"/>
			</g>
			<g class="st77">
				<polyline class="st73" points="104.57,448.83 104.93,448.51 105.06,447.14 105.69,447.86 105.93,447.64 104.31,445.77 
					104.06,445.99 105.01,447.08 103.88,447.14 103.55,447.43 104.75,447.36 104.57,448.83 				"/>
			</g>
			<g class="st77">
				
					<rect x="108.83" y="443.17" transform="matrix(0.7538 -0.6571 0.6571 0.7538 -264.426 180.9067)" class="st63" width="0.76" height="0.33"/>
			</g>
		</g>
		<g>
			<g>
				<path d="M89.17,430.36c-2.07-0.2-4-0.84-5.75-1.91l0.68-1.36c0,0,8.57,3.97,15.19-0.53l0.76,1.31
					c-0.87,0.48-2.79,1.44-5.23,2.04C92.86,430.38,90.96,430.54,89.17,430.36z"/>
			</g>
			<g>
				<path d="M97.01,434.29c1.21-1.65,2.71-2.96,4.48-3.92l0.71,1.22c0,0-6.89,3.97-6.98,12.98h-1.61c0.06-1.1,0.25-3.04,0.91-5.2
					C95.11,437.46,95.95,435.74,97.01,434.29z"/>
			</g>
			<g>
				<path d="M86.64,434.19c1.21,1.29,2.22,2.88,3,4.71c1.08,2.56,1.41,4.89,1.49,5.68h-1.65c0,0-1.06-8.66-8.04-12.19l0.66-1.31
					C83.83,431.78,85.36,432.82,86.64,434.19z"/>
			</g>
			<g>
				<path d="M82.34,430.6l0.84-1.67c2.52,1.52,5.12,2.03,7.46,2.03c1.6,0,3.08-0.23,4.32-0.54c2.52-0.62,4.47-1.59,5.36-2.09
					l0.92,1.58c-4.32,2.34-6.31,6.33-7.22,9.33c-0.68,2.24-0.87,4.22-0.93,5.34h-1.41c-0.07-0.76-0.39-3.17-1.53-5.87
					C88.96,435.94,86.67,432.38,82.34,430.6z"/>
			</g>
		</g>
		<g>
			<path d="M109.36,412.07l-3.97-0.53c0,0,2.56,7.15-3.62,11.92l3.09,5.03c0,0,5.74-5.03,10.86,0l0.97-4.59
				C116.69,423.91,112.8,419.58,109.36,412.07z"/>
		</g>
		<g>
			<path d="M80.83,426.56c0,0-7.42-5.83-4.95-12.01l-4.15,0.53c0,0-2.38,7.42-6.45,12.63c0,0,1.41,4.33,1.94,4.68
				c0,0,4.33-5.39,10.69-1.32L80.83,426.56z"/>
		</g>
		<g>
			<path d="M102.91,408.89c0,0-3.8-6.27-12.01-5.39v-1.59h9.19c0,0,2.83,0.88,5.12,2.38c0,0-0.09,2.3,2.03,5.03L102.91,408.89z"/>
		</g>
		<g>
			<path d="M87.54,402.36v1.59c0,0-7.95,1.15-10.95,7.6l-4.06,0.88c0,0,2.38-5.21,0.53-5.65c0,0,2.21-2.3,6.36-3.27
				C79.41,403.5,84.18,402.09,87.54,402.36z"/>
		</g>
		<g>
			<path d="M64.4,430.45c0,0,0.88,3.36,1.59,4.15c0,0-2.65,2.83,1.15,11.84h-1.32c0,0-4.06-4.68-4.06-14.04
				C61.75,432.39,62.9,431.42,64.4,430.45z"/>
		</g>
		<g>
			<path d="M95.84,447.93l-5.74,0.44c0,0,0.53,6.8-6.71,7.24l2.91,2.47l13.78-0.71l2.74-2.91
				C102.82,454.47,95.84,455.71,95.84,447.93z"/>
		</g>
		<g>
			<path d="M117.22,442.37c0,0,2.83-5.83,0.44-11.92l0.97-4.5c0,0-0.18,1.94,1.5,2.38c0,0,0.71,8.39-0.71,11.48
				C119.43,439.81,118.55,441.66,117.22,442.37z"/>
		</g>
		<g>
			<path d="M106.09,453.41c0,0,4.33-0.71,9.8-8.57c0,0-2.38,6.71-8.13,9.8c0,0-2.83,2.21-4.95,2.12L106.09,453.41z"/>
		</g>
		<g>
			<path d="M69.61,449.17c0,0,4.68,6.01,11.22,6.54c0,0,2.3,2.47,3,2.38c0,0-5.12,0.92-7.11-0.33c0,0-5.22-3.88-8.26-8.59
				C68.46,449.17,68.81,449.17,69.61,449.17z"/>
		</g>
		<g>
			<path class="st4" d="M102.32,426.13c4.65-2.98,5.58-6.98,5.53-9.82c-0.04-3.06-1.17-5.38-1.22-5.48l-0.4,0.19
				c0.01,0.02,1.13,2.34,1.17,5.31c0.02,1.73-0.32,3.34-1.03,4.79c-0.88,1.81-2.33,3.37-4.31,4.63L102.32,426.13z"/>
		</g>
		<g>
			<path class="st4" d="M103.44,427.31c3.2-2.44,6.31-3.19,9.24-2.22c2.18,0.72,3.43,2.17,3.45,2.19l0.34-0.29
				c-0.05-0.06-1.35-1.56-3.64-2.32c-3.83-1.27-7.36,0.54-9.64,2.29L103.44,427.31z"/>
		</g>
		<g>
			<path class="st4" d="M116.59,425.89l0.28-0.34c-3.79-3.12-5.95-6.85-7.09-9.43c-1.24-2.8-1.58-4.9-1.58-4.92l-0.44,0.07
				c0.01,0.09,0.35,2.16,1.61,5.01C110.54,418.91,112.73,422.71,116.59,425.89z"/>
		</g>
		<g>
			<path class="st4" d="M80.19,429.06l0.3-0.33c-2.51-2.26-5.55-5.93-5.79-10.61c-0.15-2.8,0.79-4.65,0.8-4.67l-0.39-0.2
				c-0.04,0.08-1,1.96-0.85,4.87C74.5,422.96,77.62,426.74,80.19,429.06z"/>
		</g>
		<g>
			<path class="st4" d="M65.4,430.91c3.36-3.45,5.38-7.72,6.49-10.69c1.2-3.22,1.61-5.66,1.61-5.68l-0.44-0.07
				c-0.02,0.1-1.66,9.64-7.98,16.14L65.4,430.91z"/>
		</g>
		<g>
			<path class="st4" d="M65.94,431.78c0.01-0.02,1.48-1.77,3.86-2.78c3.17-1.35,6.37-0.82,9.52,1.58l0.27-0.35
				c-4.1-3.12-7.69-2.61-9.98-1.63c-2.47,1.06-3.95,2.83-4.01,2.9L65.94,431.78z"/>
		</g>
		<g>
			<path class="st4" d="M75.44,412.4c0-0.02,0.35-1.99,2.1-4.09c2.93-3.52,7.47-4.7,10.77-5.08l-0.03-0.26
				c-3.35,0.38-7.97,1.59-10.95,5.18c-1.79,2.16-2.14,4.12-2.15,4.2L75.44,412.4z"/>
		</g>
		<g>
			<path class="st4" d="M74.28,412.86c0.06-0.19,1.47-4.77,0.57-6.37c-0.16-0.29-0.38-0.47-0.67-0.54l-0.07,0.26
				c0.21,0.05,0.38,0.19,0.5,0.41c0.84,1.51-0.58,6.12-0.59,6.17L74.28,412.86z"/>
		</g>
		<g>
			<path class="st4" d="M76.43,404.72c2.09-0.37,11.55-1.92,11.86-1.93l0-0.26c-0.28,0-9.91,1.58-11.9,1.93L76.43,404.72z"/>
		</g>
		<g>
			<path class="st4" d="M104.34,409.53l0.23-0.13c-2.54-4.47-6.4-5.98-9.2-6.46c-3.03-0.52-5.49,0.03-5.52,0.03l0.06,0.26
				c0.02-0.01,2.45-0.54,5.42-0.03c1.74,0.3,3.34,0.89,4.73,1.77C101.81,406.06,103.24,407.6,104.34,409.53z"/>
		</g>
		<g>
			<path class="st4" d="M106.39,409.55l0.2-0.17c-0.03-0.03-2.6-3.02-2-5.51l-0.26-0.06c-0.26,1.09,0.01,2.43,0.8,3.88
				C105.71,408.77,106.36,409.52,106.39,409.55z"/>
		</g>
		<g>
			<path class="st4" d="M96.68,402.56c1.62,0,3.15-0.03,4.11-0.12l-0.02-0.26c-2.84,0.26-10.8,0-10.88,0l-0.01,0.26
				C89.93,402.45,93.47,402.56,96.68,402.56z"/>
		</g>
		<g>
			<path class="st4" d="M83.79,456.94c2.53-0.16,4.49-1.04,5.84-2.62c2.35-2.76,1.97-6.76,1.97-6.8l-0.26,0.03
				c0,0.04,0.36,3.93-1.91,6.6c-1.3,1.53-3.2,2.38-5.65,2.53L83.79,456.94z"/>
		</g>
		<g>
			<path class="st4" d="M101.43,456.33c0.1,0,0.19,0,0.29-0.01l-0.01-0.26c-2.73,0.11-4.78-1.29-6.1-4.15
				c-0.99-2.15-1.18-4.36-1.18-4.38l-0.26,0.02c0,0.02,0.19,2.28,1.2,4.47C96.68,454.85,98.77,456.33,101.43,456.33z"/>
		</g>
		<g>
			<path class="st4" d="M85.6,457.6c8.81-1.84,15.48-0.16,15.53-0.14l0.11-0.24c-0.12-0.06-1.88-0.48-4.67-0.66
				c-2.53-0.17-6.51-0.17-11.03,0.78L85.6,457.6z"/>
		</g>
		<g>
			<path class="st4" d="M81.17,456.5c0.88,0,1.46-0.12,1.57-0.22l-0.19-0.19c0.01-0.01,0.01-0.01,0.01-0.01
				c-0.18,0.11-2.28,0.42-5.01-0.42c-2.44-0.75-5.95-2.62-8.75-7.23l-0.23,0.14c3.7,6.09,8.62,7.53,11.22,7.84
				C80.3,456.48,80.76,456.5,81.17,456.5z"/>
		</g>
		<g>
			<path class="st4" d="M66.44,447.24l0.24-0.11c-2.18-4.76-2.28-8.35-1.98-10.52c0.32-2.34,1.16-3.56,1.17-3.58l-0.22-0.15
				c-0.04,0.05-0.88,1.29-1.22,3.69C64.14,438.78,64.24,442.42,66.44,447.24z"/>
		</g>
		<g>
			<path class="st4" d="M62.03,433.61c1.4,0,3.21-1.8,3.3-1.88l-0.19-0.19c-0.02,0.02-2.08,2.07-3.37,1.78l-0.06,0.26
				C61.82,433.6,61.93,433.61,62.03,433.61z"/>
		</g>
		<g>
			<path class="st4" d="M118,442.38c1.98-4.28,1.7-7.67,1.12-9.75c-0.63-2.27-1.72-3.5-1.76-3.55l-0.2,0.18
				c0.01,0.01,1.1,1.25,1.71,3.46c0.56,2.04,0.83,5.36-1.11,9.56L118,442.38z"/>
		</g>
		<g>
			<path class="st4" d="M104.13,454.91c0.06-0.01,5.76-1.05,11.38-7.29l-0.2-0.18c-5.55,6.16-11.17,7.19-11.23,7.2L104.13,454.91z"
				/>
		</g>
	</g>
</g>
</svg>
