<?xml version="1.0" encoding="utf-8"?>
<!-- Generator: Adobe Illustrator 23.0.6, SVG Export Plug-In . SVG Version: 6.00 Build 0)  -->
<svg version="1.1" id="Capa_1" xmlns="http://www.w3.org/2000/svg" xmlns:xlink="http://www.w3.org/1999/xlink" x="0px" y="0px"
	 viewBox="0 0 300 300" style="enable-background:new 0 0 300 300;" xml:space="preserve">
<style type="text/css">
	.st0{fill:#B8B8B8;}
	.st1{fill:#FFFFFF;}
	.st2{fill:#477DCB;}
	.st3{fill:#C3304E;}
</style>
<g>
	<circle class="st0" cx="150" cy="150" r="129.9"/>
	<g>
		<g>
			<path class="st1" d="M150.79,224.88c-3.81,0-7.38-1.48-10.08-4.17l-23.53-23.53H96.42c-10.95,0-19.86-8.91-19.86-19.86v-81
				c0-10.95,8.91-19.86,19.86-19.86h108.75c10.95,0,19.86,8.91,19.86,19.86v81c0,10.95-8.91,19.86-19.86,19.86h-20.77l-23.53,23.53
				C158.18,223.39,154.6,224.88,150.79,224.88z M96.42,82.87c-7.41,0-13.44,6.03-13.44,13.44v81c0,7.41,6.03,13.44,13.44,13.44
				h23.42l25.41,25.41c3.05,3.05,8.02,3.06,11.08,0l25.41-25.41h23.42c7.41,0,13.44-6.03,13.44-13.44v-81
				c0-7.41-6.03-13.44-13.44-13.44H96.42z"/>
		</g>
		<g>
			<path class="st1" d="M119.58,182.91l-0.35-32.71l-18.93-26.66l30.99-10.44l19.51-26.25l19.51,26.25l30.99,10.44l-18.93,26.66
				l-0.35,32.71l-31.22-9.77L119.58,182.91z M150.79,166.42l24.89,7.79l0.28-26.08l15.1-21.26l-24.71-8.32l-15.55-20.93
				l-15.55,20.93l-24.71,8.32l15.1,21.26l0.28,26.08L150.79,166.42z"/>
		</g>
	</g>
</g>
</svg>
