<?xml version="1.0" encoding="utf-8"?>
<!-- Generator: Adobe Illustrator 23.0.6, SVG Export Plug-In . SVG Version: 6.00 Build 0)  -->
<svg version="1.1" id="Capa_1" xmlns="http://www.w3.org/2000/svg" xmlns:xlink="http://www.w3.org/1999/xlink" x="0px" y="0px"
	 viewBox="0 0 300 300" style="enable-background:new 0 0 300 300;" xml:space="preserve">
<style type="text/css">
	.st0{fill:#B8B8B8;}
	.st1{fill:#FFFFFF;}
	.st2{fill:#477DCB;}
	.st3{fill:#C3304E;}
</style>
<g>
	<circle class="st0" cx="150" cy="150" r="129.9"/>
	<g>
		<g>
			<path class="st1" d="M146.1,127.99l-0.41-0.21l-1.1-0.02l0.01-0.56l-0.05-0.04c-2-1.44-3.61-3.42-4.4-5.4
				c-0.87-0.84-1.6-2.43-1.71-5.36c0-1.07,0.19-1.95,0.55-2.65c-0.24-5.01,0.05-6.15,0.36-6.88c0.48-1.14,1.55-1.93,3.03-3.02
				c0.62-0.46,1.73-1.27,2.16-1.75c0.14-1.27,0.98-2.4,2.32-3.1c2.63-1.36,7.31-1.19,10.59,1.44c3.08,2.46,4.87,4.28,5.99,6.07
				c0.53,0.83,0.98,2.06,0.61,7.37c0.47,0.97,0.47,1.99,0.47,2.43c-0.11,2.98-0.84,4.59-1.71,5.44c-0.79,1.98-2.39,3.97-4.39,5.41
				l-0.05,0.03v0.61h-1.13l-0.32,0.17l-0.09-0.17H153v-3.85l2.43-1.27c1.39-1.05,2.31-2.45,2.52-3.32l0.48-2.07l0.61,0
				c0.04-0.27,0.07-0.55,0.09-0.8l-0.65-0.42l0.13-1.61c0.29-3.6,0.19-4.92,0.13-5.32c-0.54-0.8-1.66-2.11-4.64-4.5
				c-1.43-1.15-3.39-1.2-4.33-1c-0.52,1.84-2.38,3.21-4.19,4.54c-0.39,0.29-0.94,0.69-1.26,0.97c-0.02,0.47-0.08,1.93,0.11,5.35
				l0.09,1.69l-0.68,0.37c0.02,0.23,0.05,0.49,0.09,0.73l0.62,0l0.48,2.07c0.2,0.87,1.12,2.26,2.51,3.31l2.51,1.27l-0.07,3.91
				l-3.77-0.06L146.1,127.99z"/>
			<path class="st1" d="M150.38,149.92c-7.06-0.29-13.53-2.76-18.85-7.16l-1.35-1.12l0.47-1.69c1.8-6.45,6.96-11.45,13.37-13.11
				l0.56-1.95l5.17,1.5l-1.66,5.16l-1.58,0.26c-4.51,0.75-8.31,3.78-10.09,7.92c4.11,2.93,8.92,4.59,14.03,4.8l2.72-0.03
				c4.68-0.28,9.25-1.9,13.22-4.7c-1.69-4.11-5.42-7.16-9.91-7.97l-1.62-0.29l-1.56-5.22l5.17-1.5l0.6,2.08
				c6.36,1.76,11.4,6.78,13.08,13.2l0.44,1.68l-1.35,1.09c-5.17,4.19-11.36,6.62-17.9,7L150.38,149.92z"/>
		</g>
		<g>
			<path class="st1" d="M207.66,226H94.78c-16.25,0-16.25-16.54-16.25-21.97V95.6c0-14.01,5.47-21.12,16.25-21.12h112.88
				c14.17,0,15.98,11.29,15.98,21.12v108.44C223.64,213.46,221.99,226,207.66,226z M94.78,80.61c-5,0-10.11,1.78-10.11,14.98v108.44
				c0,14.61,5.22,15.83,10.11,15.83h112.88c4.98,0,9.85-1.22,9.85-15.83V95.6c0-13.85-4.46-14.98-9.85-14.98H94.78z"/>
		</g>
		<g>
			<rect x="101.63" y="162.97" class="st1" width="94.82" height="6.14"/>
		</g>
		<g>
			<rect x="101.63" y="181.94" class="st1" width="94.82" height="6.14"/>
		</g>
		<g>
			<rect x="101.63" y="200.9" class="st1" width="94.82" height="6.14"/>
		</g>
	</g>
</g>
</svg>
