<?xml version="1.0" encoding="utf-8"?>
<!-- Generator: Adobe Illustrator 23.0.6, SVG Export Plug-In . SVG Version: 6.00 Build 0)  -->
<svg version="1.1" id="Capa_1" xmlns="http://www.w3.org/2000/svg" xmlns:xlink="http://www.w3.org/1999/xlink" x="0px" y="0px"
	 viewBox="0 0 300 300" style="enable-background:new 0 0 300 300;" xml:space="preserve">
<style type="text/css">
	.st0{fill:#B8B8B8;}
	.st1{fill:#FFFFFF;}
	.st2{fill:#477DCB;}
	.st3{fill:#C3304E;}
</style>
<g>
	<circle class="st2" cx="150" cy="150" r="129.9"/>
	<g>
		<path class="st1" d="M146.55,239.64c-24.3-1.3-46.85-10.09-65.44-25.43l-1.93-1.6l0.68-2.41c6.65-23.74,26.57-41.77,50.82-46.05
			l0.76-2.63c-7.61-4.89-14.12-12.8-16.58-20.21c-4.25-2.79-5.26-11.18-5.46-16.56c0-1.85,0-5.49,2.18-8.07
			c-1.12-20.8,0.23-23.92,0.74-25.12c1.12-2.62,4.13-4.93,9.35-8.77c3.39-2.5,10.44-7.69,10.64-9.83c-0.18-3.15,1.8-6.05,5.41-7.91
			c7.95-4.09,22.85-3.45,33.07,4.74c13.82,11.07,18.44,16.95,21.14,21.25c0.87,1.37,2.88,4.56,1.19,25.97
			c1.92,2.57,1.92,5.97,1.92,7.61c-0.19,5.5-1.2,13.92-5.46,16.71c-2.42,7.24-8.76,15.03-16.17,19.93l0.9,3.1
			c24.1,4.64,43.57,22.76,49.72,46.36l0.63,2.4l-1.93,1.56c-18.41,14.93-40.43,23.55-63.67,24.95L146.55,239.64z M88,209.88
			c16.92,13.29,37.18,20.91,58.75,22.07l12.08-0.03c20.59-1.24,40.33-8.72,57.08-21.67c-6.08-19.62-22.77-34.52-43.24-38.38
			l-4.11,0.25l-4.22-14.52l2.71-1.48c7.38-4.03,14.09-12.02,15.62-18.59l0.69-2.95l2.17-0.02c0.84-1.58,1.68-6.12,1.82-10.08
			c0-2.16-0.29-2.73-0.38-2.85l-1.93-1.26l0.27-2.22c1.32-15.59,0.67-21.84,0.07-23.07c-2.19-3.47-6.4-8.86-19.4-19.28
			c-6.46-5.17-15.39-6.24-21.37-5.01c-3.05,0.63-4.31,1.63-4.6,1.99c0.16,5.96-6.92,11.17-13.77,16.22
			c-2.49,1.83-6.25,4.61-6.87,5.68c-0.41,1.12-0.92,7.43,0.01,23.45l0.14,2.43l-2.12,1.17c0,0.05-0.29,0.62-0.29,2.89
			c0.15,3.91,0.98,8.37,1.83,9.95l2.17,0.02l0.68,2.96c1.54,6.62,8.56,14.87,15.99,18.78l2.78,1.46l-4.24,14.61l-4.36-0.63
			C111.45,175.4,94.48,190.19,88,209.88z"/>
	</g>
</g>
</svg>
