<?xml version="1.0" encoding="utf-8"?>
<!-- Generator: Adobe Illustrator 23.0.6, SVG Export Plug-In . SVG Version: 6.00 Build 0)  -->
<svg version="1.1" id="Capa_1" xmlns="http://www.w3.org/2000/svg" xmlns:xlink="http://www.w3.org/1999/xlink" x="0px" y="0px"
	 viewBox="0 0 300 300" style="enable-background:new 0 0 300 300;" xml:space="preserve">
<style type="text/css">
	.st0{fill:#B8B8B8;}
	.st1{fill:#FFFFFF;}
	.st2{fill:#477DCB;}
	.st3{fill:#C3304E;}
</style>
<g>
	<circle class="st3" cx="150" cy="150" r="129.9"/>
	<g id="estandarte_8_">
		<g>
			<path class="st1" d="M82.47,224.57V82.58l69.2-5.28l0.24,0.02l68.96,5.26v141.99l-69.21-23.43L82.47,224.57z M151.67,194.36
				l62.79,21.26V88.52l-62.78-4.79l-62.78,4.79v127.1L151.67,194.36z"/>
		</g>
		<g>
			<path class="st1" d="M121.34,186.66l0.88-31.7l-19.66-25.19l30.93-8.98l18.18-26.18l18.18,26.18l30.93,8.98l-19.66,25.19
				l0.88,31.7l-30.33-10.6L121.34,186.66z M151.67,169.26l23.65,8.27l-0.69-24.7l15.25-19.54l-24.01-6.97l-14.2-20.46l-14.2,20.46
				l-24.01,6.97l15.25,19.54l-0.69,24.7L151.67,169.26z"/>
		</g>
	</g>
</g>
</svg>
