<?xml version="1.0" encoding="utf-8"?>
<!-- Generator: Adobe Illustrator 23.0.6, SVG Export Plug-In . SVG Version: 6.00 Build 0)  -->
<svg version="1.1" id="Capa_1" xmlns="http://www.w3.org/2000/svg" xmlns:xlink="http://www.w3.org/1999/xlink" x="0px" y="0px"
	 viewBox="0 0 300 300" style="enable-background:new 0 0 300 300;" xml:space="preserve">
<style type="text/css">
	.st0{fill:#B8B8B8;}
	.st1{fill:#FFFFFF;}
	.st2{fill:#477DCB;}
	.st3{fill:#C3304E;}
</style>
<g>
	<circle class="st0" cx="150" cy="150" r="129.9"/>
	<g id="inicio_4_">
		<path class="st1" d="M166.01,217.54v-25.99c0-6.85-5.57-12.42-12.41-12.42h-5.18c-6.84,0-12.41,5.57-12.41,12.42v25.99
			l-50.87-0.15v-70.55H66.11l80.33-71.64h9.16l80.31,71.64h-19.04v70.54L166.01,217.54z M91.35,211.2l38.46,0.11v-19.77
			c0-10.27,8.35-18.62,18.61-18.62h5.18c10.26,0,18.61,8.35,18.61,18.62v19.77l38.46-0.12v-70.56h8.97l-66.4-59.24h-4.43
			l-66.43,59.24h8.96V211.2z"/>
	</g>
</g>
</svg>
