<?xml version="1.0" encoding="utf-8"?>
<!-- Generator: Adobe Illustrator 23.0.6, SVG Export Plug-In . SVG Version: 6.00 Build 0)  -->
<svg version="1.1" id="Capa_1" xmlns="http://www.w3.org/2000/svg" xmlns:xlink="http://www.w3.org/1999/xlink" x="0px" y="0px"
	 viewBox="0 0 300 300" style="enable-background:new 0 0 300 300;" xml:space="preserve">
<style type="text/css">
	.st0{fill:#B8B8B8;}
	.st1{fill:#FFFFFF;}
	.st2{fill:#477DCB;}
	.st3{fill:#C3304E;}
</style>
<g>
	<circle class="st0" cx="150" cy="150" r="129.9"/>
	<g id="business_1_">
		<g>
			<g>
				<path class="st1" d="M186.81,224.94c-0.25,0-0.51-0.01-0.77-0.02l-90.71-4.49c-8.52-0.44-15.1-7.72-14.67-16.23l0.61-12.2
					l6.41,0.32l-0.61,12.2c-0.25,4.98,3.6,9.24,8.58,9.5l90.7,4.49c4.94,0.21,9.2-3.6,9.46-8.57l0.02-0.23l1.54-12.41l6.37,0.79
					l-1.52,12.3C201.74,218.57,194.93,224.94,186.81,224.94z"/>
			</g>
		</g>
		<g>
			<g>
				<path class="st1" d="M110.97,207.99c-7.25,0-13.74-5.14-15.17-12.52l-3.06-16.86l6.31-1.15l3.06,16.83
					c0.94,4.86,5.68,8.07,10.58,7.12l89.16-17.27c2.36-0.46,4.4-1.81,5.75-3.8c1.35-2,1.84-4.42,1.38-6.79l-3.42-17.11l6.29-1.26
					l3.43,17.13c0.79,4.08-0.04,8.2-2.36,11.63c-2.31,3.42-5.8,5.73-9.85,6.51l-89.16,17.27
					C112.92,207.9,111.94,207.99,110.97,207.99z"/>
			</g>
		</g>
		<g id="icono6_2_">
			<g>
				<path class="st1" d="M122.35,192.02c-5.49,0-10.82-2.93-13.62-8.09l-23.81-43.94c-4.06-7.5-1.27-16.9,6.22-20.96l79.85-43.27
					c7.5-4.05,16.89-1.24,20.94,6.25l23.81,43.93c1.97,3.64,2.41,7.83,1.23,11.79c-1.18,3.95-3.82,7.2-7.44,9.16l-79.83,43.26
					C127.35,191.42,124.83,192.02,122.35,192.02z M178.31,80.33c-1.45,0-2.91,0.35-4.28,1.08L94.2,124.67
					c-4.38,2.38-6.01,7.88-3.63,12.26l23.81,43.94c2.38,4.38,7.88,6.01,12.25,3.64l79.84-43.26c2.12-1.15,3.66-3.04,4.35-5.35
					c0.69-2.32,0.43-4.77-0.72-6.9l-23.81-43.94C184.64,82.05,181.52,80.33,178.31,80.33z"/>
			</g>
			<g>
				<path class="st1" d="M115.56,161.99l-16.19-29.87l31.74-17.19l16.19,29.87L115.56,161.99z M108.08,134.71l10.07,18.58
					l20.45-11.08l-10.07-18.58L108.08,134.71z"/>
			</g>
		</g>
		<g>
			
				<rect x="115.07" y="148.18" transform="matrix(0.8791 -0.4767 0.4767 0.8791 -52.7581 94.7984)" class="st1" width="90.81" height="6.42"/>
		</g>
		<g>
			
				<rect x="138.55" y="103.5" transform="matrix(0.8791 -0.4767 0.4767 0.8791 -31.3679 89.7668)" class="st1" width="45.4" height="6.42"/>
		</g>
		<g>
			
				<rect x="149.26" y="120.42" transform="matrix(0.8792 -0.4764 0.4764 0.8792 -38.1296 96.8529)" class="st1" width="45.4" height="6.42"/>
		</g>
	</g>
</g>
</svg>
