<?xml version="1.0" encoding="utf-8"?>
<!-- Generator: Adobe Illustrator 23.0.6, SVG Export Plug-In . SVG Version: 6.00 Build 0)  -->
<svg version="1.1" id="Capa_1" xmlns="http://www.w3.org/2000/svg" xmlns:xlink="http://www.w3.org/1999/xlink" x="0px" y="0px"
	 viewBox="0 0 300 300" style="enable-background:new 0 0 300 300;" xml:space="preserve">
<style type="text/css">
	.st0{fill:#B8B8B8;}
	.st1{fill:#FFFFFF;}
	.st2{fill:#477DCB;}
	.st3{fill:#C3304E;}
</style>
<g>
	<circle class="st0" cx="150" cy="150" r="129.9"/>
	<g>
		<g>
			<path class="st1" d="M139.25,138.82H81.83V81.41h57.42V138.82z M88.07,132.58h44.93V87.65H88.07V132.58z"/>
		</g>
		<g>
			<path class="st1" d="M139.25,219.55H81.83v-57.41h57.42V219.55z M88.07,213.31h44.93v-44.93H88.07V213.31z"/>
		</g>
		<g>
			<path class="st1" d="M220.57,138.82h-57.42V81.41h57.42V138.82z M169.39,132.58h44.94V87.65h-44.94V132.58z"/>
		</g>
		<g>
			<rect x="163.76" y="162.75" class="st1" width="9.36" height="9.36"/>
		</g>
		<g>
			<rect x="182.49" y="162.75" class="st1" width="9.37" height="9.36"/>
		</g>
		<g>
			<rect x="191.86" y="162.75" class="st1" width="9.37" height="9.36"/>
		</g>
		<g>
			<rect x="210.6" y="162.75" class="st1" width="9.37" height="9.36"/>
		</g>
		<g>
			<rect x="191.86" y="172.12" class="st1" width="9.37" height="9.36"/>
		</g>
		<g>
			<rect x="173.13" y="181.48" class="st1" width="9.37" height="9.36"/>
		</g>
		<g>
			<rect x="210.6" y="181.48" class="st1" width="9.37" height="9.36"/>
		</g>
		<g>
			<rect x="163.76" y="190.84" class="st1" width="9.36" height="9.37"/>
		</g>
		<g>
			<rect x="182.49" y="190.84" class="st1" width="9.37" height="9.37"/>
		</g>
		<g>
			<rect x="191.86" y="190.84" class="st1" width="9.37" height="9.37"/>
		</g>
		<g>
			<rect x="210.6" y="190.84" class="st1" width="9.37" height="9.37"/>
		</g>
		<g>
			<rect x="163.76" y="200.21" class="st1" width="9.36" height="9.36"/>
		</g>
		<g>
			<rect x="210.6" y="200.21" class="st1" width="9.37" height="9.36"/>
		</g>
		<g>
			<rect x="163.76" y="209.57" class="st1" width="9.36" height="9.36"/>
		</g>
		<g>
			<rect x="182.49" y="209.57" class="st1" width="9.37" height="9.36"/>
		</g>
		<g>
			<rect x="191.86" y="209.57" class="st1" width="9.37" height="9.36"/>
		</g>
		<g>
			<rect x="201.23" y="209.57" class="st1" width="9.37" height="9.36"/>
		</g>
	</g>
</g>
</svg>
