<?xml version="1.0" encoding="utf-8"?>
<!-- Generator: Adobe Illustrator 23.0.6, SVG Export Plug-In . SVG Version: 6.00 Build 0)  -->
<svg version="1.1" id="Capa_1" xmlns="http://www.w3.org/2000/svg" xmlns:xlink="http://www.w3.org/1999/xlink" x="0px" y="0px"
	 viewBox="0 0 96 96" style="enable-background:new 0 0 96 96;" xml:space="preserve">
<style type="text/css">
	.st0{fill:url(#SVGID_1_);}
	.st1{fill:url(#SVGID_2_);}
	.st2{fill:url(#SVGID_3_);}
	.st3{fill:url(#SVGID_4_);}
	.st4{fill:url(#SVGID_5_);}
	.st5{fill:url(#SVGID_6_);}
	.st6{fill:url(#SVGID_7_);}
	.st7{fill:url(#SVGID_8_);}
	.st8{fill:url(#SVGID_9_);}
	.st9{fill:url(#SVGID_10_);}
	.st10{fill:url(#SVGID_11_);}
	.st11{fill:url(#SVGID_12_);}
	.st12{fill:url(#SVGID_13_);}
	.st13{fill:url(#SVGID_14_);}
	.st14{fill:url(#SVGID_15_);}
	.st15{fill:url(#SVGID_16_);}
	.st16{display:none;}
	.st17{display:inline;fill:url(#SVGID_17_);}
	.st18{display:inline;fill:url(#SVGID_18_);}
	.st19{display:inline;fill:url(#SVGID_19_);}
	.st20{fill:url(#SVGID_20_);}
	.st21{fill:url(#SVGID_21_);}
	.st22{fill:url(#SVGID_22_);}
	.st23{fill:url(#SVGID_23_);}
	.st24{fill:url(#SVGID_24_);}
	.st25{display:none;fill:url(#SVGID_25_);}
	.st26{fill:url(#SVGID_26_);}
	.st27{fill:url(#SVGID_27_);}
	.st28{fill:url(#SVGID_28_);}
</style>
<g>
	<circle cx="48" cy="48" r="47"/>
	
		<linearGradient id="SVGID_1_" gradientUnits="userSpaceOnUse" x1="22.4775" y1="13.6228" x2="22.4775" y2="86.9545" gradientTransform="matrix(1 0 0 -1 0 98)">
		<stop  offset="0" style="stop-color:#A68930"/>
		<stop  offset="0.1261" style="stop-color:#B79C49"/>
		<stop  offset="0.2938" style="stop-color:#CAAF67"/>
		<stop  offset="0.4649" style="stop-color:#D9C080"/>
		<stop  offset="0.638" style="stop-color:#E4CC92"/>
		<stop  offset="0.8146" style="stop-color:#EAD39C"/>
		<stop  offset="1" style="stop-color:#ECD5A0"/>
	</linearGradient>
	<path class="st0" d="M33.72,84.62c-7.36-2.84-13.65-7.78-18.19-14.28c-4.64-6.65-7.1-14.46-7.1-22.6c0-8.56,2.7-16.71,7.79-23.56
		c4.99-6.72,11.83-11.6,19.77-14.12l0.52,1.64c-7.59,2.41-14.13,7.08-18.91,13.5c-4.87,6.55-7.45,14.34-7.45,22.53
		c0,7.78,2.35,15.26,6.79,21.61c4.34,6.21,10.36,10.94,17.4,13.66L33.72,84.62z"/>
	
		<linearGradient id="SVGID_2_" gradientUnits="userSpaceOnUse" x1="73.0881" y1="13.5827" x2="73.0881" y2="87.1818" gradientTransform="matrix(1 0 0 -1 0 98)">
		<stop  offset="0" style="stop-color:#A68930"/>
		<stop  offset="0.1261" style="stop-color:#B79C49"/>
		<stop  offset="0.2938" style="stop-color:#CAAF67"/>
		<stop  offset="0.4649" style="stop-color:#D9C080"/>
		<stop  offset="0.638" style="stop-color:#E4CC92"/>
		<stop  offset="0.8146" style="stop-color:#EAD39C"/>
		<stop  offset="1" style="stop-color:#ECD5A0"/>
	</linearGradient>
	<path class="st1" d="M62.09,84.66l-0.62-1.61c7.07-2.71,13.11-7.43,17.47-13.65c4.46-6.37,6.82-13.86,6.82-21.66
		c0-8.32-2.65-16.21-7.67-22.82c-4.85-6.4-11.74-11.17-19.4-13.43l0.49-1.65c8.01,2.37,15.22,7.35,20.29,14.04
		c5.24,6.91,8.01,15.16,8.01,23.87c0,8.16-2.46,15.99-7.13,22.65C75.8,76.9,69.48,81.83,62.09,84.66z"/>
	
		<linearGradient id="SVGID_3_" gradientUnits="userSpaceOnUse" x1="23.0385" y1="14.4388" x2="23.0385" y2="86.1605" gradientTransform="matrix(1 0 0 -1 0 98)">
		<stop  offset="0" style="stop-color:#A68930"/>
		<stop  offset="0.1261" style="stop-color:#B79C49"/>
		<stop  offset="0.2938" style="stop-color:#CAAF67"/>
		<stop  offset="0.4649" style="stop-color:#D9C080"/>
		<stop  offset="0.638" style="stop-color:#E4CC92"/>
		<stop  offset="0.8146" style="stop-color:#EAD39C"/>
		<stop  offset="1" style="stop-color:#ECD5A0"/>
	</linearGradient>
	<path class="st2" d="M34.04,83.8c-7.2-2.78-13.35-7.61-17.79-13.97c-4.54-6.5-6.94-14.15-6.94-22.1c0-8.37,2.63-16.34,7.61-23.04
		c4.89-6.57,11.57-11.35,19.34-13.81l0.51,1.61c-7.42,2.36-13.82,6.92-18.49,13.21c-4.76,6.41-7.28,14.03-7.28,22.04
		c0,7.61,2.3,14.92,6.64,21.14c4.25,6.08,10.13,10.7,17.01,13.36L34.04,83.8z"/>
	
		<linearGradient id="SVGID_4_" gradientUnits="userSpaceOnUse" x1="72.5365" y1="14.4002" x2="72.5365" y2="86.379" gradientTransform="matrix(1 0 0 -1 0 98)">
		<stop  offset="0" style="stop-color:#A68930"/>
		<stop  offset="0.1261" style="stop-color:#B79C49"/>
		<stop  offset="0.2938" style="stop-color:#CAAF67"/>
		<stop  offset="0.4649" style="stop-color:#D9C080"/>
		<stop  offset="0.638" style="stop-color:#E4CC92"/>
		<stop  offset="0.8146" style="stop-color:#EAD39C"/>
		<stop  offset="1" style="stop-color:#ECD5A0"/>
	</linearGradient>
	<path class="st3" d="M61.78,83.84l-0.6-1.57C68.09,79.62,74,75,78.26,68.91c4.36-6.23,6.67-13.55,6.67-21.18
		c0-8.14-2.59-15.86-7.5-22.32c-4.75-6.26-11.48-10.92-18.97-13.14l0.48-1.62c7.83,2.31,14.88,7.19,19.84,13.73
		c5.13,6.76,7.84,14.83,7.84,23.34c0,7.98-2.41,15.64-6.97,22.15C75.18,76.25,69,81.07,61.78,83.84z"/>
	<g class="st16">
		
			<linearGradient id="SVGID_5_" gradientUnits="userSpaceOnUse" x1="32.446" y1="94.9056" x2="32.446" y2="8.7002" gradientTransform="matrix(1 0 0 -1 0 98)">
			<stop  offset="0" style="stop-color:#EDD687"/>
			<stop  offset="0.1872" style="stop-color:#EDD585"/>
			<stop  offset="0.2547" style="stop-color:#ECD17F"/>
			<stop  offset="0.3027" style="stop-color:#EACA75"/>
			<stop  offset="0.3416" style="stop-color:#E8C066"/>
			<stop  offset="0.3749" style="stop-color:#E5B352"/>
			<stop  offset="0.4039" style="stop-color:#E2A33C"/>
			<stop  offset="0.4212" style="stop-color:#E0972E"/>
			<stop  offset="0.4434" style="stop-color:#E09B31"/>
			<stop  offset="0.702" style="stop-color:#EBC15D"/>
			<stop  offset="0.8952" style="stop-color:#F3D97C"/>
			<stop  offset="1" style="stop-color:#F6E288"/>
		</linearGradient>
		<path style="display:inline;fill:url(#SVGID_5_);" d="M23.58,34.1l8.87,24.42h0.08l8.79-24.42h2.75L33.94,61.39h-3.02L20.83,34.1
			H23.58z"/>
		
			<linearGradient id="SVGID_6_" gradientUnits="userSpaceOnUse" x1="47.9629" y1="94.9056" x2="47.9629" y2="8.7002" gradientTransform="matrix(1 0 0 -1 0 98)">
			<stop  offset="0" style="stop-color:#EDD687"/>
			<stop  offset="0.1872" style="stop-color:#EDD585"/>
			<stop  offset="0.2547" style="stop-color:#ECD17F"/>
			<stop  offset="0.3027" style="stop-color:#EACA75"/>
			<stop  offset="0.3416" style="stop-color:#E8C066"/>
			<stop  offset="0.3749" style="stop-color:#E5B352"/>
			<stop  offset="0.4039" style="stop-color:#E2A33C"/>
			<stop  offset="0.4212" style="stop-color:#E0972E"/>
			<stop  offset="0.4434" style="stop-color:#E09B31"/>
			<stop  offset="0.702" style="stop-color:#EBC15D"/>
			<stop  offset="0.8952" style="stop-color:#F3D97C"/>
			<stop  offset="1" style="stop-color:#F6E288"/>
		</linearGradient>
		<path style="display:inline;fill:url(#SVGID_6_);" d="M49.26,34.1v27.29h-2.6V34.1H49.26z"/>
		
			<linearGradient id="SVGID_7_" gradientUnits="userSpaceOnUse" x1="65.0645" y1="94.9056" x2="65.0645" y2="8.7002" gradientTransform="matrix(1 0 0 -1 0 98)">
			<stop  offset="0" style="stop-color:#EDD687"/>
			<stop  offset="0.1872" style="stop-color:#EDD585"/>
			<stop  offset="0.2547" style="stop-color:#ECD17F"/>
			<stop  offset="0.3027" style="stop-color:#EACA75"/>
			<stop  offset="0.3416" style="stop-color:#E8C066"/>
			<stop  offset="0.3749" style="stop-color:#E5B352"/>
			<stop  offset="0.4039" style="stop-color:#E2A33C"/>
			<stop  offset="0.4212" style="stop-color:#E0972E"/>
			<stop  offset="0.4434" style="stop-color:#E09B31"/>
			<stop  offset="0.702" style="stop-color:#EBC15D"/>
			<stop  offset="0.8952" style="stop-color:#F3D97C"/>
			<stop  offset="1" style="stop-color:#F6E288"/>
		</linearGradient>
		<path style="display:inline;fill:url(#SVGID_7_);" d="M67.07,34.1c1.22,0,2.33,0.17,3.32,0.52c0.99,0.34,1.85,0.85,2.56,1.53
			c0.71,0.68,1.26,1.5,1.64,2.47c0.38,0.97,0.57,2.06,0.57,3.29c0,1.22-0.19,2.32-0.57,3.29c-0.38,0.97-0.93,1.79-1.64,2.47
			c-0.71,0.67-1.57,1.18-2.56,1.53c-0.99,0.34-2.1,0.52-3.32,0.52h-9.52v11.7h-2.6V34.1H67.07z M66.5,47.47
			c1.81,0,3.27-0.46,4.39-1.37c1.12-0.92,1.68-2.32,1.68-4.21c0-1.88-0.56-3.29-1.68-4.2c-1.12-0.92-2.59-1.38-4.39-1.38h-8.94
			v11.16H66.5z"/>
	</g>
	<g>
		<g>
			
				<linearGradient id="SVGID_8_" gradientUnits="userSpaceOnUse" x1="-170.7002" y1="177.5955" x2="-170.7002" y2="191.1575" gradientTransform="matrix(1 0 0 -1 218.7002 194)">
				<stop  offset="0" style="stop-color:#A68930"/>
				<stop  offset="0.1261" style="stop-color:#B79C49"/>
				<stop  offset="0.2938" style="stop-color:#CAAF67"/>
				<stop  offset="0.4649" style="stop-color:#D9C080"/>
				<stop  offset="0.638" style="stop-color:#E4CC92"/>
				<stop  offset="0.8146" style="stop-color:#EAD39C"/>
				<stop  offset="1" style="stop-color:#ECD5A0"/>
			</linearGradient>
			<polygon class="st7" points="48,2.66 50.24,7.2 55.25,7.93 51.63,11.46 52.48,16.45 48,14.09 43.52,16.45 44.37,11.46 
				40.75,7.93 45.76,7.2 			"/>
		</g>
	</g>
	<g>
		<g>
			
				<linearGradient id="SVGID_9_" gradientUnits="userSpaceOnUse" x1="-178.0668" y1="104.9474" x2="-178.0668" y2="112.8941" gradientTransform="matrix(1 0 0 -1 218.7002 194)">
				<stop  offset="0" style="stop-color:#A68930"/>
				<stop  offset="0.1261" style="stop-color:#B79C49"/>
				<stop  offset="0.2938" style="stop-color:#CAAF67"/>
				<stop  offset="0.4649" style="stop-color:#D9C080"/>
				<stop  offset="0.638" style="stop-color:#E4CC92"/>
				<stop  offset="0.8146" style="stop-color:#EAD39C"/>
				<stop  offset="1" style="stop-color:#ECD5A0"/>
			</linearGradient>
			<path class="st8" d="M39.03,81v7.17h4.28v0.91h-5.35V81L39.03,81L39.03,81z"/>
			
				<linearGradient id="SVGID_10_" gradientUnits="userSpaceOnUse" x1="-174.0718" y1="104.9474" x2="-174.0718" y2="112.8941" gradientTransform="matrix(1 0 0 -1 218.7002 194)">
				<stop  offset="0" style="stop-color:#A68930"/>
				<stop  offset="0.1261" style="stop-color:#B79C49"/>
				<stop  offset="0.2938" style="stop-color:#CAAF67"/>
				<stop  offset="0.4649" style="stop-color:#D9C080"/>
				<stop  offset="0.638" style="stop-color:#E4CC92"/>
				<stop  offset="0.8146" style="stop-color:#EAD39C"/>
				<stop  offset="1" style="stop-color:#ECD5A0"/>
			</linearGradient>
			<path class="st9" d="M44.15,82.18V81h0.96v1.18H44.15z M45.11,83.23v5.85h-0.96v-5.85H45.11z"/>
			
				<linearGradient id="SVGID_11_" gradientUnits="userSpaceOnUse" x1="-169.6761" y1="104.9474" x2="-169.6761" y2="112.8941" gradientTransform="matrix(1 0 0 -1 218.7002 194)">
				<stop  offset="0" style="stop-color:#A68930"/>
				<stop  offset="0.1261" style="stop-color:#B79C49"/>
				<stop  offset="0.2938" style="stop-color:#CAAF67"/>
				<stop  offset="0.4649" style="stop-color:#D9C080"/>
				<stop  offset="0.638" style="stop-color:#E4CC92"/>
				<stop  offset="0.8146" style="stop-color:#EAD39C"/>
				<stop  offset="1" style="stop-color:#ECD5A0"/>
			</linearGradient>
			<path class="st10" d="M47.51,83.23v0.93h0.02c0.4-0.71,1.03-1.06,1.9-1.06c0.39,0,0.71,0.05,0.96,0.16
				c0.26,0.1,0.46,0.25,0.62,0.44c0.16,0.19,0.27,0.41,0.34,0.67c0.06,0.26,0.09,0.55,0.09,0.87v3.85h-0.96v-3.96
				c0-0.36-0.1-0.65-0.32-0.86c-0.21-0.21-0.5-0.32-0.87-0.32c-0.29,0-0.55,0.05-0.76,0.14c-0.22,0.09-0.39,0.22-0.54,0.38
				c-0.14,0.17-0.25,0.36-0.32,0.58c-0.07,0.22-0.11,0.47-0.11,0.73v3.3H46.6v-5.85L47.51,83.23L47.51,83.23z"/>
			
				<linearGradient id="SVGID_12_" gradientUnits="userSpaceOnUse" x1="-163.203" y1="104.9474" x2="-163.203" y2="112.8941" gradientTransform="matrix(1 0 0 -1 218.7002 194)">
				<stop  offset="0" style="stop-color:#A68930"/>
				<stop  offset="0.1261" style="stop-color:#B79C49"/>
				<stop  offset="0.2938" style="stop-color:#CAAF67"/>
				<stop  offset="0.4649" style="stop-color:#D9C080"/>
				<stop  offset="0.638" style="stop-color:#E4CC92"/>
				<stop  offset="0.8146" style="stop-color:#EAD39C"/>
				<stop  offset="1" style="stop-color:#ECD5A0"/>
			</linearGradient>
			<path class="st11" d="M53.91,81v4.79l2.67-2.56h1.29l-2.32,2.13l2.49,3.72h-1.22l-2-3.06l-0.91,0.84v2.22h-0.96V81H53.91z"/>
		</g>
	</g>
	
		<linearGradient id="SVGID_13_" gradientUnits="userSpaceOnUse" x1="47.9985" y1="90.8356" x2="47.9985" y2="10.1678" gradientTransform="matrix(1 0 0 -1 0 98)">
		<stop  offset="0" style="stop-color:#EDD687"/>
		<stop  offset="0.0216" style="stop-color:#ECD382"/>
		<stop  offset="0.0481" style="stop-color:#EACA75"/>
		<stop  offset="0.0773" style="stop-color:#E7BB5E"/>
		<stop  offset="0.1081" style="stop-color:#E2A541"/>
		<stop  offset="0.1278" style="stop-color:#E0972E"/>
		<stop  offset="0.1613" style="stop-color:#E09B31"/>
		<stop  offset="0.5509" style="stop-color:#EBC15D"/>
		<stop  offset="0.842" style="stop-color:#F3D97C"/>
		<stop  offset="1" style="stop-color:#F6E288"/>
	</linearGradient>
	<path style="display:none;fill:url(#SVGID_13_);" d="M48,7.16C25.72,7.16,7.66,25.22,7.66,47.5c0,22.28,18.06,40.33,40.34,40.33
		S88.33,69.78,88.33,47.5C88.33,25.22,70.28,7.16,48,7.16z M48,86.67c-20.87,0-37.79-16.92-37.79-37.79S27.13,11.09,48,11.09
		c20.87,0,37.79,16.92,37.79,37.79S68.87,86.67,48,86.67z"/>
	<g>
		<g>
			
				<linearGradient id="SVGID_14_" gradientUnits="userSpaceOnUse" x1="-185.6131" y1="132.4658" x2="-185.6131" y2="159.7764" gradientTransform="matrix(1 0 0 -1 218.7002 194)">
				<stop  offset="0" style="stop-color:#A68930"/>
				<stop  offset="0.1261" style="stop-color:#B79C49"/>
				<stop  offset="0.2938" style="stop-color:#CAAF67"/>
				<stop  offset="0.4649" style="stop-color:#D9C080"/>
				<stop  offset="0.638" style="stop-color:#E4CC92"/>
				<stop  offset="0.8146" style="stop-color:#EAD39C"/>
				<stop  offset="1" style="stop-color:#ECD5A0"/>
			</linearGradient>
			<path class="st13" d="M30.93,61.63l-9.76-27.77h3.97l7.93,24.07h0.08l8.01-24.07h3.85l-9.88,27.77H30.93z"/>
			
				<linearGradient id="SVGID_15_" gradientUnits="userSpaceOnUse" x1="-170.6809" y1="132.4658" x2="-170.6809" y2="159.7764" gradientTransform="matrix(1 0 0 -1 218.7002 194)">
				<stop  offset="0" style="stop-color:#A68930"/>
				<stop  offset="0.1261" style="stop-color:#B79C49"/>
				<stop  offset="0.2938" style="stop-color:#CAAF67"/>
				<stop  offset="0.4649" style="stop-color:#D9C080"/>
				<stop  offset="0.638" style="stop-color:#E4CC92"/>
				<stop  offset="0.8146" style="stop-color:#EAD39C"/>
				<stop  offset="1" style="stop-color:#ECD5A0"/>
			</linearGradient>
			<path class="st14" d="M49.87,33.86v27.77h-3.69V33.86H49.87z"/>
			
				<linearGradient id="SVGID_16_" gradientUnits="userSpaceOnUse" x1="-154.2106" y1="132.4658" x2="-154.2106" y2="159.7764" gradientTransform="matrix(1 0 0 -1 218.7002 194)">
				<stop  offset="0" style="stop-color:#A68930"/>
				<stop  offset="0.1261" style="stop-color:#B79C49"/>
				<stop  offset="0.2938" style="stop-color:#CAAF67"/>
				<stop  offset="0.4649" style="stop-color:#D9C080"/>
				<stop  offset="0.638" style="stop-color:#E4CC92"/>
				<stop  offset="0.8146" style="stop-color:#EAD39C"/>
				<stop  offset="1" style="stop-color:#ECD5A0"/>
			</linearGradient>
			<path class="st15" d="M66.32,33.86c2.8,0,4.92,0.72,6.36,2.16c1.44,1.44,2.16,3.46,2.16,6.05c0,2.59-0.72,4.62-2.16,6.07
				c-1.44,1.45-3.56,2.16-6.36,2.14h-8.48v11.36h-3.7V33.86H66.32z M65.07,47.16c2.1,0.03,3.64-0.4,4.61-1.28
				c0.97-0.88,1.46-2.15,1.46-3.81c0-1.66-0.49-2.92-1.46-3.79c-0.97-0.87-2.51-1.3-4.61-1.3h-7.23v10.19L65.07,47.16z"/>
		</g>
	</g>
</g>
</svg>
