<?xml version="1.0" encoding="utf-8"?>
<!-- Generator: Adobe Illustrator 23.0.6, SVG Export Plug-In . SVG Version: 6.00 Build 0)  -->
<svg version="1.1" id="Capa_1" xmlns="http://www.w3.org/2000/svg" xmlns:xlink="http://www.w3.org/1999/xlink" x="0px" y="0px"
	 viewBox="0 0 96 96" style="enable-background:new 0 0 96 96;" xml:space="preserve">
<style type="text/css">
	.st0{fill:url(#SVGID_1_);}
	.st1{fill:url(#SVGID_2_);}
	.st2{fill:url(#SVGID_3_);}
	.st3{fill:url(#SVGID_4_);}
	.st4{fill:url(#SVGID_5_);}
	.st5{fill:url(#SVGID_6_);}
	.st6{fill:url(#SVGID_7_);}
	.st7{fill:url(#SVGID_8_);}
	.st8{fill:url(#SVGID_9_);}
	.st9{fill:url(#SVGID_10_);}
	.st10{fill:url(#SVGID_11_);}
	.st11{fill:url(#SVGID_12_);}
	.st12{fill:url(#SVGID_13_);}
	.st13{fill:url(#SVGID_14_);}
	.st14{fill:url(#SVGID_15_);}
	.st15{fill:url(#SVGID_16_);}
	.st16{display:none;}
	.st17{display:inline;fill:url(#SVGID_17_);}
	.st18{display:inline;fill:url(#SVGID_18_);}
	.st19{display:inline;fill:url(#SVGID_19_);}
	.st20{fill:url(#SVGID_20_);}
	.st21{fill:url(#SVGID_21_);}
	.st22{fill:url(#SVGID_22_);}
	.st23{fill:url(#SVGID_23_);}
	.st24{fill:url(#SVGID_24_);}
	.st25{display:none;fill:url(#SVGID_25_);}
	.st26{fill:url(#SVGID_26_);}
	.st27{fill:url(#SVGID_27_);}
	.st28{fill:url(#SVGID_28_);}
</style>
<g>
	<circle cx="48" cy="48" r="47"/>
	<g>
		<g>
			
				<linearGradient id="SVGID_1_" gradientUnits="userSpaceOnUse" x1="-170.7002" y1="177.5955" x2="-170.7002" y2="191.1575" gradientTransform="matrix(1 0 0 -1 218.7002 194)">
				<stop  offset="0" style="stop-color:#A48730"/>
				<stop  offset="0.1261" style="stop-color:#B59A49"/>
				<stop  offset="0.2938" style="stop-color:#C8AD67"/>
				<stop  offset="0.4649" style="stop-color:#D7BE80"/>
				<stop  offset="0.638" style="stop-color:#E2CA90"/>
				<stop  offset="0.8146" style="stop-color:#E8D19A"/>
				<stop  offset="1" style="stop-color:#EAD39E"/>
			</linearGradient>
			<polygon class="st0" points="48,2.66 50.24,7.2 55.25,7.93 51.63,11.46 52.48,16.45 48,14.09 43.52,16.45 44.37,11.46 
				40.75,7.93 45.76,7.2 			"/>
		</g>
	</g>
	<g>
		<linearGradient id="SVGID_2_" gradientUnits="userSpaceOnUse" x1="47.9619" y1="88.975" x2="47.9619" y2="7.8277">
			<stop  offset="0" style="stop-color:#A48730"/>
			<stop  offset="0.1261" style="stop-color:#B59A49"/>
			<stop  offset="0.2938" style="stop-color:#C8AD67"/>
			<stop  offset="0.4649" style="stop-color:#D7BE80"/>
			<stop  offset="0.638" style="stop-color:#E2CA90"/>
			<stop  offset="0.8146" style="stop-color:#E8D19A"/>
			<stop  offset="1" style="stop-color:#EAD39E"/>
		</linearGradient>
		<path class="st1" d="M47.96,88.97c-11.04,0-21.42-4.3-29.22-12.1S6.63,58.69,6.63,47.65c0-9.02,2.86-17.6,8.26-24.79
			c5.22-6.96,12.66-12.19,20.94-14.73l0.73,2.39c-7.78,2.38-14.76,7.3-19.67,13.84c-5.08,6.76-7.76,14.81-7.76,23.29
			c0,10.37,4.04,20.12,11.37,27.46c7.33,7.33,17.09,11.37,27.46,11.37c10.37,0,20.12-4.04,27.46-11.37
			c7.33-7.33,11.37-17.09,11.37-27.46c0-8.66-2.79-16.85-8.06-23.69c-5.11-6.63-12.33-11.5-20.35-13.73l0.67-2.4
			c8.53,2.37,16.22,7.56,21.65,14.61c5.61,7.28,8.58,16,8.58,25.21c0,11.04-4.3,21.42-12.1,29.22S59,88.97,47.96,88.97z"/>
	</g>
	<g>
		
			<linearGradient id="SVGID_3_" gradientUnits="userSpaceOnUse" x1="-180.7643" y1="113.2242" x2="-180.7643" y2="132.3182" gradientTransform="matrix(1 0 0 -1 218.7002 194)">
			<stop  offset="0" style="stop-color:#A48730"/>
			<stop  offset="0.4853" style="stop-color:#EAD39E"/>
			<stop  offset="1" style="stop-color:#A48730"/>
		</linearGradient>
		<path class="st2" d="M36.43,80.84L29.6,61.43h2.77l5.55,16.83h0.05l5.6-16.83h2.69l-6.91,19.41H36.43z"/>
		
			<linearGradient id="SVGID_4_" gradientUnits="userSpaceOnUse" x1="-170.3246" y1="113.2242" x2="-170.3246" y2="132.3182" gradientTransform="matrix(1 0 0 -1 218.7002 194)">
			<stop  offset="0" style="stop-color:#A48730"/>
			<stop  offset="0.4853" style="stop-color:#EAD39E"/>
			<stop  offset="1" style="stop-color:#A48730"/>
		</linearGradient>
		<path class="st3" d="M49.67,61.43v19.41h-2.58V61.43H49.67z"/>
		
			<linearGradient id="SVGID_5_" gradientUnits="userSpaceOnUse" x1="-158.8095" y1="113.2242" x2="-158.8095" y2="132.3182" gradientTransform="matrix(1 0 0 -1 218.7002 194)">
			<stop  offset="0" style="stop-color:#A48730"/>
			<stop  offset="0.4853" style="stop-color:#EAD39E"/>
			<stop  offset="1" style="stop-color:#A48730"/>
		</linearGradient>
		<path class="st4" d="M61.17,61.43c1.96,0,3.44,0.5,4.45,1.51c1.01,1.01,1.51,2.42,1.51,4.23c0,1.81-0.5,3.23-1.51,4.24
			c-1.01,1.02-2.49,1.51-4.45,1.5h-5.93v7.94h-2.58V61.43H61.17z M60.3,70.72c1.47,0.02,2.54-0.28,3.22-0.9
			c0.68-0.61,1.02-1.5,1.02-2.66c0-1.16-0.34-2.04-1.02-2.65c-0.68-0.61-1.75-0.91-3.22-0.91h-5.06v7.12H60.3z"/>
	</g>
	<g>
		<linearGradient id="SVGID_6_" gradientUnits="userSpaceOnUse" x1="31.6869" y1="38.0907" x2="64.6687" y2="38.0907">
			<stop  offset="0" style="stop-color:#A48730"/>
			<stop  offset="0.1261" style="stop-color:#B59A49"/>
			<stop  offset="0.2938" style="stop-color:#C8AD67"/>
			<stop  offset="0.4649" style="stop-color:#D7BE80"/>
			<stop  offset="0.638" style="stop-color:#E2CA90"/>
			<stop  offset="0.8146" style="stop-color:#E8D19A"/>
			<stop  offset="1" style="stop-color:#EAD39E"/>
		</linearGradient>
		<path class="st5" d="M46.94,58.12l-0.03,0c-5.44-0.29-10.54-2.28-14.74-5.75l-0.49-0.4l0.17-0.61c1.5-5.36,5.99-9.43,11.45-10.43
			l0.13-0.45c-1.69-1.11-3.13-2.86-3.69-4.52c-0.62-0.42-1.16-1.46-1.25-3.8c0-0.43,0-1.25,0.49-1.86
			c-0.25-4.66,0.06-5.38,0.18-5.66c0.26-0.62,0.95-1.14,2.14-2.02c0.73-0.54,2.26-1.66,2.35-2.14c-0.04-0.73,0.42-1.42,1.28-1.86
			c1.82-0.94,5.23-0.79,7.56,1.08c3.12,2.5,4.17,3.83,4.78,4.81c0.2,0.32,0.66,1.05,0.29,5.87c0.43,0.6,0.43,1.37,0.43,1.75
			c-0.04,1.25-0.27,3.15-1.25,3.83c-0.55,1.61-1.94,3.33-3.57,4.44l0.2,0.58c5.4,1.09,9.76,5.18,11.14,10.48l0.16,0.61l-0.49,0.4
			c-4.16,3.37-9.14,5.32-14.39,5.64l-0.06,0L46.94,58.12z M33.93,51.27c3.77,2.94,8.27,4.63,13.07,4.89l2.71-0.01
			c4.62-0.28,9.01-1.94,12.74-4.8c-1.38-4.37-5.14-7.68-9.72-8.5l-0.1-0.02l-0.78-0.23l-1.04-3.09l0.72-0.39
			c1.61-0.88,3.13-2.68,3.46-4.11l0.17-0.75l0.51,0c0.17-0.38,0.34-1.34,0.37-2.16c0-0.35-0.04-0.5-0.06-0.56l-0.45-0.29l0.05-0.58
			c0.29-3.45,0.15-4.85,0.03-5.13c-0.48-0.76-1.42-1.96-4.33-4.3c-1.42-1.13-3.3-1.33-4.48-1.15c-0.73,0.11-1.08,0.33-1.18,0.42
			c0,1.38-1.6,2.56-3.14,3.69c-0.53,0.39-1.33,0.98-1.51,1.23c-0.1,0.32-0.2,1.76,0.01,5.23L41,31.28l-0.49,0.27
			c-0.02,0.06-0.05,0.21-0.05,0.58c0.03,0.81,0.2,1.75,0.37,2.13l0.51,0l0.17,0.75c0.34,1.46,1.89,3.29,3.54,4.15l0.71,0.37
			l-0.9,3.1l-1,0.19C39.23,43.59,35.4,46.88,33.93,51.27z M45.61,20.41C45.61,20.41,45.61,20.41,45.61,20.41
			C45.61,20.41,45.61,20.41,45.61,20.41z"/>
	</g>
</g>
</svg>
