<?xml version="1.0" encoding="utf-8"?>
<!-- Generator: Adobe Illustrator 23.0.6, SVG Export Plug-In . SVG Version: 6.00 Build 0)  -->
<svg version="1.1" id="Capa_1" xmlns="http://www.w3.org/2000/svg" xmlns:xlink="http://www.w3.org/1999/xlink" x="0px" y="0px"
	 viewBox="0 0 100 100" style="enable-background:new 0 0 100 100;" xml:space="preserve">
<style type="text/css">
	.st0{fill:#FFFFFF;}
	.st1{fill:#B3B3B3;}
</style>
<g>
	<g>
		<path class="st0" d="M37.69,80.29c-1.16,0-2.11-0.94-2.11-2.1l-0.4-54.23c-0.01-1.17,0.93-2.12,2.1-2.13c0.01,0,0.01,0,0.02,0
			c1.16,0,2.11,0.94,2.11,2.1l0.4,54.23c0.01,1.17-0.93,2.12-2.1,2.13C37.7,80.29,37.69,80.29,37.69,80.29z"/>
	</g>
	<g>
		<path class="st0" d="M21.97,40.39c-0.54,0-1.08-0.21-1.5-0.62c-0.83-0.83-0.83-2.17,0-2.99l16.81-16.81L54.1,36.78
			c0.83,0.83,0.83,2.17,0,2.99c-0.83,0.83-2.16,0.83-2.99,0L37.29,25.95L23.47,39.77C23.05,40.18,22.51,40.39,21.97,40.39z"/>
	</g>
</g>
<g>
	<path class="st0" d="M74.97,70.36c-0.35,0-0.7-0.09-1.02-0.26l-9.04-4.99l-9.03,4.99c-0.71,0.4-1.58,0.35-2.24-0.12
		c-0.66-0.47-1-1.27-0.87-2.07l1.75-10.72l-7.39-7.58c-0.55-0.57-0.74-1.4-0.49-2.15c0.25-0.75,0.9-1.3,1.69-1.42l10.13-1.54
		L63,34.81c0.35-0.74,1.09-1.22,1.92-1.22s1.57,0.47,1.91,1.22l4.55,9.69l10.13,1.55c0.78,0.12,1.43,0.67,1.69,1.42
		c0.25,0.75,0.06,1.58-0.49,2.15l-7.39,7.58l1.75,10.72c0.13,0.8-0.21,1.6-0.87,2.07C75.83,70.23,75.4,70.36,74.97,70.36z
		 M64.91,60.57c0.35,0,0.7,0.09,1.02,0.26l6.25,3.45l-1.22-7.47c-0.11-0.66,0.1-1.34,0.57-1.82l5.26-5.39l-7.17-1.09
		c-0.7-0.11-1.3-0.55-1.59-1.19l-3.11-6.63l-3.11,6.63c-0.3,0.64-0.9,1.09-1.6,1.19l-7.17,1.09L58.29,55
		c0.47,0.48,0.68,1.16,0.57,1.82l-1.22,7.48l6.24-3.45C64.21,60.66,64.56,60.57,64.91,60.57z"/>
</g>
</svg>
