<?xml version="1.0" encoding="utf-8"?>
<!-- Generator: Adobe Illustrator 23.0.6, SVG Export Plug-In . SVG Version: 6.00 Build 0)  -->
<svg version="1.1" id="Capa_1" xmlns="http://www.w3.org/2000/svg" xmlns:xlink="http://www.w3.org/1999/xlink" x="0px" y="0px"
	 viewBox="0 0 100 100" style="enable-background:new 0 0 100 100;" xml:space="preserve">
<style type="text/css">
	.st0{fill:#FFFFFF;}
	.st1{fill:#B3B3B3;}
</style>
<g>
	<g>
		<path class="st1" d="M60.32,35.78H27.19c-0.78,0-1.41-0.63-1.41-1.41c0-0.78,0.63-1.41,1.41-1.41h33.12
			c0.78,0,1.41,0.63,1.41,1.41C61.73,35.15,61.1,35.78,60.32,35.78z"/>
	</g>
	<g>
		<path class="st1" d="M60.32,46.07H27.19c-0.78,0-1.41-0.63-1.41-1.41c0-0.78,0.63-1.41,1.41-1.41h33.12
			c0.78,0,1.41,0.63,1.41,1.41C61.73,45.43,61.1,46.07,60.32,46.07z"/>
	</g>
	<g>
		<path class="st1" d="M48.9,55.77h-21.7c-0.78,0-1.41-0.63-1.41-1.41s0.63-1.41,1.41-1.41h21.7c0.78,0,1.41,0.63,1.41,1.41
			S49.68,55.77,48.9,55.77z"/>
	</g>
	<g>
		<path class="st1" d="M46.61,75.76H22.56c-2.31,0-4.2-1.86-4.2-4.15V18.26c0-2.29,1.88-4.15,4.2-4.15h44.11
			c2.31,0,4.2,1.86,4.2,4.15v29.82c0,0.78-0.63,1.41-1.41,1.41s-1.41-0.63-1.41-1.41V18.26c0-0.73-0.62-1.33-1.38-1.33H22.56
			c-0.76,0-1.38,0.59-1.38,1.33v53.35c0,0.73,0.62,1.33,1.38,1.33h24.05c0.78,0,1.41,0.63,1.41,1.41S47.39,75.76,46.61,75.76z"/>
	</g>
	<g>
		<path class="st1" d="M69.46,90.04c-10.22,0-18.54-8.32-18.54-18.54s8.32-18.54,18.54-18.54S88,61.27,88,71.5
			S79.68,90.04,69.46,90.04z M69.46,55.77c-8.67,0-15.72,7.05-15.72,15.72s7.05,15.72,15.72,15.72s15.72-7.05,15.72-15.72
			S78.13,55.77,69.46,55.77z"/>
	</g>
	<g>
		<g>
			<path class="st1" d="M67.21,80.5c0-1.16,0.8-1.99,1.89-1.99c1.16,0,1.89,0.83,1.89,1.99c0,1.12-0.74,1.99-1.89,1.99
				C67.98,82.49,67.21,81.63,67.21,80.5z M68.01,75.91l-0.45-15.41h3.08L70.2,75.91H68.01z"/>
		</g>
	</g>
</g>
</svg>
